<svg width="20" height="21" viewBox="0 0 20 21" fill="none" xmlns="http://www.w3.org/2000/svg">
<g clip-path="url(#clip0)">
<path d="M4.4686 18.7385C4.46305 18.7634 4.47258 18.7841 4.48898 18.7959L4.49097 18.7974C4.49615 18.8012 4.50083 18.8034 4.50523 18.8048C4.50985 18.8063 4.51523 18.8072 4.52128 18.8072C4.5305 18.8072 4.53943 18.8049 4.54833 18.7996L4.54861 18.7994L9.48554 15.8475L9.99877 15.5406L10.512 15.8475L15.4477 18.7993C15.4477 18.7993 15.4478 18.7993 15.4478 18.7993C15.4668 18.8106 15.4896 18.8096 15.5076 18.7966L15.5085 18.7959C15.5249 18.7841 15.5344 18.7634 15.5288 18.7385C15.5288 18.7384 15.5288 18.7384 15.5288 18.7383L14.253 13.1191L14.1211 12.5384L14.5689 12.1458L18.8965 8.35107C18.8965 8.35104 18.8965 8.35102 18.8966 8.35099C18.9128 8.33666 18.9198 8.31441 18.9124 8.29122C18.9053 8.26956 18.8873 8.25609 18.8668 8.25424L18.8665 8.25422L13.1412 7.73444L12.5466 7.68045L12.312 7.13133L10.0501 1.8356C10.05 1.83549 10.05 1.83538 10.0499 1.83527C10.04 1.81243 10.0205 1.80078 9.99872 1.80078C9.97626 1.80078 9.958 1.81286 9.9492 1.83348L9.949 1.83396L7.68633 7.13133L7.45178 7.68046L6.85711 7.73444L1.13239 8.25408C1.13229 8.25409 1.13219 8.2541 1.13209 8.25411C1.11133 8.25614 1.0925 8.26976 1.0846 8.29251C1.07792 8.31442 1.0848 8.33684 1.10072 8.35085L4.4686 18.7385ZM4.4686 18.7385C4.46862 18.7384 4.46863 18.7384 4.46864 18.7383L5.74448 13.1191L5.87632 12.5384L5.42859 12.1458L1.10079 8.35092L4.4686 18.7385Z" stroke="black" stroke-width="2"/>
</g>
<defs>
<clipPath id="clip0">
<rect width="19.8333" height="19.8333" fill="white" transform="translate(0.0820312 0.375)"/>
</clipPath>
</defs>
</svg>
