<svg width="15" height="7" viewBox="0 0 15 7" fill="none" xmlns="http://www.w3.org/2000/svg">
<path d="M14.8687 2.99928L12.0007 0.13124C11.8257 -0.0437466 11.5419 -0.0437466 11.3669 0.13124C11.1919 0.306262 11.1919 0.589984 11.3669 0.765006L13.4699 2.86804H0.448132C0.200656 2.86804 0 3.06869 0 3.31617C0 3.56361 0.200656 3.7643 0.448132 3.7643H13.4699L11.367 5.86733C11.192 6.04235 11.192 6.32607 11.367 6.50109C11.4544 6.58853 11.5692 6.63234 11.6839 6.63234C11.7985 6.63234 11.9132 6.58853 12.0007 6.50109L14.8687 3.63305C15.0438 3.45803 15.0438 3.17431 14.8687 2.99928Z" fill="#DE4300"/>
</svg>
