<svg width="330" height="130" viewBox="0 0 330 130" fill="none" xmlns="http://www.w3.org/2000/svg">
<mask id="mask0" mask-type="alpha" maskUnits="userSpaceOnUse" x="0" y="0" width="330" height="130">
<rect width="330" height="130" fill="#C4C4C4"/>
</mask>
<g mask="url(#mask0)">
</g>
<path d="M211.565 73.5836C211.509 73.5564 206.672 70.8295 200.132 55.9232L203.011 53.0438C204.233 51.8225 204.905 50.1937 204.905 48.458C204.905 46.7223 204.233 45.0936 203.011 43.8725C202.374 43.2354 201.626 42.7475 200.81 42.4266L203.011 40.2252C204.233 39.0039 204.905 37.3754 204.905 35.6395C204.905 33.9037 204.233 32.2752 203.011 31.0537C202.325 30.3672 201.521 29.867 200.664 29.5533C201.339 28.5139 201.701 27.2986 201.701 26.0254C201.701 24.2896 201.028 22.6611 199.807 21.4398C198.586 20.2186 196.957 19.5457 195.221 19.5457C193.948 19.5457 192.733 19.9076 191.694 20.5818C191.375 19.7092 190.868 18.91 190.193 18.2354C188.971 17.0141 187.343 16.3412 185.607 16.3412C185.607 16.3412 185.607 16.3412 185.607 16.3412C183.871 16.3412 182.243 17.0139 181.021 18.2352L179.849 19.4072C176.335 16.2691 173.817 15.2291 173.581 15.1361C173.027 14.9178 172.404 14.9639 171.888 15.2617C170.064 16.315 169.702 17.9854 169.461 19.0908C169.259 20.0244 169.18 20.2031 168.899 20.3652C168.618 20.5275 168.424 20.5064 167.514 20.215C166.437 19.8701 164.809 19.3488 162.985 20.4021C161.16 21.4555 160.798 23.1258 160.558 24.2312C160.355 25.1648 160.277 25.3436 159.996 25.5057C159.715 25.668 159.521 25.6469 158.611 25.3555C157.534 25.0105 155.906 24.4889 154.081 25.5426C152.257 26.5959 151.894 28.2662 151.655 29.3717C151.452 30.3053 151.373 30.484 151.092 30.6461C150.811 30.8084 150.617 30.7873 149.707 30.4959C148.629 30.151 147.002 29.6295 145.178 30.683C143.353 31.7365 142.991 33.4066 142.751 34.5121C142.548 35.4457 142.47 35.6244 142.189 35.7865C141.908 35.9486 141.714 35.9277 140.803 35.6363C139.726 35.2914 138.098 34.7703 136.274 35.8234C134.45 36.8768 134.087 38.5471 133.847 39.6523C133.645 40.5861 133.566 40.7646 133.285 40.927C133.004 41.0891 132.81 41.0682 131.9 40.7768C130.823 40.4316 129.195 39.9104 127.371 40.9639C126.903 41.2338 126.569 41.6854 126.446 42.2107C126.323 42.7363 126.423 43.2896 126.722 43.7387C126.774 43.816 131.734 51.3201 135.557 61.8477C134.415 62.8555 133.631 64.2576 133.418 65.8389L117.908 81.3492C117.145 82.1119 117.145 83.3486 117.908 84.1115L140.472 106.675C140.853 107.057 141.353 107.247 141.853 107.247C142.352 107.247 142.852 107.057 143.234 106.675L149.374 100.535L151.486 102.535V113.047C151.486 114.126 152.361 115 153.439 115H189.695C190.774 115 191.648 114.126 191.648 113.047V91.8775C192.826 90.851 193.119 89.5197 193.321 88.5883C193.524 87.6547 193.602 87.4762 193.883 87.3139C194.164 87.1516 194.359 87.1727 195.268 87.4641C196.346 87.8092 197.974 88.3305 199.798 87.277C201.622 86.2234 201.985 84.5533 202.225 83.4479C202.427 82.5143 202.506 82.3355 202.787 82.1734C203.068 82.0113 203.262 82.0322 204.172 82.3236C205.249 82.6687 206.877 83.1898 208.701 82.1365C210.526 81.0832 210.888 79.4129 211.128 78.3076C211.331 77.374 211.409 77.1953 211.69 77.0332C212.317 76.6715 212.692 75.9934 212.666 75.2705C212.639 74.5477 212.216 73.8984 211.565 73.5836ZM200.999 48.458C200.999 49.1502 200.733 49.7979 200.249 50.2814L198.501 52.0299C197.844 50.392 197.174 48.6324 196.493 46.7441L196.602 46.6346C197.086 46.151 197.733 45.8846 198.426 45.8846C199.118 45.8846 199.765 46.151 200.249 46.6346C200.733 47.1182 200.999 47.7658 200.999 48.458ZM200.249 33.816C200.733 34.2996 200.999 34.9473 200.999 35.6396C200.999 36.3318 200.733 36.9795 200.249 37.4629L194.984 42.7287C194.262 40.9242 193.522 39.2332 192.77 37.6484L196.601 33.8168C196.602 33.8164 196.602 33.8162 196.602 33.8158C197.608 32.8107 199.244 32.8105 200.249 33.816ZM193.398 24.2021C193.881 23.7186 194.529 23.4523 195.221 23.4523C195.914 23.4523 196.561 23.7187 197.045 24.2023C197.528 24.6859 197.795 25.3336 197.795 26.0258C197.795 26.718 197.528 27.3656 197.045 27.849L193.84 31.0537C193.84 31.0541 193.84 31.0543 193.839 31.0547L190.913 33.9812C190.012 32.3164 189.105 30.7932 188.202 29.3975L190.192 27.4076C190.193 27.4072 190.193 27.407 190.193 27.4066L193.398 24.2021ZM185.608 20.2479C186.3 20.2479 186.947 20.5141 187.431 20.9979C187.915 21.4814 188.181 22.1291 188.181 22.8213C188.181 23.5121 187.916 24.1582 187.434 24.6414L187.431 24.6447C187.431 24.6451 187.43 24.6453 187.43 24.6457L185.938 26.1383C184.803 24.6205 183.693 23.2975 182.632 22.15L183.784 20.9979C184.268 20.5141 184.915 20.2479 185.608 20.2479ZM141.853 102.532L122.051 82.7305L133.358 71.4234V81.5615C133.358 84.4275 134.459 86.6814 136.819 88.649L146.536 97.8488L141.853 102.532ZM187.742 111.094H155.393V101.695C155.393 101.158 155.172 100.645 154.782 100.276L139.458 85.7682C139.426 85.7377 139.393 85.7082 139.358 85.6799C137.852 84.4367 137.264 83.282 137.264 81.5613V66.708C137.264 65.2859 138.421 64.1291 139.843 64.1291C141.216 64.1291 142.326 65.2922 142.426 66.8346C142.571 69.0715 142.922 72.5006 143.35 74.7432C143.391 74.9582 143.468 75.1646 143.577 75.3541C144.797 77.4674 148.162 78.4906 152.819 79.9068L152.871 79.9227C153.463 80.1029 154.105 79.9916 154.602 79.6232C155.1 79.2549 155.393 78.6727 155.393 78.0541V43.0285C155.393 41.6066 156.55 40.4496 157.972 40.4496C159.394 40.4496 160.55 41.6064 160.55 43.0285V54.8084C160.55 55.8871 161.425 56.7615 162.503 56.7615C163.582 56.7615 164.457 55.8871 164.457 54.8084V43.0285V38.4963C164.457 37.0744 165.614 35.9174 167.035 35.9174C168.457 35.9174 169.614 37.0742 169.614 38.4963V43.0283V63.5973C169.614 64.676 170.489 65.5504 171.567 65.5504C172.646 65.5504 173.52 64.676 173.52 63.5973V43.0285C173.52 41.6066 174.677 40.4498 176.099 40.4498C177.521 40.4498 178.678 41.6066 178.678 43.0285V52.0891C178.678 52.0902 178.678 52.0916 178.678 52.0928V63.5975C178.678 64.6762 179.553 65.5506 180.631 65.5506C181.71 65.5506 182.584 64.6762 182.584 63.5975V52.0965C182.584 52.0953 182.585 52.0939 182.585 52.0928C182.585 50.6709 183.741 49.5139 185.163 49.5139C186.585 49.5139 187.742 50.6707 187.742 52.0928V111.094H187.742ZM207.311 77.4793C207.108 78.4129 207.029 78.5914 206.748 78.7537C206.468 78.9158 206.273 78.8949 205.363 78.6035C204.286 78.2584 202.658 77.7373 200.834 78.7906C199.01 79.8439 198.647 81.5143 198.407 82.6197C198.205 83.5533 198.126 83.732 197.845 83.8941C197.564 84.0566 197.369 84.0352 196.46 83.7439C195.382 83.399 193.755 82.8775 191.93 83.9311C191.832 83.9881 191.739 84.0477 191.649 84.108V52.0928C191.649 48.5168 188.739 45.6076 185.164 45.6076C184.248 45.6076 183.376 45.7986 182.585 46.1424V43.0283C182.585 39.4525 179.676 36.5434 176.1 36.5434C175.128 36.5434 174.207 36.7578 173.379 37.1422C172.754 34.2141 170.147 32.0111 167.036 32.0111C163.924 32.0111 161.317 34.2139 160.693 37.1422C159.865 36.7578 158.943 36.5434 157.972 36.5434C154.396 36.5434 151.486 39.4525 151.486 43.0285V75.4062C150.555 75.1082 149.7 74.8156 148.975 74.5238C147.823 74.0602 147.316 73.7232 147.102 73.5443C146.758 71.5424 146.456 68.6055 146.325 66.5814C146.089 62.9562 143.303 60.2227 139.844 60.2227C139.605 60.2227 139.369 60.2367 139.136 60.2619C136.673 53.5301 133.821 48.0801 131.96 44.8363C132.896 45.0145 134.023 45.0109 135.238 44.3098C137.062 43.2564 137.425 41.5859 137.665 40.4807C137.868 39.5471 137.946 39.3684 138.227 39.2062C138.508 39.0441 138.702 39.065 139.612 39.3564C140.69 39.7016 142.317 40.2227 144.142 39.1693C145.966 38.116 146.328 36.4457 146.569 35.3402C146.771 34.4066 146.85 34.2279 147.131 34.0658C147.412 33.9037 147.606 33.9246 148.516 34.216C149.593 34.5609 151.221 35.0824 153.045 34.0289C154.87 32.9756 155.232 31.3053 155.472 30.1998C155.675 29.2662 155.753 29.0875 156.034 28.9254C156.315 28.7631 156.51 28.7844 157.419 29.0756C158.497 29.4207 160.124 29.9418 161.949 28.8885C163.773 27.8352 164.136 26.1648 164.376 25.0594C164.578 24.1258 164.657 23.9471 164.938 23.785C165.219 23.6227 165.413 23.6437 166.323 23.9352C167.4 24.2799 169.028 24.8016 170.852 23.748C172.677 22.6947 173.039 21.0244 173.279 19.9189C173.32 19.7275 173.357 19.5678 173.391 19.4334C174.635 20.1807 176.706 21.6318 179.152 24.1629C182.861 28.0018 188.21 35.1717 192.623 47.5285C199.158 65.827 204.938 72.9768 207.88 75.6455C207.567 76.3 207.425 76.9535 207.311 77.4793Z" fill="#45B3F1"/>
</svg>
