<svg width="330" height="130" viewBox="0 0 330 130" fill="none" xmlns="http://www.w3.org/2000/svg">
<mask id="mask0" mask-type="alpha" maskUnits="userSpaceOnUse" x="0" y="0" width="330" height="130">
<rect width="330" height="130" fill="#C4C4C4"/>
</mask>
<g mask="url(#mask0)">
<path d="M142.811 25.6389L142.811 25.6389C142.029 26.1727 140.962 25.9723 140.428 25.19C139.894 24.4079 140.095 23.3408 140.877 22.8066C148.691 17.4689 156.456 14.75 163.951 14.75C172.832 14.75 182.371 18.7165 191.541 26.1839C198.403 31.7719 202.621 37.2855 202.803 37.5254C203.269 38.1386 203.269 38.9869 202.803 39.6C202.7 39.7358 200.358 42.8008 196.34 46.6793L142.811 25.6389ZM142.811 25.6389C150.07 20.6805 157.182 18.1797 163.951 18.1797C174.105 18.1797 183.343 23.9405 189.323 28.8008C194.172 32.742 197.705 36.7295 199.234 38.563C198.247 39.7481 196.424 41.8315 193.958 44.2115C193.277 44.8691 193.257 45.9547 193.915 46.6363L194.095 46.4627M142.811 25.6389L194.095 46.4627M194.095 46.4627L193.915 46.6363C194.251 46.9849 194.7 47.1604 195.149 47.1604M194.095 46.4627L195.149 47.1604M195.149 47.1604C195.577 47.1604 196.007 47.0005 196.339 46.6793L195.149 47.1604Z" fill="#45B3F1" stroke="#45B3F1" stroke-width="0.5"/>
<path d="M163.95 32.1118C160.393 32.1118 157.5 35.005 157.5 38.5618C157.5 42.1186 160.393 45.0118 163.95 45.0118C167.507 45.0118 170.4 42.1186 170.4 38.5618C170.4 35.005 167.507 32.1118 163.95 32.1118ZM163.95 41.5819C162.285 41.5819 160.93 40.2269 160.93 38.5616C160.93 36.8966 162.285 35.5413 163.95 35.5413C165.615 35.5413 166.97 36.8964 166.97 38.5616C166.97 40.2269 165.615 41.5819 163.95 41.5819Z" fill="#45B3F1" stroke="#45B3F1" stroke-width="0.5"/>
<mask id="path-4-outside-1" maskUnits="userSpaceOnUse" x="124" y="22.2861" width="82" height="94" fill="black">
<rect fill="white" x="124" y="22.2861" width="82" height="94"/>
<path d="M203.411 84.3721C204.22 84.3721 204.875 83.7162 204.875 82.9072V73.9717C204.875 71.041 202.537 68.5732 199.662 68.4707C198.696 68.4357 197.764 68.6518 196.937 69.0902C196.595 66.4574 194.448 64.4217 191.768 64.326C190.79 64.2932 189.849 64.5137 189.015 64.9629C188.587 62.452 186.446 60.4723 183.877 60.3809C182.932 60.3469 182.015 60.5541 181.199 60.9764V57.5309C184.45 55.8385 187.722 53.6807 190.937 51.1053C191.569 50.5994 191.671 49.6775 191.165 49.0463C190.659 48.415 189.737 48.3129 189.106 48.8186C186.487 50.9158 183.837 52.7186 181.199 54.1998V50.4932C181.199 48.1549 179.71 46.1127 177.648 45.3299C178.686 43.2385 179.227 40.9359 179.227 38.5615C179.227 30.1387 172.374 23.2861 163.951 23.2861C155.529 23.2861 148.676 30.1387 148.676 38.5615C148.676 46.9844 155.529 53.8369 163.951 53.8369C166.199 53.8369 168.38 53.3508 170.379 52.4207V58.4678C168.219 58.9473 166.204 59.1939 163.929 59.1939C153.696 59.1939 144.411 53.3846 138.422 48.5172C133.41 44.4441 129.801 40.3223 128.344 38.5615C129.696 36.927 132.901 33.26 137.358 29.4906C137.976 28.9684 138.053 28.0439 137.531 27.4264C137.008 26.8086 136.084 26.7313 135.466 27.2537C129.239 32.5199 125.456 37.4678 125.298 37.6758C124.901 38.1994 124.901 38.924 125.298 39.4477C125.474 39.6789 129.679 45.1756 136.519 50.7463C142.976 56.0045 149.605 59.509 156.046 61.115C150.501 63.9865 146.702 69.7789 146.702 76.4424C146.702 85.5549 153.806 93.0385 162.766 93.6496C163.236 96.2445 164.297 98.7074 165.874 100.836L167.53 103.071C168.102 103.842 168.404 104.759 168.404 105.722V113.534C168.404 114.343 169.06 114.999 169.869 114.999H201.438C202.247 114.999 202.902 114.343 202.902 113.534V104.397C202.902 104.032 202.947 103.669 203.034 103.318L204.361 98.0178C204.702 96.6502 204.875 95.2428 204.875 93.835V89.7432C204.875 88.9342 204.22 88.2783 203.41 88.2783C202.601 88.2783 201.946 88.9342 201.946 89.7432V93.835C201.946 95.0039 201.802 96.1727 201.519 97.3074L200.192 102.608C200.046 103.192 199.973 103.794 199.973 104.397V112.069H171.334V105.722C171.334 104.126 170.833 102.605 169.884 101.326L168.228 99.092C167.016 97.4543 166.171 95.5785 165.742 93.5981C174.415 92.6992 181.2 85.3483 181.2 76.442V65.7879C181.2 65.7865 181.2 65.7854 181.2 65.784C181.201 65.1061 181.47 64.4734 181.959 64.0022C182.447 63.5303 183.089 63.2852 183.773 63.3082C185.09 63.3553 186.163 64.5096 186.163 65.8815L186.162 76.4418C186.162 77.2508 186.818 77.9066 187.627 77.9066C188.436 77.9066 189.092 77.2508 189.092 76.4418V69.7367C189.092 69.7355 189.092 69.7342 189.092 69.733C189.092 69.0541 189.361 68.4205 189.849 67.9488C190.338 67.4768 190.982 67.2285 191.665 67.2533C192.983 67.3004 194.055 68.4555 194.055 69.8285L194.054 76.4416C194.054 77.2506 194.71 77.9065 195.519 77.9065C196.328 77.9065 196.984 77.2506 196.984 76.4416V73.8961C196.984 73.8899 196.985 73.8836 196.985 73.8772C196.985 73.1969 197.254 72.5625 197.743 72.0908C198.231 71.6195 198.874 71.3744 199.557 71.3979C200.874 71.4449 201.946 72.5992 201.946 73.9711V82.9067C201.946 83.7162 202.602 84.3721 203.411 84.3721ZM151.606 38.5615C151.606 31.7541 157.144 26.2158 163.952 26.2158C170.759 26.2158 176.297 31.7541 176.297 38.5615C176.297 40.9248 175.634 43.1984 174.375 45.174C173.503 45.408 172.703 45.8594 172.033 46.5051C171.316 47.1977 170.816 48.0506 170.565 48.9859C168.591 50.2439 166.317 50.9074 163.952 50.9074C157.144 50.9072 151.606 45.3689 151.606 38.5615ZM163.951 90.7611C156.056 90.7611 149.632 84.3377 149.632 76.4422C149.631 68.541 156.068 62.1139 163.967 62.1236C171.855 62.1324 178.27 68.552 178.27 76.4422C178.27 84.3377 171.847 90.7611 163.951 90.7611ZM173.309 61.9594V50.3994C173.309 49.7197 173.578 49.0854 174.068 48.6133C174.556 48.142 175.201 47.8965 175.882 47.9199C177.198 47.967 178.27 49.1213 178.27 50.4932L178.27 66.8356C176.964 64.8947 175.273 63.233 173.309 61.9594Z"/>
</mask>
<path d="M203.411 84.3721C204.22 84.3721 204.875 83.7162 204.875 82.9072V73.9717C204.875 71.041 202.537 68.5732 199.662 68.4707C198.696 68.4357 197.764 68.6518 196.937 69.0902C196.595 66.4574 194.448 64.4217 191.768 64.326C190.79 64.2932 189.849 64.5137 189.015 64.9629C188.587 62.452 186.446 60.4723 183.877 60.3809C182.932 60.3469 182.015 60.5541 181.199 60.9764V57.5309C184.45 55.8385 187.722 53.6807 190.937 51.1053C191.569 50.5994 191.671 49.6775 191.165 49.0463C190.659 48.415 189.737 48.3129 189.106 48.8186C186.487 50.9158 183.837 52.7186 181.199 54.1998V50.4932C181.199 48.1549 179.71 46.1127 177.648 45.3299C178.686 43.2385 179.227 40.9359 179.227 38.5615C179.227 30.1387 172.374 23.2861 163.951 23.2861C155.529 23.2861 148.676 30.1387 148.676 38.5615C148.676 46.9844 155.529 53.8369 163.951 53.8369C166.199 53.8369 168.38 53.3508 170.379 52.4207V58.4678C168.219 58.9473 166.204 59.1939 163.929 59.1939C153.696 59.1939 144.411 53.3846 138.422 48.5172C133.41 44.4441 129.801 40.3223 128.344 38.5615C129.696 36.927 132.901 33.26 137.358 29.4906C137.976 28.9684 138.053 28.0439 137.531 27.4264C137.008 26.8086 136.084 26.7313 135.466 27.2537C129.239 32.5199 125.456 37.4678 125.298 37.6758C124.901 38.1994 124.901 38.924 125.298 39.4477C125.474 39.6789 129.679 45.1756 136.519 50.7463C142.976 56.0045 149.605 59.509 156.046 61.115C150.501 63.9865 146.702 69.7789 146.702 76.4424C146.702 85.5549 153.806 93.0385 162.766 93.6496C163.236 96.2445 164.297 98.7074 165.874 100.836L167.53 103.071C168.102 103.842 168.404 104.759 168.404 105.722V113.534C168.404 114.343 169.06 114.999 169.869 114.999H201.438C202.247 114.999 202.902 114.343 202.902 113.534V104.397C202.902 104.032 202.947 103.669 203.034 103.318L204.361 98.0178C204.702 96.6502 204.875 95.2428 204.875 93.835V89.7432C204.875 88.9342 204.22 88.2783 203.41 88.2783C202.601 88.2783 201.946 88.9342 201.946 89.7432V93.835C201.946 95.0039 201.802 96.1727 201.519 97.3074L200.192 102.608C200.046 103.192 199.973 103.794 199.973 104.397V112.069H171.334V105.722C171.334 104.126 170.833 102.605 169.884 101.326L168.228 99.092C167.016 97.4543 166.171 95.5785 165.742 93.5981C174.415 92.6992 181.2 85.3483 181.2 76.442V65.7879C181.2 65.7865 181.2 65.7854 181.2 65.784C181.201 65.1061 181.47 64.4734 181.959 64.0022C182.447 63.5303 183.089 63.2852 183.773 63.3082C185.09 63.3553 186.163 64.5096 186.163 65.8815L186.162 76.4418C186.162 77.2508 186.818 77.9066 187.627 77.9066C188.436 77.9066 189.092 77.2508 189.092 76.4418V69.7367C189.092 69.7355 189.092 69.7342 189.092 69.733C189.092 69.0541 189.361 68.4205 189.849 67.9488C190.338 67.4768 190.982 67.2285 191.665 67.2533C192.983 67.3004 194.055 68.4555 194.055 69.8285L194.054 76.4416C194.054 77.2506 194.71 77.9065 195.519 77.9065C196.328 77.9065 196.984 77.2506 196.984 76.4416V73.8961C196.984 73.8899 196.985 73.8836 196.985 73.8772C196.985 73.1969 197.254 72.5625 197.743 72.0908C198.231 71.6195 198.874 71.3744 199.557 71.3979C200.874 71.4449 201.946 72.5992 201.946 73.9711V82.9067C201.946 83.7162 202.602 84.3721 203.411 84.3721ZM151.606 38.5615C151.606 31.7541 157.144 26.2158 163.952 26.2158C170.759 26.2158 176.297 31.7541 176.297 38.5615C176.297 40.9248 175.634 43.1984 174.375 45.174C173.503 45.408 172.703 45.8594 172.033 46.5051C171.316 47.1977 170.816 48.0506 170.565 48.9859C168.591 50.2439 166.317 50.9074 163.952 50.9074C157.144 50.9072 151.606 45.3689 151.606 38.5615ZM163.951 90.7611C156.056 90.7611 149.632 84.3377 149.632 76.4422C149.631 68.541 156.068 62.1139 163.967 62.1236C171.855 62.1324 178.27 68.552 178.27 76.4422C178.27 84.3377 171.847 90.7611 163.951 90.7611ZM173.309 61.9594V50.3994C173.309 49.7197 173.578 49.0854 174.068 48.6133C174.556 48.142 175.201 47.8965 175.882 47.9199C177.198 47.967 178.27 49.1213 178.27 50.4932L178.27 66.8356C176.964 64.8947 175.273 63.233 173.309 61.9594Z" fill="#45B3F1"/>
<path d="M203.411 84.3721C204.22 84.3721 204.875 83.7162 204.875 82.9072V73.9717C204.875 71.041 202.537 68.5732 199.662 68.4707C198.696 68.4357 197.764 68.6518 196.937 69.0902C196.595 66.4574 194.448 64.4217 191.768 64.326C190.79 64.2932 189.849 64.5137 189.015 64.9629C188.587 62.452 186.446 60.4723 183.877 60.3809C182.932 60.3469 182.015 60.5541 181.199 60.9764V57.5309C184.45 55.8385 187.722 53.6807 190.937 51.1053C191.569 50.5994 191.671 49.6775 191.165 49.0463C190.659 48.415 189.737 48.3129 189.106 48.8186C186.487 50.9158 183.837 52.7186 181.199 54.1998V50.4932C181.199 48.1549 179.71 46.1127 177.648 45.3299C178.686 43.2385 179.227 40.9359 179.227 38.5615C179.227 30.1387 172.374 23.2861 163.951 23.2861C155.529 23.2861 148.676 30.1387 148.676 38.5615C148.676 46.9844 155.529 53.8369 163.951 53.8369C166.199 53.8369 168.38 53.3508 170.379 52.4207V58.4678C168.219 58.9473 166.204 59.1939 163.929 59.1939C153.696 59.1939 144.411 53.3846 138.422 48.5172C133.41 44.4441 129.801 40.3223 128.344 38.5615C129.696 36.927 132.901 33.26 137.358 29.4906C137.976 28.9684 138.053 28.0439 137.531 27.4264C137.008 26.8086 136.084 26.7313 135.466 27.2537C129.239 32.5199 125.456 37.4678 125.298 37.6758C124.901 38.1994 124.901 38.924 125.298 39.4477C125.474 39.6789 129.679 45.1756 136.519 50.7463C142.976 56.0045 149.605 59.509 156.046 61.115C150.501 63.9865 146.702 69.7789 146.702 76.4424C146.702 85.5549 153.806 93.0385 162.766 93.6496C163.236 96.2445 164.297 98.7074 165.874 100.836L167.53 103.071C168.102 103.842 168.404 104.759 168.404 105.722V113.534C168.404 114.343 169.06 114.999 169.869 114.999H201.438C202.247 114.999 202.902 114.343 202.902 113.534V104.397C202.902 104.032 202.947 103.669 203.034 103.318L204.361 98.0178C204.702 96.6502 204.875 95.2428 204.875 93.835V89.7432C204.875 88.9342 204.22 88.2783 203.41 88.2783C202.601 88.2783 201.946 88.9342 201.946 89.7432V93.835C201.946 95.0039 201.802 96.1727 201.519 97.3074L200.192 102.608C200.046 103.192 199.973 103.794 199.973 104.397V112.069H171.334V105.722C171.334 104.126 170.833 102.605 169.884 101.326L168.228 99.092C167.016 97.4543 166.171 95.5785 165.742 93.5981C174.415 92.6992 181.2 85.3483 181.2 76.442V65.7879C181.2 65.7865 181.2 65.7854 181.2 65.784C181.201 65.1061 181.47 64.4734 181.959 64.0022C182.447 63.5303 183.089 63.2852 183.773 63.3082C185.09 63.3553 186.163 64.5096 186.163 65.8815L186.162 76.4418C186.162 77.2508 186.818 77.9066 187.627 77.9066C188.436 77.9066 189.092 77.2508 189.092 76.4418V69.7367C189.092 69.7355 189.092 69.7342 189.092 69.733C189.092 69.0541 189.361 68.4205 189.849 67.9488C190.338 67.4768 190.982 67.2285 191.665 67.2533C192.983 67.3004 194.055 68.4555 194.055 69.8285L194.054 76.4416C194.054 77.2506 194.71 77.9065 195.519 77.9065C196.328 77.9065 196.984 77.2506 196.984 76.4416V73.8961C196.984 73.8899 196.985 73.8836 196.985 73.8772C196.985 73.1969 197.254 72.5625 197.743 72.0908C198.231 71.6195 198.874 71.3744 199.557 71.3979C200.874 71.4449 201.946 72.5992 201.946 73.9711V82.9067C201.946 83.7162 202.602 84.3721 203.411 84.3721ZM151.606 38.5615C151.606 31.7541 157.144 26.2158 163.952 26.2158C170.759 26.2158 176.297 31.7541 176.297 38.5615C176.297 40.9248 175.634 43.1984 174.375 45.174C173.503 45.408 172.703 45.8594 172.033 46.5051C171.316 47.1977 170.816 48.0506 170.565 48.9859C168.591 50.2439 166.317 50.9074 163.952 50.9074C157.144 50.9072 151.606 45.3689 151.606 38.5615ZM163.951 90.7611C156.056 90.7611 149.632 84.3377 149.632 76.4422C149.631 68.541 156.068 62.1139 163.967 62.1236C171.855 62.1324 178.27 68.552 178.27 76.4422C178.27 84.3377 171.847 90.7611 163.951 90.7611ZM173.309 61.9594V50.3994C173.309 49.7197 173.578 49.0854 174.068 48.6133C174.556 48.142 175.201 47.8965 175.882 47.9199C177.198 47.967 178.27 49.1213 178.27 50.4932L178.27 66.8356C176.964 64.8947 175.273 63.233 173.309 61.9594Z" stroke="#45B3F1" mask="url(#path-4-outside-1)"/>
<path d="M171.873 68.5226L171.873 68.5226C172.793 69.4424 173.3 70.6665 173.3 71.9674C173.3 73.2683 172.793 74.4924 171.873 75.4123L170.842 76.4436L171.873 77.475C172.793 78.3947 173.3 79.6188 173.3 80.9197C173.3 82.2204 172.793 83.4445 171.873 84.3644L171.873 68.5226ZM171.873 68.5226C170.954 67.6029 169.73 67.0957 168.429 67.0957C167.128 67.0957 165.904 67.6029 164.984 68.5228C164.984 68.5228 164.984 68.5229 164.984 68.5229L163.953 69.554M171.873 68.5226L163.953 69.554M163.953 69.554L162.922 68.5228L162.922 68.5228C161.022 66.623 157.932 66.6233 156.032 68.5228C155.113 69.4426 154.605 70.6669 154.605 71.9676C154.605 73.2684 155.112 74.4926 156.032 75.4123L157.063 76.4436L156.032 77.4748C155.112 78.3945 154.605 79.6186 154.605 80.9195L163.953 69.554ZM162.922 84.3643C162.002 85.2842 160.778 85.7912 159.477 85.7912C158.176 85.7912 156.952 85.284 156.032 84.3643C155.112 83.4446 154.605 82.2202 154.605 80.9196L162.922 84.3643ZM162.922 84.3643L163.953 83.333L164.984 84.364C164.984 84.3641 164.984 84.3641 164.984 84.3641C165.904 85.284 167.128 85.7912 168.429 85.7912C169.73 85.7912 170.954 85.2842 171.873 84.3645L162.922 84.3643ZM169.448 81.939L169.448 81.939C169.721 81.6664 169.871 81.305 169.871 80.9195C169.871 80.5339 169.721 80.1727 169.448 79.9L167.204 77.6561C166.535 76.9864 166.535 75.9006 167.204 75.2312C167.204 75.2312 167.205 75.2312 167.205 75.2312L169.448 72.9873L169.448 72.9872C169.721 72.7146 169.871 72.3532 169.871 71.9678C169.871 71.5821 169.721 71.2209 169.448 70.9483C169.176 70.6754 168.814 70.5258 168.429 70.5258C168.043 70.5258 167.682 70.6755 167.409 70.9483C167.409 70.9483 167.409 70.9483 167.409 70.9483L165.166 73.1922L165.166 73.1923C164.844 73.5139 164.408 73.6945 163.953 73.6945C163.498 73.6945 163.062 73.5139 162.74 73.1922C162.74 73.1922 162.74 73.1922 162.74 73.1921L160.497 70.9485C159.935 70.3863 159.02 70.3863 158.457 70.9485C157.896 71.5104 157.896 72.4255 158.457 72.9875L160.701 75.2312C160.701 75.2312 160.701 75.2312 160.701 75.2312C161.371 75.9008 161.371 76.9866 160.701 77.6563L158.457 79.9C158.185 80.1727 158.035 80.5341 158.035 80.9195C158.035 81.3052 158.185 81.6666 158.457 81.9392C158.73 82.2119 159.091 82.3615 159.477 82.3615C159.862 82.3615 160.224 82.2118 160.497 81.939H169.448ZM169.448 81.939C169.176 82.2117 168.814 82.3613 168.429 82.3613C168.043 82.3613 167.682 82.2118 167.409 81.9391L167.409 81.939L165.166 79.6953L165.166 79.6952C164.831 79.3606 164.391 79.193 163.953 79.193C163.515 79.193 163.075 79.3604 162.74 79.6953C162.74 79.6953 162.74 79.6953 162.74 79.6954L160.497 81.939L169.448 81.939Z" fill="#45B3F1" stroke="#45B3F1" stroke-width="0.5"/>
</g>
</svg>
