<svg width="330" height="130" viewBox="0 0 330 130" fill="none" xmlns="http://www.w3.org/2000/svg">
<mask id="mask0" mask-type="alpha" maskUnits="userSpaceOnUse" x="0" y="0" width="330" height="130">
<rect width="330" height="130" fill="#C4C4C4"/>
</mask>
<g mask="url(#mask0)">
</g>
<mask id="path-2-outside-1" maskUnits="userSpaceOnUse" x="117.125" y="17.1157" width="96" height="96" fill="black">
<rect fill="white" x="117.125" y="17.1157" width="96" height="96"/>
<path d="M193.672 33.7495H211.875V36.8745H193.125C192.77 36.8745 192.427 36.754 192.15 36.5327L191.265 35.8257C190.549 35.2527 189.814 34.6896 189.08 34.1513L190.928 31.6318C191.697 32.1958 192.467 32.7857 193.216 33.3853L193.672 33.7495ZM194.807 64.9995H211.875V68.1245H195.935C195.955 68.2101 195.976 68.295 195.994 68.3808L192.93 68.997C192.475 66.7491 191.257 64.7279 189.481 63.2762C187.706 61.8245 185.483 61.0318 183.189 61.0327C183.046 61.0327 182.906 61.0382 182.765 61.0433C182.516 61.0523 182.27 61.0021 182.045 60.8967C181.82 60.7914 181.623 60.6339 181.472 60.4375C181.32 60.241 181.217 60.0112 181.171 59.767C181.126 59.5229 181.14 59.2714 181.211 59.0335C181.874 56.8175 181.744 54.4394 180.842 52.3093C179.939 50.1793 178.322 48.4309 176.269 47.3657C174.215 46.3005 171.855 45.9852 169.594 46.4743C167.333 46.9634 165.313 48.2262 163.884 50.0448C163.738 50.2304 163.551 50.3803 163.339 50.4835C163.126 50.5866 162.893 50.6401 162.657 50.6401C162.421 50.6401 162.187 50.5866 161.975 50.4835C161.762 50.3803 161.576 50.2304 161.43 50.0448C160.25 48.5443 158.664 47.4153 156.86 46.7928C155.056 46.1702 153.11 46.0806 151.257 46.5345C149.403 46.9885 147.719 47.9668 146.407 49.3525C145.095 50.7382 144.209 52.4725 143.857 54.3482C143.567 55.9074 143.65 57.5132 144.102 59.0337C144.173 59.2716 144.186 59.5231 144.141 59.7673C144.096 60.0115 143.993 60.2413 143.841 60.4378C143.689 60.6342 143.492 60.7916 143.267 60.8969C143.042 61.0023 142.795 61.0524 142.547 61.0433C142.406 61.0382 142.265 61.0327 142.122 61.0327C139.944 61.0321 137.826 61.7474 136.094 63.0686C134.362 64.3899 133.112 66.2437 132.537 68.3448L129.522 67.5216C130.213 64.9968 131.647 62.738 133.637 61.038C135.628 59.338 138.083 58.2754 140.685 57.9878C140.31 55.3002 140.782 52.5626 142.035 50.1554C143.287 47.7482 145.259 45.791 147.675 44.5558C150.091 43.3205 152.832 42.8686 155.517 43.2628C158.202 43.657 160.697 44.8778 162.656 46.7554C165.082 44.4182 168.323 43.1161 171.691 43.1245C172.144 43.1246 172.595 43.148 173.045 43.1947C172.379 42.213 171.792 41.1805 171.288 40.1068C170.797 39.0609 170.382 37.9807 170.047 36.8745H152.496C151.769 37.8447 150.826 38.6323 149.742 39.1747C148.658 39.7171 147.462 39.9995 146.25 39.9995C145.038 39.9995 143.842 39.7171 142.758 39.1747C141.674 38.6323 140.731 37.8447 140.004 36.8745C138.296 36.8745 136.381 36.8814 135.561 38.7136C135.337 39.2337 135.26 39.8053 135.339 40.366C135.419 40.9266 135.651 41.4547 136.01 41.8923C137.284 43.4005 139.594 43.3077 141.556 43.0859C141.558 44.1382 141.56 45.1905 141.562 46.2427C140.379 46.4366 139.172 46.2259 137.974 46.1962C136.776 46.1665 135.481 46.3622 134.62 47.196C133.58 48.2027 133.508 49.9982 134.361 51.1677C135.213 52.3372 136.834 52.8308 138.236 52.4712L138.231 55.5687C135.355 56.1466 132.187 54.4331 131.098 51.7081C130.009 48.9831 131.122 45.5583 133.604 43.9947C132.853 43.0773 132.377 41.9656 132.231 40.7886C132.086 39.6116 132.277 38.4174 132.783 37.3448C133.289 36.2722 134.089 35.3651 135.09 34.7287C136.091 34.0923 137.252 33.7528 138.437 33.7495H138.595C138.364 32.6146 138.388 31.4425 138.665 30.318C138.943 29.1935 139.467 28.1448 140.199 27.2478C140.932 26.3508 141.855 25.6279 142.902 25.1315C143.948 24.6351 145.092 24.3776 146.25 24.3776C147.408 24.3776 148.552 24.6351 149.598 25.1315C150.645 25.6279 151.568 26.3508 152.301 27.2478C153.033 28.1448 153.557 29.1935 153.835 30.318C154.112 31.4425 154.136 32.6146 153.905 33.7495H166L158.394 28.7824C158.38 28.7732 158.365 28.7638 158.352 28.754C157.708 28.3065 157.162 27.733 156.746 27.0683C156.331 26.4036 156.054 25.6615 155.934 24.8868C155.433 21.7433 158.026 18.2228 161.305 18.1183C162.672 18.0749 163.987 18.5882 165.258 19.0933L174.969 22.9534C176.43 19.4195 180.755 17.3589 184.419 18.4513C188.083 19.5437 190.575 23.6361 189.862 27.3927C189.148 31.1493 185.331 34.0447 181.522 33.7185C177.712 33.3923 174.442 29.8904 174.378 26.0673L163.779 21.8575C162.958 21.5312 162.089 21.1986 161.214 21.3212C158.938 21.6402 158.191 24.9175 160.126 26.1814L172.104 34.0034C172.278 34.1167 172.427 34.2634 172.543 34.4348C172.659 34.6063 172.74 34.7992 172.781 35.0023C173.091 36.3045 173.539 37.57 174.117 38.7777C176.29 43.4029 180.782 48.7265 189.845 47.8195L190.155 50.9288C189.353 51.0091 188.581 51.0472 187.839 51.0472C186.372 51.0531 184.909 50.8908 183.478 50.5636C184.58 52.8716 184.98 55.4524 184.628 57.9855C186.773 58.2192 188.826 58.9826 190.603 60.207C192.38 61.4313 193.825 63.0782 194.808 64.9995H194.807ZM177.5 25.937C177.5 26.8641 177.775 27.7704 178.29 28.5413C178.805 29.3121 179.537 29.9129 180.394 30.2677C181.25 30.6225 182.193 30.7153 183.102 30.5345C184.011 30.3536 184.846 29.9072 185.502 29.2516C186.158 28.596 186.604 27.7608 186.785 26.8515C186.966 25.9422 186.873 24.9997 186.518 24.1432C186.163 23.2867 185.563 22.5546 184.792 22.0395C184.021 21.5245 183.115 21.2495 182.187 21.2495C180.945 21.251 179.753 21.7453 178.875 22.6241C177.996 23.5028 177.501 24.6943 177.5 25.937ZM150.937 32.187C150.937 31.2599 150.663 30.3537 150.147 29.5828C149.632 28.8119 148.9 28.2111 148.044 27.8564C147.187 27.5016 146.245 27.4087 145.335 27.5896C144.426 27.7705 143.591 28.2169 142.935 28.8725C142.28 29.528 141.833 30.3633 141.653 31.2726C141.472 32.1818 141.565 33.1243 141.919 33.9809C142.274 34.8374 142.875 35.5695 143.646 36.0846C144.417 36.5996 145.323 36.8745 146.25 36.8745C147.493 36.8731 148.684 36.3788 149.563 35.5C150.442 34.6212 150.936 33.4298 150.937 32.187ZM171.691 52.4995C172.354 52.4992 173.004 52.6784 173.573 53.0179L175.177 50.3359C173.756 49.4878 172.074 49.1867 170.447 49.489C168.821 49.7913 167.36 50.6762 166.338 51.9781L165.335 53.2513L167.79 55.1849L168.793 53.9116C169.137 53.4713 169.576 53.1153 170.079 52.8706C170.581 52.6259 171.132 52.499 171.691 52.4995ZM181.489 102.665C177.83 104.494 168.486 108.75 160.768 108.75H132.187C131.359 108.75 130.564 108.42 129.978 107.834C129.392 107.248 129.062 106.453 129.062 105.625C129.062 104.796 129.392 104.001 129.978 103.415C130.564 102.829 131.359 102.5 132.187 102.5H149.375V99.3745H127.5C126.671 99.3745 125.876 99.0453 125.29 98.4592C124.704 97.8732 124.375 97.0783 124.375 96.2495C124.375 95.4207 124.704 94.6259 125.29 94.0398C125.876 93.4538 126.671 93.1245 127.5 93.1245H149.375V89.9995H124.375C123.859 89.999 123.352 89.8711 122.898 89.6271C122.443 89.383 122.057 89.0305 121.771 88.6008C121.486 88.1711 121.312 87.6777 121.264 87.1643C121.215 86.6509 121.295 86.1336 121.495 85.6583L118.617 84.4415C118.285 85.2281 118.118 86.0744 118.125 86.9281C118.133 87.7818 118.315 88.625 118.661 89.4056C119.007 90.1861 119.509 90.8876 120.136 91.4669C120.763 92.0461 121.503 92.4907 122.308 92.7734C121.711 93.6645 121.353 94.6944 121.269 95.764C121.185 96.8335 121.378 97.9067 121.829 98.8801C122.28 99.8534 122.975 100.694 123.845 101.321C124.716 101.949 125.733 102.341 126.799 102.461C126.241 103.41 125.944 104.49 125.938 105.591C125.932 106.692 126.216 107.775 126.763 108.73C127.31 109.686 128.1 110.48 129.052 111.032C130.005 111.584 131.086 111.875 132.187 111.875H160.768C164.203 111.875 171.575 111.057 182.555 105.625H211.875V102.5H182.187C181.945 102.499 181.706 102.556 181.489 102.665ZM180.717 70.8843C176.011 67.1201 170.831 63.99 165.311 61.5743C165.293 61.5665 165.274 61.5589 165.256 61.5519L154.464 57.3052C153.137 56.7331 151.645 56.6731 150.276 57.1368C148.908 57.6006 147.759 58.5551 147.053 59.8161C146.347 61.0771 146.134 62.555 146.454 63.9643C146.774 65.3736 147.605 66.6142 148.786 67.4466L153.975 71.2495H125.937C124.28 71.2495 122.69 71.908 121.518 73.0801C120.346 74.2522 119.687 75.8419 119.687 77.4995C119.687 79.1571 120.346 80.7468 121.518 81.9189C122.69 83.091 124.28 83.7495 125.937 83.7495H149.375V80.6245H125.937C125.109 80.6245 124.314 80.2953 123.728 79.7092C123.142 79.1232 122.812 78.3283 122.812 77.4995C122.812 76.6707 123.142 75.8759 123.728 75.2898C124.314 74.7038 125.109 74.3745 125.937 74.3745H158.75C159.079 74.3745 159.4 74.2704 159.667 74.077C159.934 73.8837 160.132 73.611 160.235 73.298C160.337 72.9849 160.338 72.6475 160.237 72.3339C160.137 72.0203 159.939 71.7466 159.674 71.5519L150.621 64.9169C150.612 64.9103 150.603 64.9036 150.593 64.8974C150.041 64.5108 149.652 63.9327 149.502 63.2754C149.352 62.618 149.451 61.9283 149.781 61.3403C150.111 60.7524 150.648 60.3081 151.288 60.0939C151.927 59.8797 152.623 59.9108 153.241 60.1812C153.259 60.189 153.277 60.1966 153.295 60.2036L164.085 64.4493C169.345 66.7538 174.28 69.7377 178.764 73.3247L179.648 74.0322C179.926 74.2539 180.27 74.3746 180.625 74.3745H211.875V71.2495H181.173L180.717 70.8843ZM175.061 93.1681C175.077 93.3894 175.085 93.6117 175.085 93.8349C175.085 95.5386 174.598 97.2069 173.683 98.6436C172.767 100.08 171.46 101.226 169.916 101.945C168.371 102.665 166.654 102.929 164.965 102.705C163.275 102.482 161.685 101.782 160.381 100.686C159.076 99.5901 158.111 98.1446 157.6 96.5194C157.089 94.8942 157.052 93.1568 157.494 91.5114C157.936 89.866 158.838 88.381 160.095 87.2309C161.352 86.0808 162.912 85.3135 164.59 85.0191C164.682 83.5627 165.17 82.1591 166.001 80.9594C166.832 79.7596 167.974 78.8091 169.305 78.2101C170.636 77.611 172.104 77.3862 173.553 77.5596C175.002 77.7331 176.377 78.2984 177.528 79.1946C178.68 80.0908 179.566 81.2841 180.09 82.646C180.614 84.008 180.757 85.4871 180.503 86.9242C180.249 88.3613 179.608 89.702 178.649 90.802C177.691 91.9021 176.45 92.7199 175.061 93.1675L175.061 93.1681ZM177.5 85.5251C177.5 84.2254 176.984 82.9789 176.065 82.0599C175.146 81.1408 173.899 80.6245 172.599 80.6245C171.3 80.6245 170.053 81.1408 169.134 82.0599C168.215 82.9789 167.699 84.2254 167.699 85.5251C167.699 86.2497 167.911 86.8702 167.38 87.4782C167.231 87.6472 167.048 87.7823 166.843 87.8744C166.638 87.9665 166.415 88.0135 166.19 88.012C166.167 88.012 166.143 88.012 166.12 88.0103C164.906 88.0144 163.724 88.3981 162.738 89.1078C161.753 89.8174 161.015 90.8174 160.626 91.9677C160.237 93.1181 160.218 94.3611 160.571 95.5229C160.924 96.6846 161.632 97.7068 162.595 98.4464C163.558 99.1861 164.728 99.606 165.941 99.6475C167.155 99.6889 168.351 99.3499 169.362 98.6777C170.373 98.0056 171.149 97.034 171.58 95.8991C172.012 94.7642 172.078 93.5227 171.769 92.3485C171.718 92.131 171.714 91.9054 171.756 91.6861C171.798 91.4668 171.885 91.2586 172.012 91.0749C172.139 90.8913 172.303 90.7362 172.493 90.6195C172.683 90.5029 172.896 90.4273 173.117 90.3976C174.322 90.2731 175.437 89.7056 176.247 88.8053C177.057 87.905 177.503 86.736 177.5 85.5251Z"/>
</mask>
<path d="M193.672 33.7495H211.875V36.8745H193.125C192.77 36.8745 192.427 36.754 192.15 36.5327L191.265 35.8257C190.549 35.2527 189.814 34.6896 189.08 34.1513L190.928 31.6318C191.697 32.1958 192.467 32.7857 193.216 33.3853L193.672 33.7495ZM194.807 64.9995H211.875V68.1245H195.935C195.955 68.2101 195.976 68.295 195.994 68.3808L192.93 68.997C192.475 66.7491 191.257 64.7279 189.481 63.2762C187.706 61.8245 185.483 61.0318 183.189 61.0327C183.046 61.0327 182.906 61.0382 182.765 61.0433C182.516 61.0523 182.27 61.0021 182.045 60.8967C181.82 60.7914 181.623 60.6339 181.472 60.4375C181.32 60.241 181.217 60.0112 181.171 59.767C181.126 59.5229 181.14 59.2714 181.211 59.0335C181.874 56.8175 181.744 54.4394 180.842 52.3093C179.939 50.1793 178.322 48.4309 176.269 47.3657C174.215 46.3005 171.855 45.9852 169.594 46.4743C167.333 46.9634 165.313 48.2262 163.884 50.0448C163.738 50.2304 163.551 50.3803 163.339 50.4835C163.126 50.5866 162.893 50.6401 162.657 50.6401C162.421 50.6401 162.187 50.5866 161.975 50.4835C161.762 50.3803 161.576 50.2304 161.43 50.0448C160.25 48.5443 158.664 47.4153 156.86 46.7928C155.056 46.1702 153.11 46.0806 151.257 46.5345C149.403 46.9885 147.719 47.9668 146.407 49.3525C145.095 50.7382 144.209 52.4725 143.857 54.3482C143.567 55.9074 143.65 57.5132 144.102 59.0337C144.173 59.2716 144.186 59.5231 144.141 59.7673C144.096 60.0115 143.993 60.2413 143.841 60.4378C143.689 60.6342 143.492 60.7916 143.267 60.8969C143.042 61.0023 142.795 61.0524 142.547 61.0433C142.406 61.0382 142.265 61.0327 142.122 61.0327C139.944 61.0321 137.826 61.7474 136.094 63.0686C134.362 64.3899 133.112 66.2437 132.537 68.3448L129.522 67.5216C130.213 64.9968 131.647 62.738 133.637 61.038C135.628 59.338 138.083 58.2754 140.685 57.9878C140.31 55.3002 140.782 52.5626 142.035 50.1554C143.287 47.7482 145.259 45.791 147.675 44.5558C150.091 43.3205 152.832 42.8686 155.517 43.2628C158.202 43.657 160.697 44.8778 162.656 46.7554C165.082 44.4182 168.323 43.1161 171.691 43.1245C172.144 43.1246 172.595 43.148 173.045 43.1947C172.379 42.213 171.792 41.1805 171.288 40.1068C170.797 39.0609 170.382 37.9807 170.047 36.8745H152.496C151.769 37.8447 150.826 38.6323 149.742 39.1747C148.658 39.7171 147.462 39.9995 146.25 39.9995C145.038 39.9995 143.842 39.7171 142.758 39.1747C141.674 38.6323 140.731 37.8447 140.004 36.8745C138.296 36.8745 136.381 36.8814 135.561 38.7136C135.337 39.2337 135.26 39.8053 135.339 40.366C135.419 40.9266 135.651 41.4547 136.01 41.8923C137.284 43.4005 139.594 43.3077 141.556 43.0859C141.558 44.1382 141.56 45.1905 141.562 46.2427C140.379 46.4366 139.172 46.2259 137.974 46.1962C136.776 46.1665 135.481 46.3622 134.62 47.196C133.58 48.2027 133.508 49.9982 134.361 51.1677C135.213 52.3372 136.834 52.8308 138.236 52.4712L138.231 55.5687C135.355 56.1466 132.187 54.4331 131.098 51.7081C130.009 48.9831 131.122 45.5583 133.604 43.9947C132.853 43.0773 132.377 41.9656 132.231 40.7886C132.086 39.6116 132.277 38.4174 132.783 37.3448C133.289 36.2722 134.089 35.3651 135.09 34.7287C136.091 34.0923 137.252 33.7528 138.437 33.7495H138.595C138.364 32.6146 138.388 31.4425 138.665 30.318C138.943 29.1935 139.467 28.1448 140.199 27.2478C140.932 26.3508 141.855 25.6279 142.902 25.1315C143.948 24.6351 145.092 24.3776 146.25 24.3776C147.408 24.3776 148.552 24.6351 149.598 25.1315C150.645 25.6279 151.568 26.3508 152.301 27.2478C153.033 28.1448 153.557 29.1935 153.835 30.318C154.112 31.4425 154.136 32.6146 153.905 33.7495H166L158.394 28.7824C158.38 28.7732 158.365 28.7638 158.352 28.754C157.708 28.3065 157.162 27.733 156.746 27.0683C156.331 26.4036 156.054 25.6615 155.934 24.8868C155.433 21.7433 158.026 18.2228 161.305 18.1183C162.672 18.0749 163.987 18.5882 165.258 19.0933L174.969 22.9534C176.43 19.4195 180.755 17.3589 184.419 18.4513C188.083 19.5437 190.575 23.6361 189.862 27.3927C189.148 31.1493 185.331 34.0447 181.522 33.7185C177.712 33.3923 174.442 29.8904 174.378 26.0673L163.779 21.8575C162.958 21.5312 162.089 21.1986 161.214 21.3212C158.938 21.6402 158.191 24.9175 160.126 26.1814L172.104 34.0034C172.278 34.1167 172.427 34.2634 172.543 34.4348C172.659 34.6063 172.74 34.7992 172.781 35.0023C173.091 36.3045 173.539 37.57 174.117 38.7777C176.29 43.4029 180.782 48.7265 189.845 47.8195L190.155 50.9288C189.353 51.0091 188.581 51.0472 187.839 51.0472C186.372 51.0531 184.909 50.8908 183.478 50.5636C184.58 52.8716 184.98 55.4524 184.628 57.9855C186.773 58.2192 188.826 58.9826 190.603 60.207C192.38 61.4313 193.825 63.0782 194.808 64.9995H194.807ZM177.5 25.937C177.5 26.8641 177.775 27.7704 178.29 28.5413C178.805 29.3121 179.537 29.9129 180.394 30.2677C181.25 30.6225 182.193 30.7153 183.102 30.5345C184.011 30.3536 184.846 29.9072 185.502 29.2516C186.158 28.596 186.604 27.7608 186.785 26.8515C186.966 25.9422 186.873 24.9997 186.518 24.1432C186.163 23.2867 185.563 22.5546 184.792 22.0395C184.021 21.5245 183.115 21.2495 182.187 21.2495C180.945 21.251 179.753 21.7453 178.875 22.6241C177.996 23.5028 177.501 24.6943 177.5 25.937ZM150.937 32.187C150.937 31.2599 150.663 30.3537 150.147 29.5828C149.632 28.8119 148.9 28.2111 148.044 27.8564C147.187 27.5016 146.245 27.4087 145.335 27.5896C144.426 27.7705 143.591 28.2169 142.935 28.8725C142.28 29.528 141.833 30.3633 141.653 31.2726C141.472 32.1818 141.565 33.1243 141.919 33.9809C142.274 34.8374 142.875 35.5695 143.646 36.0846C144.417 36.5996 145.323 36.8745 146.25 36.8745C147.493 36.8731 148.684 36.3788 149.563 35.5C150.442 34.6212 150.936 33.4298 150.937 32.187ZM171.691 52.4995C172.354 52.4992 173.004 52.6784 173.573 53.0179L175.177 50.3359C173.756 49.4878 172.074 49.1867 170.447 49.489C168.821 49.7913 167.36 50.6762 166.338 51.9781L165.335 53.2513L167.79 55.1849L168.793 53.9116C169.137 53.4713 169.576 53.1153 170.079 52.8706C170.581 52.6259 171.132 52.499 171.691 52.4995ZM181.489 102.665C177.83 104.494 168.486 108.75 160.768 108.75H132.187C131.359 108.75 130.564 108.42 129.978 107.834C129.392 107.248 129.062 106.453 129.062 105.625C129.062 104.796 129.392 104.001 129.978 103.415C130.564 102.829 131.359 102.5 132.187 102.5H149.375V99.3745H127.5C126.671 99.3745 125.876 99.0453 125.29 98.4592C124.704 97.8732 124.375 97.0783 124.375 96.2495C124.375 95.4207 124.704 94.6259 125.29 94.0398C125.876 93.4538 126.671 93.1245 127.5 93.1245H149.375V89.9995H124.375C123.859 89.999 123.352 89.8711 122.898 89.6271C122.443 89.383 122.057 89.0305 121.771 88.6008C121.486 88.1711 121.312 87.6777 121.264 87.1643C121.215 86.6509 121.295 86.1336 121.495 85.6583L118.617 84.4415C118.285 85.2281 118.118 86.0744 118.125 86.9281C118.133 87.7818 118.315 88.625 118.661 89.4056C119.007 90.1861 119.509 90.8876 120.136 91.4669C120.763 92.0461 121.503 92.4907 122.308 92.7734C121.711 93.6645 121.353 94.6944 121.269 95.764C121.185 96.8335 121.378 97.9067 121.829 98.8801C122.28 99.8534 122.975 100.694 123.845 101.321C124.716 101.949 125.733 102.341 126.799 102.461C126.241 103.41 125.944 104.49 125.938 105.591C125.932 106.692 126.216 107.775 126.763 108.73C127.31 109.686 128.1 110.48 129.052 111.032C130.005 111.584 131.086 111.875 132.187 111.875H160.768C164.203 111.875 171.575 111.057 182.555 105.625H211.875V102.5H182.187C181.945 102.499 181.706 102.556 181.489 102.665ZM180.717 70.8843C176.011 67.1201 170.831 63.99 165.311 61.5743C165.293 61.5665 165.274 61.5589 165.256 61.5519L154.464 57.3052C153.137 56.7331 151.645 56.6731 150.276 57.1368C148.908 57.6006 147.759 58.5551 147.053 59.8161C146.347 61.0771 146.134 62.555 146.454 63.9643C146.774 65.3736 147.605 66.6142 148.786 67.4466L153.975 71.2495H125.937C124.28 71.2495 122.69 71.908 121.518 73.0801C120.346 74.2522 119.687 75.8419 119.687 77.4995C119.687 79.1571 120.346 80.7468 121.518 81.9189C122.69 83.091 124.28 83.7495 125.937 83.7495H149.375V80.6245H125.937C125.109 80.6245 124.314 80.2953 123.728 79.7092C123.142 79.1232 122.812 78.3283 122.812 77.4995C122.812 76.6707 123.142 75.8759 123.728 75.2898C124.314 74.7038 125.109 74.3745 125.937 74.3745H158.75C159.079 74.3745 159.4 74.2704 159.667 74.077C159.934 73.8837 160.132 73.611 160.235 73.298C160.337 72.9849 160.338 72.6475 160.237 72.3339C160.137 72.0203 159.939 71.7466 159.674 71.5519L150.621 64.9169C150.612 64.9103 150.603 64.9036 150.593 64.8974C150.041 64.5108 149.652 63.9327 149.502 63.2754C149.352 62.618 149.451 61.9283 149.781 61.3403C150.111 60.7524 150.648 60.3081 151.288 60.0939C151.927 59.8797 152.623 59.9108 153.241 60.1812C153.259 60.189 153.277 60.1966 153.295 60.2036L164.085 64.4493C169.345 66.7538 174.28 69.7377 178.764 73.3247L179.648 74.0322C179.926 74.2539 180.27 74.3746 180.625 74.3745H211.875V71.2495H181.173L180.717 70.8843ZM175.061 93.1681C175.077 93.3894 175.085 93.6117 175.085 93.8349C175.085 95.5386 174.598 97.2069 173.683 98.6436C172.767 100.08 171.46 101.226 169.916 101.945C168.371 102.665 166.654 102.929 164.965 102.705C163.275 102.482 161.685 101.782 160.381 100.686C159.076 99.5901 158.111 98.1446 157.6 96.5194C157.089 94.8942 157.052 93.1568 157.494 91.5114C157.936 89.866 158.838 88.381 160.095 87.2309C161.352 86.0808 162.912 85.3135 164.59 85.0191C164.682 83.5627 165.17 82.1591 166.001 80.9594C166.832 79.7596 167.974 78.8091 169.305 78.2101C170.636 77.611 172.104 77.3862 173.553 77.5596C175.002 77.7331 176.377 78.2984 177.528 79.1946C178.68 80.0908 179.566 81.2841 180.09 82.646C180.614 84.008 180.757 85.4871 180.503 86.9242C180.249 88.3613 179.608 89.702 178.649 90.802C177.691 91.9021 176.45 92.7199 175.061 93.1675L175.061 93.1681ZM177.5 85.5251C177.5 84.2254 176.984 82.9789 176.065 82.0599C175.146 81.1408 173.899 80.6245 172.599 80.6245C171.3 80.6245 170.053 81.1408 169.134 82.0599C168.215 82.9789 167.699 84.2254 167.699 85.5251C167.699 86.2497 167.911 86.8702 167.38 87.4782C167.231 87.6472 167.048 87.7823 166.843 87.8744C166.638 87.9665 166.415 88.0135 166.19 88.012C166.167 88.012 166.143 88.012 166.12 88.0103C164.906 88.0144 163.724 88.3981 162.738 89.1078C161.753 89.8174 161.015 90.8174 160.626 91.9677C160.237 93.1181 160.218 94.3611 160.571 95.5229C160.924 96.6846 161.632 97.7068 162.595 98.4464C163.558 99.1861 164.728 99.606 165.941 99.6475C167.155 99.6889 168.351 99.3499 169.362 98.6777C170.373 98.0056 171.149 97.034 171.58 95.8991C172.012 94.7642 172.078 93.5227 171.769 92.3485C171.718 92.131 171.714 91.9054 171.756 91.6861C171.798 91.4668 171.885 91.2586 172.012 91.0749C172.139 90.8913 172.303 90.7362 172.493 90.6195C172.683 90.5029 172.896 90.4273 173.117 90.3976C174.322 90.2731 175.437 89.7056 176.247 88.8053C177.057 87.905 177.503 86.736 177.5 85.5251Z" fill="#45B3F1"/>
<path d="M193.672 33.7495H211.875V36.8745H193.125C192.77 36.8745 192.427 36.754 192.15 36.5327L191.265 35.8257C190.549 35.2527 189.814 34.6896 189.08 34.1513L190.928 31.6318C191.697 32.1958 192.467 32.7857 193.216 33.3853L193.672 33.7495ZM194.807 64.9995H211.875V68.1245H195.935C195.955 68.2101 195.976 68.295 195.994 68.3808L192.93 68.997C192.475 66.7491 191.257 64.7279 189.481 63.2762C187.706 61.8245 185.483 61.0318 183.189 61.0327C183.046 61.0327 182.906 61.0382 182.765 61.0433C182.516 61.0523 182.27 61.0021 182.045 60.8967C181.82 60.7914 181.623 60.6339 181.472 60.4375C181.32 60.241 181.217 60.0112 181.171 59.767C181.126 59.5229 181.14 59.2714 181.211 59.0335C181.874 56.8175 181.744 54.4394 180.842 52.3093C179.939 50.1793 178.322 48.4309 176.269 47.3657C174.215 46.3005 171.855 45.9852 169.594 46.4743C167.333 46.9634 165.313 48.2262 163.884 50.0448C163.738 50.2304 163.551 50.3803 163.339 50.4835C163.126 50.5866 162.893 50.6401 162.657 50.6401C162.421 50.6401 162.187 50.5866 161.975 50.4835C161.762 50.3803 161.576 50.2304 161.43 50.0448C160.25 48.5443 158.664 47.4153 156.86 46.7928C155.056 46.1702 153.11 46.0806 151.257 46.5345C149.403 46.9885 147.719 47.9668 146.407 49.3525C145.095 50.7382 144.209 52.4725 143.857 54.3482C143.567 55.9074 143.65 57.5132 144.102 59.0337C144.173 59.2716 144.186 59.5231 144.141 59.7673C144.096 60.0115 143.993 60.2413 143.841 60.4378C143.689 60.6342 143.492 60.7916 143.267 60.8969C143.042 61.0023 142.795 61.0524 142.547 61.0433C142.406 61.0382 142.265 61.0327 142.122 61.0327C139.944 61.0321 137.826 61.7474 136.094 63.0686C134.362 64.3899 133.112 66.2437 132.537 68.3448L129.522 67.5216C130.213 64.9968 131.647 62.738 133.637 61.038C135.628 59.338 138.083 58.2754 140.685 57.9878C140.31 55.3002 140.782 52.5626 142.035 50.1554C143.287 47.7482 145.259 45.791 147.675 44.5558C150.091 43.3205 152.832 42.8686 155.517 43.2628C158.202 43.657 160.697 44.8778 162.656 46.7554C165.082 44.4182 168.323 43.1161 171.691 43.1245C172.144 43.1246 172.595 43.148 173.045 43.1947C172.379 42.213 171.792 41.1805 171.288 40.1068C170.797 39.0609 170.382 37.9807 170.047 36.8745H152.496C151.769 37.8447 150.826 38.6323 149.742 39.1747C148.658 39.7171 147.462 39.9995 146.25 39.9995C145.038 39.9995 143.842 39.7171 142.758 39.1747C141.674 38.6323 140.731 37.8447 140.004 36.8745C138.296 36.8745 136.381 36.8814 135.561 38.7136C135.337 39.2337 135.26 39.8053 135.339 40.366C135.419 40.9266 135.651 41.4547 136.01 41.8923C137.284 43.4005 139.594 43.3077 141.556 43.0859C141.558 44.1382 141.56 45.1905 141.562 46.2427C140.379 46.4366 139.172 46.2259 137.974 46.1962C136.776 46.1665 135.481 46.3622 134.62 47.196C133.58 48.2027 133.508 49.9982 134.361 51.1677C135.213 52.3372 136.834 52.8308 138.236 52.4712L138.231 55.5687C135.355 56.1466 132.187 54.4331 131.098 51.7081C130.009 48.9831 131.122 45.5583 133.604 43.9947C132.853 43.0773 132.377 41.9656 132.231 40.7886C132.086 39.6116 132.277 38.4174 132.783 37.3448C133.289 36.2722 134.089 35.3651 135.09 34.7287C136.091 34.0923 137.252 33.7528 138.437 33.7495H138.595C138.364 32.6146 138.388 31.4425 138.665 30.318C138.943 29.1935 139.467 28.1448 140.199 27.2478C140.932 26.3508 141.855 25.6279 142.902 25.1315C143.948 24.6351 145.092 24.3776 146.25 24.3776C147.408 24.3776 148.552 24.6351 149.598 25.1315C150.645 25.6279 151.568 26.3508 152.301 27.2478C153.033 28.1448 153.557 29.1935 153.835 30.318C154.112 31.4425 154.136 32.6146 153.905 33.7495H166L158.394 28.7824C158.38 28.7732 158.365 28.7638 158.352 28.754C157.708 28.3065 157.162 27.733 156.746 27.0683C156.331 26.4036 156.054 25.6615 155.934 24.8868C155.433 21.7433 158.026 18.2228 161.305 18.1183C162.672 18.0749 163.987 18.5882 165.258 19.0933L174.969 22.9534C176.43 19.4195 180.755 17.3589 184.419 18.4513C188.083 19.5437 190.575 23.6361 189.862 27.3927C189.148 31.1493 185.331 34.0447 181.522 33.7185C177.712 33.3923 174.442 29.8904 174.378 26.0673L163.779 21.8575C162.958 21.5312 162.089 21.1986 161.214 21.3212C158.938 21.6402 158.191 24.9175 160.126 26.1814L172.104 34.0034C172.278 34.1167 172.427 34.2634 172.543 34.4348C172.659 34.6063 172.74 34.7992 172.781 35.0023C173.091 36.3045 173.539 37.57 174.117 38.7777C176.29 43.4029 180.782 48.7265 189.845 47.8195L190.155 50.9288C189.353 51.0091 188.581 51.0472 187.839 51.0472C186.372 51.0531 184.909 50.8908 183.478 50.5636C184.58 52.8716 184.98 55.4524 184.628 57.9855C186.773 58.2192 188.826 58.9826 190.603 60.207C192.38 61.4313 193.825 63.0782 194.808 64.9995H194.807ZM177.5 25.937C177.5 26.8641 177.775 27.7704 178.29 28.5413C178.805 29.3121 179.537 29.9129 180.394 30.2677C181.25 30.6225 182.193 30.7153 183.102 30.5345C184.011 30.3536 184.846 29.9072 185.502 29.2516C186.158 28.596 186.604 27.7608 186.785 26.8515C186.966 25.9422 186.873 24.9997 186.518 24.1432C186.163 23.2867 185.563 22.5546 184.792 22.0395C184.021 21.5245 183.115 21.2495 182.187 21.2495C180.945 21.251 179.753 21.7453 178.875 22.6241C177.996 23.5028 177.501 24.6943 177.5 25.937ZM150.937 32.187C150.937 31.2599 150.663 30.3537 150.147 29.5828C149.632 28.8119 148.9 28.2111 148.044 27.8564C147.187 27.5016 146.245 27.4087 145.335 27.5896C144.426 27.7705 143.591 28.2169 142.935 28.8725C142.28 29.528 141.833 30.3633 141.653 31.2726C141.472 32.1818 141.565 33.1243 141.919 33.9809C142.274 34.8374 142.875 35.5695 143.646 36.0846C144.417 36.5996 145.323 36.8745 146.25 36.8745C147.493 36.8731 148.684 36.3788 149.563 35.5C150.442 34.6212 150.936 33.4298 150.937 32.187ZM171.691 52.4995C172.354 52.4992 173.004 52.6784 173.573 53.0179L175.177 50.3359C173.756 49.4878 172.074 49.1867 170.447 49.489C168.821 49.7913 167.36 50.6762 166.338 51.9781L165.335 53.2513L167.79 55.1849L168.793 53.9116C169.137 53.4713 169.576 53.1153 170.079 52.8706C170.581 52.6259 171.132 52.499 171.691 52.4995ZM181.489 102.665C177.83 104.494 168.486 108.75 160.768 108.75H132.187C131.359 108.75 130.564 108.42 129.978 107.834C129.392 107.248 129.062 106.453 129.062 105.625C129.062 104.796 129.392 104.001 129.978 103.415C130.564 102.829 131.359 102.5 132.187 102.5H149.375V99.3745H127.5C126.671 99.3745 125.876 99.0453 125.29 98.4592C124.704 97.8732 124.375 97.0783 124.375 96.2495C124.375 95.4207 124.704 94.6259 125.29 94.0398C125.876 93.4538 126.671 93.1245 127.5 93.1245H149.375V89.9995H124.375C123.859 89.999 123.352 89.8711 122.898 89.6271C122.443 89.383 122.057 89.0305 121.771 88.6008C121.486 88.1711 121.312 87.6777 121.264 87.1643C121.215 86.6509 121.295 86.1336 121.495 85.6583L118.617 84.4415C118.285 85.2281 118.118 86.0744 118.125 86.9281C118.133 87.7818 118.315 88.625 118.661 89.4056C119.007 90.1861 119.509 90.8876 120.136 91.4669C120.763 92.0461 121.503 92.4907 122.308 92.7734C121.711 93.6645 121.353 94.6944 121.269 95.764C121.185 96.8335 121.378 97.9067 121.829 98.8801C122.28 99.8534 122.975 100.694 123.845 101.321C124.716 101.949 125.733 102.341 126.799 102.461C126.241 103.41 125.944 104.49 125.938 105.591C125.932 106.692 126.216 107.775 126.763 108.73C127.31 109.686 128.1 110.48 129.052 111.032C130.005 111.584 131.086 111.875 132.187 111.875H160.768C164.203 111.875 171.575 111.057 182.555 105.625H211.875V102.5H182.187C181.945 102.499 181.706 102.556 181.489 102.665ZM180.717 70.8843C176.011 67.1201 170.831 63.99 165.311 61.5743C165.293 61.5665 165.274 61.5589 165.256 61.5519L154.464 57.3052C153.137 56.7331 151.645 56.6731 150.276 57.1368C148.908 57.6006 147.759 58.5551 147.053 59.8161C146.347 61.0771 146.134 62.555 146.454 63.9643C146.774 65.3736 147.605 66.6142 148.786 67.4466L153.975 71.2495H125.937C124.28 71.2495 122.69 71.908 121.518 73.0801C120.346 74.2522 119.687 75.8419 119.687 77.4995C119.687 79.1571 120.346 80.7468 121.518 81.9189C122.69 83.091 124.28 83.7495 125.937 83.7495H149.375V80.6245H125.937C125.109 80.6245 124.314 80.2953 123.728 79.7092C123.142 79.1232 122.812 78.3283 122.812 77.4995C122.812 76.6707 123.142 75.8759 123.728 75.2898C124.314 74.7038 125.109 74.3745 125.937 74.3745H158.75C159.079 74.3745 159.4 74.2704 159.667 74.077C159.934 73.8837 160.132 73.611 160.235 73.298C160.337 72.9849 160.338 72.6475 160.237 72.3339C160.137 72.0203 159.939 71.7466 159.674 71.5519L150.621 64.9169C150.612 64.9103 150.603 64.9036 150.593 64.8974C150.041 64.5108 149.652 63.9327 149.502 63.2754C149.352 62.618 149.451 61.9283 149.781 61.3403C150.111 60.7524 150.648 60.3081 151.288 60.0939C151.927 59.8797 152.623 59.9108 153.241 60.1812C153.259 60.189 153.277 60.1966 153.295 60.2036L164.085 64.4493C169.345 66.7538 174.28 69.7377 178.764 73.3247L179.648 74.0322C179.926 74.2539 180.27 74.3746 180.625 74.3745H211.875V71.2495H181.173L180.717 70.8843ZM175.061 93.1681C175.077 93.3894 175.085 93.6117 175.085 93.8349C175.085 95.5386 174.598 97.2069 173.683 98.6436C172.767 100.08 171.46 101.226 169.916 101.945C168.371 102.665 166.654 102.929 164.965 102.705C163.275 102.482 161.685 101.782 160.381 100.686C159.076 99.5901 158.111 98.1446 157.6 96.5194C157.089 94.8942 157.052 93.1568 157.494 91.5114C157.936 89.866 158.838 88.381 160.095 87.2309C161.352 86.0808 162.912 85.3135 164.59 85.0191C164.682 83.5627 165.17 82.1591 166.001 80.9594C166.832 79.7596 167.974 78.8091 169.305 78.2101C170.636 77.611 172.104 77.3862 173.553 77.5596C175.002 77.7331 176.377 78.2984 177.528 79.1946C178.68 80.0908 179.566 81.2841 180.09 82.646C180.614 84.008 180.757 85.4871 180.503 86.9242C180.249 88.3613 179.608 89.702 178.649 90.802C177.691 91.9021 176.45 92.7199 175.061 93.1675L175.061 93.1681ZM177.5 85.5251C177.5 84.2254 176.984 82.9789 176.065 82.0599C175.146 81.1408 173.899 80.6245 172.599 80.6245C171.3 80.6245 170.053 81.1408 169.134 82.0599C168.215 82.9789 167.699 84.2254 167.699 85.5251C167.699 86.2497 167.911 86.8702 167.38 87.4782C167.231 87.6472 167.048 87.7823 166.843 87.8744C166.638 87.9665 166.415 88.0135 166.19 88.012C166.167 88.012 166.143 88.012 166.12 88.0103C164.906 88.0144 163.724 88.3981 162.738 89.1078C161.753 89.8174 161.015 90.8174 160.626 91.9677C160.237 93.1181 160.218 94.3611 160.571 95.5229C160.924 96.6846 161.632 97.7068 162.595 98.4464C163.558 99.1861 164.728 99.606 165.941 99.6475C167.155 99.6889 168.351 99.3499 169.362 98.6777C170.373 98.0056 171.149 97.034 171.58 95.8991C172.012 94.7642 172.078 93.5227 171.769 92.3485C171.718 92.131 171.714 91.9054 171.756 91.6861C171.798 91.4668 171.885 91.2586 172.012 91.0749C172.139 90.8913 172.303 90.7362 172.493 90.6195C172.683 90.5029 172.896 90.4273 173.117 90.3976C174.322 90.2731 175.437 89.7056 176.247 88.8053C177.057 87.905 177.503 86.736 177.5 85.5251Z" stroke="#45B3F1" mask="url(#path-2-outside-1)"/>
</svg>
