<svg width="330" height="130" viewBox="0 0 330 130" fill="none" xmlns="http://www.w3.org/2000/svg">
<mask id="mask0" mask-type="alpha" maskUnits="userSpaceOnUse" x="0" y="0" width="330" height="130">
<rect width="330" height="130" fill="#C4C4C4"/>
</mask>
<g mask="url(#mask0)">
<path d="M153.868 38.4761L153.868 38.476C152.919 37.5272 152.919 35.9889 153.868 35.04L161.21 27.6974L161.564 27.3438L161.21 26.9903L153.868 19.6479C153.868 19.6479 153.868 19.6479 153.868 19.6479C152.919 18.699 152.919 17.1607 153.868 16.2119C154.817 15.263 156.355 15.263 157.304 16.2118L157.304 16.2119L164.647 23.5542L165 23.9078L165.354 23.5542L172.696 16.2117C172.696 16.2117 172.696 16.2117 172.696 16.2117C173.645 15.2627 175.184 15.2629 176.132 16.2116L176.132 16.2117C177.081 17.1606 177.081 18.699 176.132 19.6477L176.132 19.6477L168.79 26.9903L168.436 27.3438L168.79 27.6974L176.132 35.04C177.081 35.9889 177.081 37.5272 176.132 38.476L176.132 38.4761C175.184 39.4248 173.645 39.4251 172.696 38.4761L172.696 38.476L165.354 31.1335L165 30.7799L164.647 31.1335L157.304 38.476C156.355 39.4248 154.817 39.4252 153.868 38.4761Z" fill="#45B3F1" stroke="white"/>
<path d="M204.791 78.0366L204.319 78.5127L204.91 78.8292C210.614 81.886 214.5 87.9041 214.5 94.8117V112.071C214.5 113.413 213.412 114.501 212.07 114.501H117.93C116.588 114.501 115.5 113.413 115.5 112.071V94.8117C115.5 87.9041 119.386 81.886 125.091 78.8292L125.681 78.5127L125.21 78.0366C123.088 75.8944 121.776 72.9517 121.776 69.7076C121.776 63.1775 127.09 57.8639 133.62 57.8639C134.745 57.8639 135.832 58.0249 136.864 58.3195L137.456 58.4884L137.5 57.8743C137.938 51.7397 143.067 46.8809 149.31 46.8809C155.554 46.8809 160.682 51.7397 161.12 57.8742L161.164 58.4884L161.756 58.3195C162.788 58.0249 163.876 57.8639 165 57.8639C166.125 57.8639 167.212 58.0249 168.245 58.3195L168.837 58.4884L168.881 57.8743C169.318 51.7397 174.447 46.8809 180.69 46.8809C186.934 46.8809 192.063 51.7397 192.5 57.8742L192.544 58.4884L193.136 58.3195C194.168 58.0249 195.256 57.8639 196.38 57.8639C202.911 57.8639 208.224 63.1773 208.224 69.7076C208.224 72.9517 206.912 75.8944 204.791 78.0366ZM146.38 109.641H146.88V109.141V94.8117C146.88 87.4996 140.932 81.5514 133.62 81.5514C126.308 81.5514 120.359 87.4994 120.359 94.8117V109.141V109.641H120.859H146.38ZM148.889 85.0654L149.31 85.7227L149.731 85.0654C151.403 82.4544 153.727 80.2993 156.47 78.8292L157.061 78.5127L156.589 78.0366C154.655 76.0836 153.397 73.4637 153.19 70.558L153.146 69.9437L152.554 70.1128C151.522 70.4075 150.434 70.5684 149.31 70.5684C148.185 70.5684 147.098 70.4073 146.065 70.1127L145.473 69.9438L145.429 70.558C145.222 73.4637 143.965 76.0834 142.03 78.0366L141.559 78.5127L142.149 78.8292C144.892 80.2993 147.216 82.4546 148.889 85.0654ZM177.76 109.641H178.26V109.141V94.8117C178.26 87.4996 172.312 81.5514 165 81.5514C157.688 81.5514 151.74 87.4994 151.74 94.8117V109.141V109.641H152.24H177.76ZM180.269 85.0654L180.69 85.7227L181.111 85.0654C182.784 82.4544 185.107 80.2993 187.851 78.8294L188.441 78.5129L187.97 78.0368C186.035 76.0838 184.778 73.4639 184.57 70.5582L184.527 69.944L183.934 70.1129C182.902 70.4075 181.815 70.5686 180.69 70.5686C179.566 70.5686 178.478 70.4075 177.446 70.1129L176.854 69.944L176.81 70.5582C176.602 73.4639 175.345 76.0838 173.41 78.0368L172.939 78.5129L173.529 78.8294C176.273 80.2993 178.597 82.4546 180.269 85.0654ZM209.141 109.641H209.641V109.141V94.8117C209.641 87.4996 203.692 81.5514 196.38 81.5514C189.068 81.5514 183.12 87.4994 183.12 94.8117V109.141V109.641H183.62H209.141ZM203.364 69.7076C203.364 65.8561 200.232 62.7232 196.38 62.7232C192.529 62.7232 189.396 65.8559 189.396 69.7076C189.396 73.5591 192.529 76.692 196.38 76.692C200.232 76.692 203.364 73.5591 203.364 69.7076ZM187.674 58.7246C187.674 54.8731 184.542 51.7402 180.69 51.7402C176.838 51.7402 173.706 54.8731 173.706 58.7246C173.706 62.5761 176.838 65.709 180.69 65.709C184.542 65.709 187.674 62.5761 187.674 58.7246ZM171.984 69.7076C171.984 65.8561 168.852 62.7232 165 62.7232C161.148 62.7232 158.016 65.8559 158.016 69.7076C158.016 73.5592 161.148 76.692 165 76.692C168.852 76.692 171.984 73.5592 171.984 69.7076ZM156.294 58.7246C156.294 54.8731 153.162 51.7402 149.31 51.7402C145.458 51.7402 142.326 54.8731 142.326 58.7246C142.326 62.5761 145.458 65.709 149.31 65.709C153.161 65.709 156.294 62.5761 156.294 58.7246ZM140.604 69.7076C140.604 65.8561 137.471 62.7232 133.62 62.7232C129.768 62.7232 126.636 65.8559 126.636 69.7076C126.636 73.5591 129.768 76.692 133.62 76.692C137.471 76.692 140.604 73.5592 140.604 69.7076Z" fill="#45B3F1" stroke="white"/>
</g>
</svg>
