<svg width="330" height="130" viewBox="0 0 330 130" fill="none" xmlns="http://www.w3.org/2000/svg">
<mask id="mask0" mask-type="alpha" maskUnits="userSpaceOnUse" x="0" y="0" width="330" height="130">
<rect width="330" height="130" fill="#C4C4C4"/>
</mask>
<g mask="url(#mask0)">
</g>
<path d="M165 15C137.41 15 115 37.4096 115 65C115 92.5904 137.41 115 165 115C192.59 115 215 92.5904 215 65C215 37.4096 192.59 15 165 15ZM165 110.663C139.819 110.663 119.337 90.1807 119.337 65C119.337 39.8193 139.819 19.3373 165 19.3373C190.181 19.3373 210.663 39.8193 210.663 65C210.663 90.1807 190.181 110.663 165 110.663Z" fill="#45B3F1"/>
<path d="M191.025 54.156H175.845V38.9753C175.845 37.7705 174.881 36.8066 173.676 36.8066H156.327C155.122 36.8066 154.158 37.7705 154.158 38.9753V54.156H138.977C137.772 54.156 136.809 55.1199 136.809 56.3247V73.6741C136.809 74.8789 137.772 75.8428 138.977 75.8428H154.158V91.0235C154.158 92.2283 155.122 93.1922 156.327 93.1922H173.676C174.881 93.1922 175.845 92.2283 175.845 91.0235V75.8428H191.025C192.23 75.8428 193.194 74.8789 193.194 73.6741V56.3247C193.074 55.1199 192.11 54.156 191.025 54.156ZM188.977 71.5054H188.857H173.676C172.471 71.5054 171.507 72.4693 171.507 73.6741V88.8548H158.495V73.6741C158.495 72.4693 157.531 71.5054 156.327 71.5054H141.146V58.4934H156.327C157.531 58.4934 158.495 57.5295 158.495 56.3247V41.144H171.628V56.3247C171.628 57.5295 172.592 58.4934 173.797 58.4934H188.977V71.5054Z" fill="#45B3F1"/>
</svg>
