<svg width="330" height="130" viewBox="0 0 330 130" fill="none" xmlns="http://www.w3.org/2000/svg">
<mask id="mask0" mask-type="alpha" maskUnits="userSpaceOnUse" x="0" y="0" width="330" height="130">
<rect width="330" height="130" fill="#C4C4C4"/>
</mask>
<g mask="url(#mask0)">
</g>
<g clip-path="url(#clip0)">
<path d="M168.333 26.667H138.753L119.915 16.5237C118.882 15.9669 117.633 15.9942 116.625 16.5955C115.617 17.1968 115 18.2836 115 19.457V110.544C115.001 111.717 115.618 112.803 116.625 113.404C117.632 114.005 118.881 114.033 119.913 113.477L126.372 110H203.628L210.085 113.477C211.118 114.034 212.367 114.006 213.375 113.405C214.382 112.804 215 111.717 215 110.544V19.457C214.999 18.2841 214.382 17.1979 213.375 16.5967C212.368 15.9954 211.119 15.9677 210.087 16.5237L191.247 26.667H168.333ZM205 63.3337H193.333V50.2853L205 46.902V63.3337ZM205 83.0987L193.333 79.7153V66.667H205V83.0987ZM193.333 83.1853L205 86.5687V99.5287L193.333 93.9503V83.1853ZM205 43.432L193.333 46.8153V36.0503L205 30.472V43.432ZM190 35.0003V100H170V98.3337C170 95.5722 167.761 93.3337 165 93.3337C162.239 93.3337 160 95.5722 160 98.3337V100H140V30.0003H160V31.667C160 34.4284 162.239 36.667 165 36.667C167.761 36.667 170 34.4284 170 31.667V30.0003H190V35.0003ZM166.667 100H163.333V98.3337C163.333 97.4132 164.08 96.667 165 96.667C165.92 96.667 166.667 97.4132 166.667 98.3337V100ZM125 66.667H136.667V79.7153L125 83.0987V66.667ZM125 46.902L136.667 50.2853V63.3337H125V46.902ZM136.667 46.8153L125 43.432V30.472L136.667 36.0503V46.8153ZM125 86.5687L136.667 83.1853V93.9503L125 99.5287V86.5687ZM166.667 30.0003V31.667C166.667 32.5875 165.92 33.3337 165 33.3337C164.08 33.3337 163.333 32.5875 163.333 31.667V30.0003H166.667ZM118.333 110.544V19.457L136.667 29.3337V32.3603L124.052 26.3237C123.534 26.0765 122.926 26.1127 122.442 26.4194C121.957 26.7261 121.665 27.2603 121.667 27.8337V102.167C121.668 102.739 121.962 103.27 122.446 103.574C122.93 103.878 123.536 103.913 124.052 103.667L136.667 97.6453V100.667L118.333 110.544ZM132.563 106.667L138.753 103.334H191.253L197.443 106.667H132.563ZM211.667 19.457V110.544L193.333 100.667V97.6453L205.948 103.677C206.466 103.924 207.074 103.888 207.558 103.581C208.043 103.275 208.335 102.74 208.333 102.167V27.8337C208.332 27.2621 208.038 26.7311 207.554 26.4267C207.07 26.1224 206.464 26.0873 205.948 26.3337L193.333 32.3553V29.3337L211.667 19.457Z" fill="#45B3F1"/>
<path d="M160.002 43.3341C160.002 42.4137 159.255 41.6675 158.335 41.6675C157.415 41.6675 156.668 42.4137 156.668 43.3341C156.668 60.6008 156.668 75.5125 144.417 80.1058C143.661 80.3877 143.215 81.1707 143.359 81.9647C143.503 82.7586 144.195 83.3355 145.002 83.3342C145.201 83.3335 145.399 83.2979 145.587 83.2292C160.002 77.8225 160.002 61.0708 160.002 43.3341Z" fill="#45B3F1"/>
<path d="M170 43.3337C170 61.0703 170 77.822 184.415 83.2287C184.602 83.2974 184.8 83.333 185 83.3337C185.807 83.335 186.499 82.7581 186.643 81.9642C186.787 81.1702 186.341 80.3872 185.585 80.1053C173.333 75.512 173.333 60.6003 173.333 43.3337C173.333 42.4132 172.587 41.667 171.667 41.667C170.746 41.667 170 42.4132 170 43.3337Z" fill="#45B3F1"/>
<path d="M166.665 43.3341C166.665 42.4137 165.919 41.6675 164.999 41.6675C164.078 41.6675 163.332 42.4137 163.332 43.3341V71.6675C163.332 72.588 164.078 73.3341 164.999 73.3341C165.919 73.3341 166.665 72.588 166.665 71.6675V43.3341Z" fill="#45B3F1"/>
</g>
<defs>
<clipPath id="clip0">
<rect width="100" height="100" fill="white" transform="translate(115 15)"/>
</clipPath>
</defs>
</svg>
