<svg width="97" height="97" viewBox="0 0 97 97" fill="none" xmlns="http://www.w3.org/2000/svg">
<g filter="url(#filter0_d)">
<circle cx="48.5" cy="44.5" r="33.5" transform="rotate(180 48.5 44.5)" fill="white"/>
</g>
<path d="M54.067 33C54.3159 33 54.5335 33.0891 54.7201 33.2674C55.0933 33.624 55.0933 34.1886 54.7201 34.5155L44.2393 44.5L54.7201 54.4845C55.0933 54.8411 55.0933 55.4057 54.7201 55.7326C54.3469 56.0891 53.756 56.0891 53.4139 55.7326L42.2799 45.124C42.0933 44.9457 42 44.7377 42 44.5C42 44.2623 42.0933 44.0246 42.2799 43.876L53.4139 33.2674C53.6005 33.0891 53.8182 33 54.067 33Z" fill="#20384E"/>
<defs>
<filter id="filter0_d" x="0" y="0" width="97" height="97" filterUnits="userSpaceOnUse" color-interpolation-filters="sRGB">
<feFlood flood-opacity="0" result="BackgroundImageFix"/>
<feColorMatrix in="SourceAlpha" type="matrix" values="0 0 0 0 0 0 0 0 0 0 0 0 0 0 0 0 0 0 127 0"/>
<feOffset dy="4"/>
<feGaussianBlur stdDeviation="7.5"/>
<feColorMatrix type="matrix" values="0 0 0 0 0 0 0 0 0 0 0 0 0 0 0 0 0 0 0.05 0"/>
<feBlend mode="normal" in2="BackgroundImageFix" result="effect1_dropShadow"/>
<feBlend mode="normal" in="SourceGraphic" in2="effect1_dropShadow" result="shape"/>
</filter>
</defs>
</svg>
