<svg width="92" height="92" viewBox="0 0 92 92" fill="none" xmlns="http://www.w3.org/2000/svg">
<path d="M89.3689 12.577C88.0155 11.2213 85.8196 11.2189 84.4662 12.5712L42.8697 54.0579L27.8619 37.7579C26.5651 36.3502 24.3725 36.2589 22.9625 37.5555C21.5536 38.8523 21.4634 41.046 22.7602 42.4549L40.2125 61.4085C40.8517 62.1032 41.7462 62.5066 42.6893 62.5262C42.7147 62.5272 42.7391 62.5272 42.7634 62.5272C43.68 62.5272 44.5617 62.1632 45.2113 61.516L89.3621 17.4808C90.7189 16.1287 90.7213 13.9327 89.3689 12.577Z" fill="#45B3F1"/>
<path d="M88.5326 42.5326C86.6175 42.5326 85.0653 44.0847 85.0653 46C85.0653 67.5415 67.5415 85.0653 46 85.0653C24.4598 85.0653 6.93468 67.5415 6.93468 46C6.93468 24.4598 24.4598 6.93468 46 6.93468C47.9151 6.93468 49.4674 5.38254 49.4674 3.46743C49.4674 1.55214 47.9151 0 46 0C20.6353 0 0 20.6353 0 46C0 71.3636 20.6353 92 46 92C71.3636 92 92 71.3636 92 46C92 44.0849 90.4479 42.5326 88.5326 42.5326Z" fill="#45B3F1"/>
</svg>
