<svg width="31" height="31" viewBox="0 0 31 31" fill="none" xmlns="http://www.w3.org/2000/svg">
<path d="M17.2124 15.5L30.6451 2.06726C31.118 1.59433 31.118 0.827568 30.6451 0.354698C30.1722 -0.118172 29.4054 -0.118233 28.9325 0.354698L15.4997 13.7875L2.06702 0.354698C1.59409 -0.118233 0.827324 -0.118233 0.354454 0.354698C-0.118416 0.827629 -0.118477 1.59439 0.354454 2.06726L13.7872 15.5L0.354454 28.9328C-0.118477 29.4057 -0.118477 30.1725 0.354454 30.6453C0.590889 30.8818 0.900828 31 1.21077 31C1.52071 31 1.83058 30.8818 2.06708 30.6453L15.4997 17.2126L28.9325 30.6453C29.1689 30.8818 29.4788 31 29.7888 31C30.0987 31 30.4086 30.8818 30.6451 30.6453C31.118 30.1724 31.118 29.4056 30.6451 28.9328L17.2124 15.5Z" fill="#20384E"/>
</svg>
