<svg width="271" height="271" viewBox="0 0 271 271" fill="none" xmlns="http://www.w3.org/2000/svg">
<circle cx="135.5" cy="135.499" r="135.5" transform="rotate(-90 135.5 135.499)" fill="url(#paint0_linear)"/>
<path d="M191.255 12.0015C214.084 22.3081 233.61 38.7408 247.663 59.4746C261.716 80.2084 269.748 104.432 270.865 129.455C271.982 154.477 266.142 179.32 253.992 201.224C241.843 223.128 223.86 241.235 202.04 253.536C180.221 265.836 155.419 271.847 130.389 270.903C105.359 269.958 81.0806 262.094 60.2505 248.183C39.4203 234.273 22.8534 214.861 12.3898 192.104C1.92611 169.347 -2.02482 144.134 0.97579 119.267L135.5 135.499L191.255 12.0015Z" fill="#20384E"/>
<defs>
<linearGradient id="paint0_linear" x1="8.48577e-07" y1="167.591" x2="271.202" y2="165.78" gradientUnits="userSpaceOnUse">
<stop stop-color="#00CDFA"/>
<stop offset="1" stop-color="#00BEE8"/>
</linearGradient>
</defs>
</svg>
