<svg width="120" height="120" viewBox="0 0 120 120" fill="none" xmlns="http://www.w3.org/2000/svg">
<g clip-path="url(#clip0)">
<path d="M118.573 38.7956C120.766 29.4729 120.437 21.0286 117.647 15.0176C115.504 10.4004 112.049 7.60663 107.837 7.04343C103.706 -0.723994 89.2958 0.353875 80.6513 1.93637C78.2138 2.38169 78.8853 6.0738 81.3266 5.62497C100.47 2.1213 103.249 10.5736 106.545 10.6936C110.715 10.845 113.035 13.9873 114.246 16.5965C116.649 21.773 116.896 29.5512 114.923 37.9369C112.675 47.4933 107.745 57.4345 100.636 66.7671C97.4057 65.3458 94.8789 63.371 92.9385 60.7575C91.462 58.7672 88.4479 60.9996 89.9278 62.993C92.2825 66.1647 95.4578 68.618 99.3731 70.3022C99.4943 78.8158 99.0918 79.0003 99.7481 79.8752C118.81 105.291 108.787 120 114.374 120C114.871 120 115.348 119.803 115.699 119.451C116.051 119.099 116.249 118.622 116.249 118.125C116.249 104.391 114.04 92.8748 103.124 78.1284V69.6815C110.815 59.7487 116.153 49.0821 118.573 38.7956Z" fill="url(#paint0_linear)"/>
<path d="M88.1253 52.164C85.6461 52.164 85.643 55.914 88.1253 55.914C100.493 55.914 100.011 35.5039 90.5464 35.5039C84.4233 35.5039 82.4953 44.664 86.2503 44.664C86.7476 44.664 87.2245 44.4664 87.5761 44.1148C87.9277 43.7632 88.1253 43.2863 88.1253 42.789C88.1253 37.6487 93.7503 37.9597 93.7503 44.664C93.7503 46.9191 93.2021 52.164 88.1253 52.164Z" fill="url(#paint1_linear)"/>
<path d="M91.875 90C88.3952 90.0039 85.0591 91.388 82.5985 93.8485C80.138 96.3091 78.7539 99.6452 78.75 103.125V118.125C78.75 120.604 82.5 120.607 82.5 118.125V103.125C82.5 100.639 83.4877 98.254 85.2459 96.4959C87.004 94.7377 89.3886 93.75 91.875 93.75C94.3614 93.75 96.746 94.7377 98.5041 96.4959C100.262 98.254 101.25 100.639 101.25 103.125V118.125C101.25 120.604 105 120.607 105 118.125V103.125C104.996 99.6452 103.612 96.3091 101.151 93.8485C98.6909 91.388 95.3548 90.0039 91.875 90Z" fill="url(#paint2_linear)"/>
<path d="M93.0247 80.5782C87.8012 82.7766 80.4534 85.3322 73.2095 86.0527C78.1197 79.0191 76.6595 84.4838 76.8763 71.2517C76.8763 70.7544 76.6788 70.2775 76.3271 69.9258C75.9755 69.5742 75.4986 69.3767 75.0013 69.3767H60.9388C59.6961 69.3752 58.5046 68.8809 57.6258 68.0022C56.7471 67.1234 56.2527 65.9319 56.2513 64.6892V56.2517C56.2513 54.5229 54.5108 54.3968 51.047 52.0013C55.7387 45.7643 56.2513 45.7903 56.2513 44.6653V34.3693C57.3611 34.7905 58.5087 35.1044 59.6783 35.3067C62.1238 35.734 62.7667 32.0398 60.3243 31.613C51.0088 29.9843 47.5218 20.816 46.9541 11.3752C52.2451 14.1258 59.9957 11.765 72.2502 8.16425C74.6294 7.46628 73.5775 3.86886 71.1955 4.56566C60.8558 7.60245 49.5927 11.3665 46.7209 6.31808C45.9339 4.62425 43.3201 5.04589 43.1781 7.03292C42.5655 15.5546 45.0859 27.11 52.5013 32.3689V44.0234L46.8025 51.3514C46.6408 51.5594 46.5247 51.7991 46.4618 52.055C46.399 52.3109 46.3908 52.5771 46.4377 52.8364C46.4846 53.0956 46.5857 53.3421 46.7343 53.5597C46.8829 53.7773 47.0757 53.9611 47.3001 54.0992L52.5013 57.2993V64.6892C52.5038 66.9262 53.3935 69.0708 54.9753 70.6526C56.5571 72.2344 58.7018 73.1242 60.9388 73.1267H73.1263V79.9357C71.3958 82.0454 69.7967 84.2596 68.338 86.5657C68.1161 86.7137 67.9283 86.9073 67.7872 87.1336C67.6461 87.36 67.5549 87.6138 67.5198 87.8782C62.0155 96.901 58.1263 107.516 58.1263 118.127C58.1263 118.624 58.3239 119.101 58.6755 119.452C59.0271 119.804 59.504 120.002 60.0013 120.002C60.4986 120.002 60.9755 119.804 61.3271 119.452C61.6788 119.101 61.8763 118.624 61.8763 118.127C61.8763 106.875 66.595 96.6734 70.6539 89.9782C79.3012 89.6953 88.3143 86.6288 94.4788 84.0347C96.7665 83.0717 95.3094 79.6163 93.0247 80.5782Z" fill="url(#paint3_linear)"/>
<path d="M69.615 25.3322C68.6358 27.0766 63.75 35.9517 63.75 39.3752C63.75 41.3643 64.5402 43.272 65.9467 44.6785C67.3532 46.085 69.2609 46.8752 71.25 46.8752C73.2391 46.8752 75.1468 46.085 76.5533 44.6785C77.9598 43.272 78.75 41.3643 78.75 39.3752C78.75 35.9517 73.8642 27.0766 72.885 25.3322C72.722 25.0418 72.4846 24.8001 72.1973 24.6319C71.9099 24.4637 71.583 24.375 71.25 24.375C70.917 24.375 70.5901 24.4637 70.3027 24.6319C70.0154 24.8001 69.778 25.0418 69.615 25.3322ZM71.25 43.1252C70.2558 43.124 69.3027 42.7286 68.5996 42.0256C67.8966 41.3226 67.5012 40.3694 67.5 39.3752C67.5 38.1007 69.2423 34.1058 71.25 30.2098C73.2574 34.1046 75 38.0995 75 39.3752C74.9988 40.3694 74.6034 41.3226 73.9003 42.0256C73.1973 42.7286 72.2442 43.124 71.25 43.1252Z" fill="url(#paint4_linear)"/>
<path d="M33.749 68.4657V16.876C33.7474 15.3846 33.1542 13.9549 32.0997 12.9004C31.0451 11.8458 29.6154 11.2527 28.124 11.251H13.124C11.6327 11.2527 10.2029 11.8458 9.14841 12.9004C8.09389 13.9549 7.50072 15.3846 7.49904 16.876V68.4671C-7.38658 80.7753 1.3781 105.001 20.6292 105.001C39.6984 105.001 48.7685 80.8334 33.749 68.4657ZM20.2165 101.246C4.54428 100.878 -2.44619 80.5997 10.5002 70.876C11.9217 69.8079 10.9774 69.8478 11.2502 37.501H16.874C19.3533 37.501 19.3563 33.751 16.874 33.751H11.249V30.001H20.624C23.1033 30.001 23.1063 26.251 20.624 26.251H11.249V22.501H16.874C19.3533 22.501 19.3563 18.751 16.874 18.751H11.249C11.3627 18.2438 10.6162 15.001 13.124 15.001H28.124C28.6212 15.0015 29.0977 15.1993 29.4492 15.5508C29.8008 15.9023 29.9985 16.3789 29.999 16.876C30.2803 71.3771 29.3219 69.8037 30.7479 70.876C43.9837 80.8175 36.3799 101.634 20.2165 101.246Z" fill="url(#paint5_linear)"/>
<path d="M26.2494 72.5203V43.126C26.2494 42.6287 26.0519 42.1518 25.7003 41.8001C25.3486 41.4485 24.8717 41.251 24.3744 41.251H16.8744C16.3772 41.251 15.9003 41.4485 15.5486 41.8001C15.197 42.1518 14.9994 42.6287 14.9994 43.126V72.5203C2.35492 78.5318 6.75343 97.501 20.6244 97.501C34.476 97.501 38.9094 78.54 26.2494 72.5203ZM20.6244 93.751C10.1563 93.751 7.5932 79.0524 17.5012 75.5382C19.8693 74.6982 18.2847 73.1293 18.7494 45.001H22.4994C22.9748 73.7771 21.4572 74.7258 23.7477 75.5382C33.6517 79.0505 31.0961 93.751 20.6244 93.751Z" fill="url(#paint6_linear)"/>
</g>
<defs>
<linearGradient id="paint0_linear" x1="99.5667" y1="0.808594" x2="99.5667" y2="120" gradientUnits="userSpaceOnUse">
<stop stop-color="#E1E7ED"/>
<stop offset="1" stop-color="#BADCFF"/>
</linearGradient>
<linearGradient id="paint1_linear" x1="90.9356" y1="35.5039" x2="90.9356" y2="55.914" gradientUnits="userSpaceOnUse">
<stop stop-color="#E1E7ED"/>
<stop offset="1" stop-color="#BADCFF"/>
</linearGradient>
<linearGradient id="paint2_linear" x1="91.875" y1="90" x2="91.875" y2="119.985" gradientUnits="userSpaceOnUse">
<stop stop-color="#E1E7ED"/>
<stop offset="1" stop-color="#BADCFF"/>
</linearGradient>
<linearGradient id="paint3_linear" x1="69.3599" y1="4.47656" x2="69.3599" y2="120.002" gradientUnits="userSpaceOnUse">
<stop stop-color="#E1E7ED"/>
<stop offset="1" stop-color="#BADCFF"/>
</linearGradient>
<linearGradient id="paint4_linear" x1="71.25" y1="24.375" x2="71.25" y2="46.8752" gradientUnits="userSpaceOnUse">
<stop stop-color="#E1E7ED"/>
<stop offset="1" stop-color="#BADCFF"/>
</linearGradient>
<linearGradient id="paint5_linear" x1="20.6337" y1="11.251" x2="20.6337" y2="105.001" gradientUnits="userSpaceOnUse">
<stop stop-color="#E1E7ED"/>
<stop offset="1" stop-color="#BADCFF"/>
</linearGradient>
<linearGradient id="paint6_linear" x1="20.6249" y1="41.251" x2="20.6249" y2="97.501" gradientUnits="userSpaceOnUse">
<stop stop-color="#E1E7ED"/>
<stop offset="1" stop-color="#BADCFF"/>
</linearGradient>
<clipPath id="clip0">
<rect width="120" height="120" fill="white"/>
</clipPath>
</defs>
</svg>
