<svg width="698" height="403" viewBox="0 0 698 403" fill="none" xmlns="http://www.w3.org/2000/svg">
<path d="M4.396 239.532L4.396 245.93L5.362 245.93L5.362 243.354L14 243.354L14 242.206L5.362 242.206L5.362 239.602L4.396 239.532ZM7.028 237.112C7.028 237.714 7.042 238.344 7.518 238.932C7.98 239.506 8.568 239.618 8.96 239.618C9.352 239.618 9.786 239.45 10.066 239.17C10.36 238.876 10.528 238.428 10.57 238.064L10.598 238.064C10.682 238.316 10.822 238.47 10.934 238.568C11.144 238.736 11.494 238.89 11.62 238.932L12.642 239.324C12.866 239.408 13.02 239.45 13.16 239.646C13.216 239.73 13.328 239.954 13.356 240.066L13.44 240.332L14.126 240.15L14.084 239.576C14.042 238.988 13.874 238.736 13.706 238.582C13.496 238.4 13.188 238.288 12.838 238.19L11.886 237.91C11.648 237.84 11.382 237.742 11.2 237.532C10.99 237.294 10.99 237.056 10.99 236.832L10.99 235.88L14 235.88L14 234.788L7.028 234.788L7.028 237.112ZM10.15 235.88L10.15 236.986C10.15 237.322 10.122 237.798 9.856 238.12C9.646 238.386 9.366 238.47 9.002 238.47C8.666 238.47 8.372 238.372 8.19 238.204C7.882 237.924 7.868 237.49 7.868 237.098L7.868 235.88L10.15 235.88ZM9.954 228.199L6.874 228.199L7.084 229.291L9.954 229.291L9.954 229.977C9.954 230.257 9.926 230.425 9.744 230.607C9.688 230.663 9.52 230.831 9.086 230.915L8.022 231.125C7.756 231.181 7.476 231.279 7.294 231.447C7.154 231.573 7 231.797 6.958 232.287L6.902 232.903L7.602 233.099L7.7 232.679C7.728 232.581 7.756 232.469 7.854 232.371C7.98 232.245 8.176 232.175 8.246 232.161L9.296 231.867C9.492 231.811 9.772 231.755 9.996 231.545C10.136 231.419 10.262 231.209 10.332 231.027L10.374 231.027C10.444 231.209 10.542 231.363 10.668 231.475C10.906 231.699 11.158 231.783 11.424 231.853L12.74 232.217C12.894 232.259 13.104 232.343 13.202 232.511C13.244 232.567 13.272 232.665 13.356 232.917L13.44 233.183L14.126 233.001L14.07 232.245C14.056 231.993 13.972 231.601 13.65 231.349C13.426 231.181 13.146 231.097 12.754 231.027L11.704 230.845C11.424 230.803 11.214 230.747 11.004 230.523C10.78 230.271 10.794 230.047 10.794 229.879L10.794 229.291L14 229.291L14 228.199L10.794 228.199L10.794 227.611C10.794 227.443 10.78 227.219 11.004 226.967C11.214 226.743 11.424 226.687 11.704 226.645L12.754 226.463C13.146 226.393 13.426 226.309 13.65 226.141C13.972 225.889 14.056 225.497 14.07 225.245L14.126 224.489L13.44 224.307L13.356 224.573C13.272 224.825 13.244 224.923 13.202 224.979C13.104 225.147 12.894 225.231 12.74 225.273L11.424 225.637C11.158 225.707 10.906 225.791 10.668 226.015C10.542 226.127 10.444 226.281 10.374 226.463L10.332 226.463C10.262 226.281 10.136 226.071 9.996 225.945C9.772 225.735 9.492 225.679 9.296 225.623L8.246 225.329C8.176 225.315 7.98 225.245 7.854 225.119C7.756 225.021 7.728 224.909 7.7 224.811L7.602 224.391L6.902 224.587L6.958 225.203C7 225.693 7.154 225.917 7.294 226.043C7.476 226.211 7.756 226.309 8.022 226.365L9.086 226.575C9.52 226.659 9.688 226.827 9.744 226.883C9.926 227.065 9.954 227.233 9.954 227.513L9.954 228.199ZM10.71 217.601L10.542 217.601C9.576 217.601 9.044 217.685 8.652 217.797C8.526 217.839 7.98 218.007 7.588 218.399C7.21 218.763 6.86 219.435 6.86 220.289C6.86 221.381 7.406 222.081 7.98 222.501C8.792 223.103 9.716 223.215 10.444 223.215C11.41 223.215 12.348 223.075 13.174 222.389C13.636 221.997 14.168 221.325 14.168 220.121C14.168 219.253 13.86 218.441 13.286 217.769L12.586 218.189C13.16 218.805 13.244 219.505 13.244 219.897C13.244 220.667 12.922 221.311 12.39 221.633C11.872 221.955 11.242 221.955 10.864 221.955L10.71 221.955L10.71 217.601ZM9.87 221.955C9.394 221.969 8.764 221.843 8.372 221.591C7.952 221.325 7.7 220.933 7.7 220.345C7.7 219.743 7.994 219.295 8.316 219.085C8.708 218.833 9.45 218.749 9.87 218.763L9.87 221.955ZM12.53 211.49C12.698 211.63 12.866 211.798 12.978 211.98C13.16 212.26 13.286 212.61 13.286 212.988C13.286 213.38 13.174 213.912 12.642 214.276C12.096 214.64 11.354 214.696 10.738 214.696C9.646 214.696 8.862 214.542 8.386 214.178C7.84 213.772 7.798 213.212 7.798 212.946C7.798 212.736 7.826 212.218 8.358 211.672L7.602 211.07C6.944 211.77 6.846 212.498 6.846 212.96C6.846 213.506 6.986 214.178 7.588 214.808C8.162 215.424 9.114 215.914 10.626 215.914C11.76 215.914 12.53 215.648 13.104 215.242C13.706 214.808 14.168 214.178 14.168 213.058C14.168 212.554 14.084 212.162 13.944 211.854C13.776 211.476 13.482 211.126 13.23 210.888L12.53 211.49ZM7.924 207.468L7.924 205.452L7.028 205.354L7.028 210.576L7.924 210.576L7.924 208.56L14 208.56L14 207.468L7.924 207.468ZM6.874 203.072L7.084 204.164L14 204.164L14 201.518C14 200.93 13.902 200.328 13.482 199.81C13.034 199.25 12.474 199.096 11.886 199.096C11.27 199.096 10.752 199.25 10.332 199.74C9.73 200.426 9.716 201.35 9.716 202.022L9.716 203.072L6.874 203.072ZM10.556 203.086L10.556 201.812C10.556 201.406 10.57 200.972 10.878 200.622C11.088 200.37 11.41 200.23 11.872 200.23C12.236 200.23 12.572 200.356 12.824 200.65C12.978 200.832 13.16 201.168 13.16 201.672L13.16 203.086L10.556 203.086ZM12.53 189.971C12.698 190.111 12.866 190.279 12.978 190.461C13.16 190.741 13.286 191.091 13.286 191.469C13.286 191.861 13.174 192.393 12.642 192.757C12.096 193.121 11.354 193.177 10.738 193.177C9.646 193.177 8.862 193.023 8.386 192.659C7.84 192.253 7.798 191.693 7.798 191.427C7.798 191.217 7.826 190.699 8.358 190.153L7.602 189.551C6.944 190.251 6.846 190.979 6.846 191.441C6.846 191.987 6.986 192.659 7.588 193.289C8.162 193.905 9.114 194.395 10.626 194.395C11.76 194.395 12.53 194.129 13.104 193.723C13.706 193.289 14.168 192.659 14.168 191.539C14.168 191.035 14.084 190.643 13.944 190.335C13.776 189.957 13.482 189.607 13.23 189.369L12.53 189.971ZM14 187.785L14 186.665L9.744 184.131C9.282 183.851 8.876 183.641 8.358 183.417L8.358 183.375L9.842 183.417L14 183.417L14 182.325L6.874 182.325L7.028 183.445L11.27 185.979C11.704 186.245 12.152 186.469 12.698 186.693L12.698 186.735L11.186 186.693L6.874 186.693L7.084 187.785L14 187.785ZM7.028 179.643L14 180.301L14 179.251L8.974 178.859C8.918 178.859 8.764 178.845 8.092 178.831L8.092 178.775C8.302 178.733 8.932 178.565 9.212 178.481L14 176.955L14 176.045L9.156 174.491C8.988 174.435 8.47 174.295 8.092 174.253L8.092 174.197C8.19 174.197 8.946 174.183 9.268 174.155L14 173.749L14 172.643L7.028 173.315L7.028 174.771L11.158 176.087C11.48 176.185 12.334 176.409 12.6 176.479C12.04 176.577 11.326 176.801 11.032 176.899L7.028 178.187L7.028 179.643ZM7.868 169.521L7.868 166.651L14 166.651L14 165.559L7.028 165.559L7.028 170.613L14 170.613L14 169.521L7.868 169.521ZM7.924 161.257L7.924 159.241L7.028 159.143L7.028 164.365L7.924 164.365L7.924 162.349L14 162.349L14 161.257L7.924 161.257ZM6.86 155.634C6.86 156.432 7.21 157.314 7.84 157.846C8.498 158.406 9.548 158.644 10.514 158.644C11.662 158.644 12.586 158.35 13.174 157.846C13.832 157.3 14.168 156.446 14.168 155.634C14.168 154.822 13.832 153.968 13.174 153.422C12.586 152.918 11.662 152.624 10.514 152.624C9.548 152.624 8.498 152.862 7.84 153.422C7.21 153.954 6.86 154.836 6.86 155.634ZM7.756 155.634C7.756 154.766 8.302 154.346 8.638 154.164C8.848 154.052 9.338 153.842 10.514 153.842C11.69 153.842 12.18 154.052 12.39 154.164C12.726 154.346 13.272 154.766 13.272 155.634C13.272 156.502 12.726 156.922 12.39 157.104C12.18 157.216 11.69 157.426 10.514 157.426C9.338 157.426 8.848 157.216 8.638 157.104C8.302 156.922 7.756 156.502 7.756 155.634ZM7.028 150.289L14 150.947L14 149.897L8.974 149.505C8.918 149.505 8.764 149.491 8.092 149.477L8.092 149.421C8.302 149.379 8.932 149.211 9.212 149.127L14 147.601L14 146.691L9.156 145.137C8.988 145.081 8.47 144.941 8.092 144.899L8.092 144.843C8.19 144.843 8.946 144.829 9.268 144.801L14 144.395L14 143.289L7.028 143.961L7.028 145.417L11.158 146.733C11.48 146.831 12.334 147.055 12.6 147.125C12.04 147.223 11.326 147.447 11.032 147.545L7.028 148.833L7.028 150.289ZM6.85999 138.599C6.85999 139.397 7.21 140.279 7.84 140.811C8.498 141.371 9.548 141.609 10.514 141.609C11.662 141.609 12.586 141.315 13.174 140.811C13.832 140.265 14.168 139.411 14.168 138.599C14.168 137.787 13.832 136.933 13.174 136.387C12.586 135.883 11.662 135.589 10.514 135.589C9.54799 135.589 8.498 135.827 7.83999 136.387C7.21 136.919 6.85999 137.801 6.85999 138.599ZM7.756 138.599C7.756 137.731 8.302 137.311 8.638 137.129C8.84799 137.017 9.338 136.807 10.514 136.807C11.69 136.807 12.18 137.017 12.39 137.129C12.726 137.311 13.272 137.731 13.272 138.599C13.272 139.467 12.726 139.887 12.39 140.069C12.18 140.181 11.69 140.391 10.514 140.391C9.338 140.391 8.84799 140.181 8.638 140.069C8.302 139.887 7.756 139.467 7.756 138.599ZM7.02799 133.52L14 133.52L14 130.692C14 130.258 13.944 129.446 13.44 128.9C13.202 128.648 12.754 128.326 12.012 128.326C11.508 128.326 11.116 128.452 10.808 128.76C10.542 129.012 10.374 129.376 10.304 129.726C10.192 129.39 10.01 129.166 9.86999 129.04C9.58999 128.788 9.25399 128.648 8.81999 128.648C8.44199 128.648 7.76999 128.746 7.36399 129.362C7.06999 129.81 7.02799 130.272 7.02799 130.762L7.02799 133.52ZM10.766 132.428L10.766 130.706C10.766 130.37 10.864 130.048 11.018 129.838C11.284 129.488 11.662 129.432 11.97 129.432C12.502 129.432 12.768 129.642 12.866 129.74C13.034 129.908 13.188 130.202 13.188 130.706L13.188 132.428L10.766 132.428ZM7.83999 132.428L7.83999 130.762C7.83999 130.454 7.93799 130.188 8.09199 130.02C8.23199 129.866 8.48399 129.698 8.91799 129.698C9.28199 129.698 9.50599 129.824 9.64599 129.95C9.85599 130.146 9.98199 130.496 9.98199 130.79L9.982 132.428L7.83999 132.428Z" fill="#BCBCBC"/>
<path d="M341.33 387.396V397H343.808C345.054 397 346.09 396.972 346.86 396.244C347.266 395.866 347.616 395.222 347.616 394.368C347.616 393.57 347.322 392.842 346.748 392.408C346.412 392.156 345.936 391.974 345.488 391.904C345.628 391.862 346.132 391.708 346.552 391.316C347.084 390.826 347.21 390.238 347.21 389.804C347.21 389.02 346.79 388.334 346.202 387.928C345.418 387.396 344.452 387.396 343.584 387.396H341.33ZM342.436 396.062V392.478H344.13C344.676 392.478 345.32 392.478 345.782 392.828C346.09 393.066 346.412 393.542 346.412 394.354C346.412 395.012 346.16 395.432 345.908 395.656C345.502 396.02 344.914 396.062 344.48 396.062H342.436ZM342.436 391.54V388.334H343.794C344.284 388.334 344.872 388.292 345.376 388.698C345.712 388.978 345.936 389.426 345.936 389.958C345.936 390.476 345.726 390.91 345.446 391.162C344.998 391.554 344.41 391.54 344.102 391.54H342.436ZM349.707 390.042C349.819 390.49 349.861 390.91 349.861 391.54V399.912L350.953 399.702V396.37C351.527 396.958 352.297 397.168 352.871 397.168C353.963 397.168 354.677 396.468 355.027 395.908C355.545 395.096 355.587 394.13 355.587 393.5C355.587 392.324 355.363 391.442 354.817 390.756C354.593 390.462 354.033 389.86 352.955 389.86C352.255 389.86 351.457 390.168 350.897 390.91C350.897 390.546 350.869 390.196 350.827 389.846L349.707 390.042ZM350.953 391.848C351.429 391.19 352.143 390.84 352.815 390.84C353.655 390.84 353.977 391.386 354.103 391.652C354.285 392.03 354.425 392.632 354.425 393.766C354.425 394.018 354.411 394.83 354.131 395.404C353.865 395.936 353.319 396.272 352.661 396.272C351.933 396.272 351.317 395.782 350.953 395.362V391.848ZM362.807 393.71V393.542C362.807 392.576 362.723 392.044 362.611 391.652C362.569 391.526 362.401 390.98 362.009 390.588C361.645 390.21 360.973 389.86 360.119 389.86C359.027 389.86 358.327 390.406 357.907 390.98C357.305 391.792 357.193 392.716 357.193 393.444C357.193 394.41 357.333 395.348 358.019 396.174C358.411 396.636 359.083 397.168 360.287 397.168C361.155 397.168 361.967 396.86 362.639 396.286L362.219 395.586C361.603 396.16 360.903 396.244 360.511 396.244C359.741 396.244 359.097 395.922 358.775 395.39C358.453 394.872 358.453 394.242 358.453 393.864V393.71H362.807ZM358.453 392.87C358.439 392.394 358.565 391.764 358.817 391.372C359.083 390.952 359.475 390.7 360.063 390.7C360.665 390.7 361.113 390.994 361.323 391.316C361.575 391.708 361.659 392.45 361.645 392.87H358.453ZM365.082 390.028L364.424 397H365.474L365.866 391.974C365.866 391.918 365.88 391.764 365.894 391.092H365.95C365.992 391.302 366.16 391.932 366.244 392.212L367.77 397H368.68L370.234 392.156C370.29 391.988 370.43 391.47 370.472 391.092H370.528C370.528 391.19 370.542 391.946 370.57 392.268L370.976 397H372.082L371.41 390.028H369.954L368.638 394.158C368.54 394.48 368.316 395.334 368.246 395.6C368.148 395.04 367.924 394.326 367.826 394.032L366.538 390.028H365.082ZM376.492 390.028C375.89 390.028 375.26 390.042 374.672 390.518C374.098 390.98 373.986 391.568 373.986 391.96C373.986 392.352 374.154 392.786 374.434 393.066C374.728 393.36 375.176 393.528 375.54 393.57V393.598C375.288 393.682 375.134 393.822 375.036 393.934C374.868 394.144 374.714 394.494 374.672 394.62L374.28 395.642C374.196 395.866 374.154 396.02 373.958 396.16C373.874 396.216 373.65 396.328 373.538 396.356L373.272 396.44L373.454 397.126L374.028 397.084C374.616 397.042 374.868 396.874 375.022 396.706C375.204 396.496 375.316 396.188 375.414 395.838L375.694 394.886C375.764 394.648 375.862 394.382 376.072 394.2C376.31 393.99 376.548 393.99 376.772 393.99H377.724V397H378.816V390.028H376.492ZM377.724 393.15H376.618C376.282 393.15 375.806 393.122 375.484 392.856C375.218 392.646 375.134 392.366 375.134 392.002C375.134 391.666 375.232 391.372 375.4 391.19C375.68 390.882 376.114 390.868 376.506 390.868H377.724V393.15Z" fill="#BCBCBC"/>
<path d="M105.5 318.5C159.167 219.167 283.7 56.9001 356.5 54.5001C429.3 52.1001 550 132.999 635 313.501" stroke="#45B3F1" stroke-width="2" stroke-linecap="round"/>
<circle cx="358.5" cy="55.5" r="36.5" fill="#F6FCFF"/>
<path d="M301.434 59V49.396H295.33V59H296.478V50.292H300.286V59H301.434ZM303.94 52.042C304.052 52.49 304.094 52.91 304.094 53.54V61.912L305.186 61.702V58.37C305.76 58.958 306.53 59.168 307.104 59.168C308.196 59.168 308.91 58.468 309.26 57.908C309.778 57.096 309.82 56.13 309.82 55.5C309.82 54.324 309.596 53.442 309.05 52.756C308.826 52.462 308.266 51.86 307.188 51.86C306.488 51.86 305.69 52.168 305.13 52.91C305.13 52.546 305.102 52.196 305.06 51.846L303.94 52.042ZM305.186 53.848C305.662 53.19 306.376 52.84 307.048 52.84C307.888 52.84 308.21 53.386 308.336 53.652C308.518 54.03 308.658 54.632 308.658 55.766C308.658 56.018 308.644 56.83 308.364 57.404C308.098 57.936 307.552 58.272 306.894 58.272C306.166 58.272 305.55 57.782 305.186 57.362V53.848ZM314.584 51.86C313.786 51.86 312.904 52.21 312.372 52.84C311.812 53.498 311.574 54.548 311.574 55.514C311.574 56.662 311.868 57.586 312.372 58.174C312.918 58.832 313.772 59.168 314.584 59.168C315.396 59.168 316.25 58.832 316.796 58.174C317.3 57.586 317.594 56.662 317.594 55.514C317.594 54.548 317.356 53.498 316.796 52.84C316.264 52.21 315.382 51.86 314.584 51.86ZM314.584 52.756C315.452 52.756 315.872 53.302 316.054 53.638C316.166 53.848 316.376 54.338 316.376 55.514C316.376 56.69 316.166 57.18 316.054 57.39C315.872 57.726 315.452 58.272 314.584 58.272C313.716 58.272 313.296 57.726 313.114 57.39C313.002 57.18 312.792 56.69 312.792 55.514C312.792 54.338 313.002 53.848 313.114 53.638C313.296 53.302 313.716 52.756 314.584 52.756ZM320.756 53.008L323.472 53.008L323.626 52.028H319.664V59H320.756V53.008ZM325.008 52.042C325.12 52.49 325.162 52.91 325.162 53.54V61.912L326.254 61.702V58.37C326.828 58.958 327.598 59.168 328.172 59.168C329.264 59.168 329.978 58.468 330.328 57.908C330.846 57.096 330.888 56.13 330.888 55.5C330.888 54.324 330.664 53.442 330.118 52.756C329.894 52.462 329.334 51.86 328.256 51.86C327.556 51.86 326.758 52.168 326.198 52.91C326.198 52.546 326.17 52.196 326.128 51.846L325.008 52.042ZM326.254 53.848C326.73 53.19 327.444 52.84 328.116 52.84C328.956 52.84 329.278 53.386 329.404 53.652C329.586 54.03 329.726 54.632 329.726 55.766C329.726 56.018 329.712 56.83 329.432 57.404C329.166 57.936 328.62 58.272 327.962 58.272C327.234 58.272 326.618 57.782 326.254 57.362V53.848ZM338.108 55.71V55.542C338.108 54.576 338.024 54.044 337.912 53.652C337.87 53.526 337.702 52.98 337.31 52.588C336.946 52.21 336.274 51.86 335.42 51.86C334.328 51.86 333.628 52.406 333.208 52.98C332.606 53.792 332.494 54.716 332.494 55.444C332.494 56.41 332.634 57.348 333.32 58.174C333.712 58.636 334.384 59.168 335.588 59.168C336.456 59.168 337.268 58.86 337.94 58.286L337.52 57.586C336.904 58.16 336.204 58.244 335.812 58.244C335.042 58.244 334.398 57.922 334.076 57.39C333.754 56.872 333.754 56.242 333.754 55.864V55.71H338.108ZM333.754 54.87C333.74 54.394 333.866 53.764 334.118 53.372C334.384 52.952 334.776 52.7 335.364 52.7C335.966 52.7 336.414 52.994 336.624 53.316C336.876 53.708 336.96 54.45 336.946 54.87H333.754ZM344.219 57.53C344.079 57.698 343.911 57.866 343.729 57.978C343.449 58.16 343.099 58.286 342.721 58.286C342.329 58.286 341.797 58.174 341.433 57.642C341.069 57.096 341.013 56.354 341.013 55.738C341.013 54.646 341.167 53.862 341.531 53.386C341.937 52.84 342.497 52.798 342.763 52.798C342.973 52.798 343.491 52.826 344.037 53.358L344.639 52.602C343.939 51.944 343.211 51.846 342.749 51.846C342.203 51.846 341.531 51.986 340.901 52.588C340.285 53.162 339.795 54.114 339.795 55.626C339.795 56.76 340.061 57.53 340.467 58.104C340.901 58.706 341.531 59.168 342.651 59.168C343.155 59.168 343.547 59.084 343.855 58.944C344.233 58.776 344.583 58.482 344.821 58.23L344.219 57.53ZM350.781 57.53C350.641 57.698 350.473 57.866 350.291 57.978C350.011 58.16 349.661 58.286 349.283 58.286C348.891 58.286 348.359 58.174 347.995 57.642C347.631 57.096 347.575 56.354 347.575 55.738C347.575 54.646 347.729 53.862 348.093 53.386C348.499 52.84 349.059 52.798 349.325 52.798C349.535 52.798 350.053 52.826 350.599 53.358L351.201 52.602C350.501 51.944 349.773 51.846 349.311 51.846C348.765 51.846 348.093 51.986 347.463 52.588C346.847 53.162 346.357 54.114 346.357 55.626C346.357 56.76 346.623 57.53 347.029 58.104C347.463 58.706 348.093 59.168 349.213 59.168C349.717 59.168 350.109 59.084 350.417 58.944C350.795 58.776 351.145 58.482 351.383 58.23L350.781 57.53ZM352.967 59H354.087L356.621 54.744C356.901 54.282 357.111 53.876 357.335 53.358H357.377L357.335 54.842V59H358.427V51.874L357.307 52.028L354.773 56.27C354.507 56.704 354.283 57.152 354.059 57.698H354.017L354.059 56.186V51.874L352.967 52.084V59ZM360.843 52.028V59H363.671C364.105 59 364.917 58.944 365.463 58.44C365.715 58.202 366.037 57.754 366.037 57.012C366.037 56.508 365.911 56.116 365.603 55.808C365.351 55.542 364.987 55.374 364.637 55.304C364.973 55.192 365.197 55.01 365.323 54.87C365.575 54.59 365.715 54.254 365.715 53.82C365.715 53.442 365.617 52.77 365.001 52.364C364.553 52.07 364.091 52.028 363.601 52.028H360.843ZM361.935 55.766H363.657C363.993 55.766 364.315 55.864 364.525 56.018C364.875 56.284 364.931 56.662 364.931 56.97C364.931 57.502 364.721 57.768 364.623 57.866C364.455 58.034 364.161 58.188 363.657 58.188H361.935V55.766ZM361.935 52.84H363.601C363.909 52.84 364.175 52.938 364.343 53.092C364.497 53.232 364.665 53.484 364.665 53.918C364.665 54.282 364.539 54.506 364.413 54.646C364.217 54.856 363.867 54.982 363.573 54.982H361.935V52.84ZM369.153 55.696H372.177V59H373.269V51.874L372.177 52.084V54.856H369.153V51.874L368.061 52.084V59H369.153V55.696ZM381.067 58.482C380.563 58.244 380.493 57.838 380.493 57.292C380.493 57.138 380.507 56.956 380.507 56.774L380.563 54.478V54.156C380.563 53.764 380.535 53.302 380.409 52.938C380.241 52.476 379.751 51.846 378.435 51.846C377.889 51.846 377.371 51.944 376.923 52.098C376.447 52.266 375.943 52.532 375.551 52.784L376.097 53.568C376.419 53.316 376.727 53.148 377.077 53.008C377.371 52.896 377.833 52.742 378.323 52.742C378.603 52.742 378.967 52.784 379.233 53.092C379.457 53.358 379.485 53.624 379.485 53.932V54.702C379.345 54.688 379.191 54.688 379.009 54.688C378.225 54.688 377.105 54.8 376.293 55.332C375.607 55.794 375.299 56.424 375.299 57.194C375.299 58.412 376.125 59.168 377.539 59.168C378.057 59.168 378.785 59.056 379.555 58.244C379.681 58.734 380.031 59.112 380.507 59.266L381.067 58.482ZM379.415 57.278C379.037 58.006 378.337 58.356 377.707 58.356C377.329 58.356 377.021 58.23 376.825 58.034C376.671 57.88 376.517 57.6 376.517 57.096C376.517 56.802 376.559 56.312 376.951 55.948C377.385 55.528 378.253 55.43 378.897 55.43C379.037 55.43 379.163 55.43 379.275 55.444L379.457 55.458L379.415 57.278ZM385.439 52.028C384.837 52.028 384.207 52.042 383.619 52.518C383.045 52.98 382.933 53.568 382.933 53.96C382.933 54.352 383.101 54.786 383.381 55.066C383.675 55.36 384.123 55.528 384.487 55.57V55.598C384.235 55.682 384.081 55.822 383.983 55.934C383.815 56.144 383.661 56.494 383.619 56.62L383.227 57.642C383.143 57.866 383.101 58.02 382.905 58.16C382.821 58.216 382.597 58.328 382.485 58.356L382.219 58.44L382.401 59.126L382.975 59.084C383.563 59.042 383.815 58.874 383.969 58.706C384.151 58.496 384.263 58.188 384.361 57.838L384.641 56.886C384.711 56.648 384.809 56.382 385.019 56.2C385.257 55.99 385.495 55.99 385.719 55.99H386.671V59H387.763V52.028H385.439ZM386.671 55.15H385.565C385.229 55.15 384.753 55.122 384.431 54.856C384.165 54.646 384.081 54.366 384.081 54.002C384.081 53.666 384.179 53.372 384.347 53.19C384.627 52.882 385.061 52.868 385.453 52.868H386.671V55.15ZM397.928 48.752L396.836 48.962V52.392C396.43 52.014 395.912 51.832 395.534 51.832C394.932 51.832 394.274 52.112 393.826 52.742C393.434 53.288 393.154 54.17 393.154 55.472C393.154 56.214 393.252 57.306 393.798 58.146C394.358 59.028 395.1 59.196 395.646 59.196C396.01 59.196 396.416 59.098 396.836 58.748V61.758H397.928V58.748C398.348 59.098 398.754 59.196 399.118 59.196C399.664 59.196 400.406 59.028 400.966 58.146C401.512 57.306 401.61 56.214 401.61 55.472C401.61 54.17 401.33 53.288 400.938 52.742C400.49 52.112 399.832 51.832 399.23 51.832C398.852 51.832 398.334 52.014 397.928 52.392V48.752ZM397.9 53.19C398.222 52.868 398.67 52.672 399.062 52.672C399.538 52.672 399.874 52.91 400.056 53.148C400.448 53.652 400.462 54.45 400.462 55.528C400.462 56.312 400.49 57.334 400.028 57.908C399.706 58.314 399.3 58.356 399.006 58.356C398.67 58.356 398.264 58.244 397.9 57.936V53.19ZM396.864 57.936C396.5 58.244 396.094 58.356 395.758 58.356C395.464 58.356 395.058 58.314 394.736 57.908C394.274 57.334 394.302 56.312 394.302 55.528C394.302 54.45 394.316 53.652 394.708 53.148C394.89 52.91 395.226 52.672 395.702 52.672C396.094 52.672 396.542 52.868 396.864 53.19V57.936ZM408.93 58.482C408.426 58.244 408.356 57.838 408.356 57.292C408.356 57.138 408.37 56.956 408.37 56.774L408.426 54.478V54.156C408.426 53.764 408.398 53.302 408.272 52.938C408.104 52.476 407.614 51.846 406.298 51.846C405.752 51.846 405.234 51.944 404.786 52.098C404.31 52.266 403.806 52.532 403.414 52.784L403.96 53.568C404.282 53.316 404.59 53.148 404.94 53.008C405.234 52.896 405.696 52.742 406.186 52.742C406.466 52.742 406.83 52.784 407.096 53.092C407.32 53.358 407.348 53.624 407.348 53.932V54.702C407.208 54.688 407.054 54.688 406.872 54.688C406.088 54.688 404.968 54.8 404.156 55.332C403.47 55.794 403.162 56.424 403.162 57.194C403.162 58.412 403.988 59.168 405.402 59.168C405.92 59.168 406.648 59.056 407.418 58.244C407.544 58.734 407.894 59.112 408.37 59.266L408.93 58.482ZM407.278 57.278C406.9 58.006 406.2 58.356 405.57 58.356C405.192 58.356 404.884 58.23 404.688 58.034C404.534 57.88 404.38 57.6 404.38 57.096C404.38 56.802 404.422 56.312 404.814 55.948C405.248 55.528 406.116 55.43 406.76 55.43C406.9 55.43 407.026 55.43 407.138 55.444L407.32 55.458L407.278 57.278ZM411.72 54.898V55.738H412.434C412.784 55.738 413.218 55.78 413.54 55.99C413.89 56.214 414.002 56.55 414.002 56.998C414.002 57.474 413.806 57.754 413.638 57.908C413.428 58.104 413.064 58.272 412.448 58.272C412.14 58.272 411.384 58.23 410.502 57.628L410.082 58.44C410.67 58.818 411.51 59.168 412.504 59.168C413.05 59.168 413.722 59.056 414.226 58.748C414.548 58.552 415.206 58.034 415.206 56.984C415.206 56.396 414.954 56.032 414.73 55.808C414.464 55.556 414.072 55.346 413.694 55.262C414.058 55.15 414.436 54.926 414.646 54.688C414.884 54.408 415.01 54.03 415.01 53.68C415.01 53.134 414.758 52.63 414.324 52.308C413.904 52 413.288 51.86 412.658 51.86C412.168 51.86 411.734 51.944 411.342 52.056C410.978 52.168 410.684 52.294 410.39 52.476L410.796 53.246C411.006 53.106 411.258 52.994 411.496 52.91C411.79 52.812 412.168 52.756 412.518 52.756C412.84 52.756 413.26 52.826 413.512 53.008C413.68 53.134 413.876 53.372 413.876 53.75C413.876 54.114 413.708 54.45 413.498 54.618C413.26 54.8 412.714 54.898 412.322 54.898H411.72ZM422.424 58.482C421.92 58.244 421.85 57.838 421.85 57.292C421.85 57.138 421.864 56.956 421.864 56.774L421.92 54.478V54.156C421.92 53.764 421.892 53.302 421.766 52.938C421.598 52.476 421.108 51.846 419.792 51.846C419.246 51.846 418.728 51.944 418.28 52.098C417.804 52.266 417.3 52.532 416.908 52.784L417.454 53.568C417.776 53.316 418.084 53.148 418.434 53.008C418.728 52.896 419.19 52.742 419.68 52.742C419.96 52.742 420.324 52.784 420.59 53.092C420.814 53.358 420.842 53.624 420.842 53.932V54.702C420.702 54.688 420.548 54.688 420.366 54.688C419.582 54.688 418.462 54.8 417.65 55.332C416.964 55.794 416.656 56.424 416.656 57.194C416.656 58.412 417.482 59.168 418.896 59.168C419.414 59.168 420.142 59.056 420.912 58.244C421.038 58.734 421.388 59.112 421.864 59.266L422.424 58.482ZM420.772 57.278C420.394 58.006 419.694 58.356 419.064 58.356C418.686 58.356 418.378 58.23 418.182 58.034C418.028 57.88 417.874 57.6 417.874 57.096C417.874 56.802 417.916 56.312 418.308 55.948C418.742 55.528 419.61 55.43 420.254 55.43C420.394 55.43 420.52 55.43 420.632 55.444L420.814 55.458L420.772 57.278Z" fill="#20384E"/>
<line x1="30.5" y1="0.5" x2="30.5" y2="372.5" stroke="#C2CFE9" stroke-linecap="round"/>
<circle cx="199" cy="179" r="23" fill="#F6FCFF"/>
<circle cx="554" cy="179" r="23" fill="#F6FCFF"/>
<line x1="30.5" y1="372.5" x2="689.5" y2="372.5" stroke="#C2CFE9" stroke-linecap="round"/>
<path d="M150.628 183V181.446H150.852C151.832 181.446 152.63 181.138 153.134 180.718C154.114 179.892 154.198 178.52 154.198 177.848C154.198 177.176 154.114 175.804 153.134 174.978C152.63 174.558 151.832 174.25 150.852 174.25H150.628V172.836H149.48V174.25H149.256C148.276 174.25 147.478 174.558 146.974 174.978C145.994 175.804 145.91 177.176 145.91 177.848C145.91 178.52 145.994 179.892 146.974 180.718C147.478 181.138 148.276 181.446 149.256 181.446H149.48V183H150.628ZM150.6 175.048H150.824C151.328 175.048 151.93 175.118 152.392 175.566C153.036 176.182 153.022 177.092 153.022 177.848C153.022 178.604 153.036 179.514 152.392 180.13C151.93 180.578 151.328 180.648 150.824 180.648H150.6V175.048ZM149.508 175.048V180.648H149.284C148.78 180.648 148.178 180.578 147.716 180.13C147.072 179.514 147.086 178.604 147.086 177.848C147.086 177.092 147.072 176.182 147.716 175.566C148.178 175.118 148.78 175.048 149.284 175.048H149.508ZM161.712 182.482C161.208 182.244 161.138 181.838 161.138 181.292C161.138 181.138 161.152 180.956 161.152 180.774L161.208 178.478V178.156C161.208 177.764 161.18 177.302 161.054 176.938C160.886 176.476 160.396 175.846 159.08 175.846C158.534 175.846 158.016 175.944 157.568 176.098C157.092 176.266 156.588 176.532 156.196 176.784L156.742 177.568C157.064 177.316 157.372 177.148 157.722 177.008C158.016 176.896 158.478 176.742 158.968 176.742C159.248 176.742 159.612 176.784 159.878 177.092C160.102 177.358 160.13 177.624 160.13 177.932V178.702C159.99 178.688 159.836 178.688 159.654 178.688C158.87 178.688 157.75 178.8 156.938 179.332C156.252 179.794 155.944 180.424 155.944 181.194C155.944 182.412 156.77 183.168 158.184 183.168C158.702 183.168 159.43 183.056 160.2 182.244C160.326 182.734 160.676 183.112 161.152 183.266L161.712 182.482ZM160.06 181.278C159.682 182.006 158.982 182.356 158.352 182.356C157.974 182.356 157.666 182.23 157.47 182.034C157.316 181.88 157.162 181.6 157.162 181.096C157.162 180.802 157.204 180.312 157.596 179.948C158.03 179.528 158.898 179.43 159.542 179.43C159.682 179.43 159.808 179.43 159.92 179.444L160.102 179.458L160.06 181.278ZM164.502 178.898V179.738H165.216C165.566 179.738 166 179.78 166.322 179.99C166.672 180.214 166.784 180.55 166.784 180.998C166.784 181.474 166.588 181.754 166.42 181.908C166.21 182.104 165.846 182.272 165.23 182.272C164.922 182.272 164.166 182.23 163.284 181.628L162.864 182.44C163.452 182.818 164.292 183.168 165.286 183.168C165.832 183.168 166.504 183.056 167.008 182.748C167.33 182.552 167.988 182.034 167.988 180.984C167.988 180.396 167.736 180.032 167.512 179.808C167.246 179.556 166.854 179.346 166.476 179.262C166.84 179.15 167.218 178.926 167.428 178.688C167.666 178.408 167.792 178.03 167.792 177.68C167.792 177.134 167.54 176.63 167.106 176.308C166.686 176 166.07 175.86 165.44 175.86C164.95 175.86 164.516 175.944 164.124 176.056C163.76 176.168 163.466 176.294 163.172 176.476L163.578 177.246C163.788 177.106 164.04 176.994 164.278 176.91C164.572 176.812 164.95 176.756 165.3 176.756C165.622 176.756 166.042 176.826 166.294 177.008C166.462 177.134 166.658 177.372 166.658 177.75C166.658 178.114 166.49 178.45 166.28 178.618C166.042 178.8 165.496 178.898 165.104 178.898H164.502ZM175.206 182.482C174.702 182.244 174.632 181.838 174.632 181.292C174.632 181.138 174.646 180.956 174.646 180.774L174.702 178.478V178.156C174.702 177.764 174.674 177.302 174.548 176.938C174.38 176.476 173.89 175.846 172.574 175.846C172.028 175.846 171.51 175.944 171.062 176.098C170.586 176.266 170.082 176.532 169.69 176.784L170.236 177.568C170.558 177.316 170.866 177.148 171.216 177.008C171.51 176.896 171.972 176.742 172.462 176.742C172.742 176.742 173.106 176.784 173.372 177.092C173.596 177.358 173.624 177.624 173.624 177.932V178.702C173.484 178.688 173.33 178.688 173.148 178.688C172.364 178.688 171.244 178.8 170.432 179.332C169.746 179.794 169.438 180.424 169.438 181.194C169.438 182.412 170.264 183.168 171.678 183.168C172.196 183.168 172.924 183.056 173.694 182.244C173.82 182.734 174.17 183.112 174.646 183.266L175.206 182.482ZM173.554 181.278C173.176 182.006 172.476 182.356 171.846 182.356C171.468 182.356 171.16 182.23 170.964 182.034C170.81 181.88 170.656 181.6 170.656 181.096C170.656 180.802 170.698 180.312 171.09 179.948C171.524 179.528 172.392 179.43 173.036 179.43C173.176 179.43 173.302 179.43 173.414 179.444L173.596 179.458L173.554 181.278ZM180.41 176.042C180.522 176.49 180.564 176.91 180.564 177.54V185.912L181.656 185.702V182.37C182.23 182.958 183 183.168 183.574 183.168C184.666 183.168 185.38 182.468 185.73 181.908C186.248 181.096 186.29 180.13 186.29 179.5C186.29 178.324 186.066 177.442 185.52 176.756C185.296 176.462 184.736 175.86 183.658 175.86C182.958 175.86 182.16 176.168 181.6 176.91C181.6 176.546 181.572 176.196 181.53 175.846L180.41 176.042ZM181.656 177.848C182.132 177.19 182.846 176.84 183.518 176.84C184.358 176.84 184.68 177.386 184.806 177.652C184.988 178.03 185.128 178.632 185.128 179.766C185.128 180.018 185.114 180.83 184.834 181.404C184.568 181.936 184.022 182.272 183.364 182.272C182.636 182.272 182.02 181.782 181.656 181.362V177.848ZM193.581 182.482C193.077 182.244 193.007 181.838 193.007 181.292C193.007 181.138 193.021 180.956 193.021 180.774L193.077 178.478V178.156C193.077 177.764 193.049 177.302 192.923 176.938C192.755 176.476 192.265 175.846 190.949 175.846C190.403 175.846 189.885 175.944 189.437 176.098C188.961 176.266 188.457 176.532 188.065 176.784L188.611 177.568C188.933 177.316 189.241 177.148 189.591 177.008C189.885 176.896 190.347 176.742 190.837 176.742C191.117 176.742 191.481 176.784 191.747 177.092C191.971 177.358 191.999 177.624 191.999 177.932V178.702C191.859 178.688 191.705 178.688 191.523 178.688C190.739 178.688 189.619 178.8 188.807 179.332C188.121 179.794 187.813 180.424 187.813 181.194C187.813 182.412 188.639 183.168 190.053 183.168C190.571 183.168 191.299 183.056 192.069 182.244C192.195 182.734 192.545 183.112 193.021 183.266L193.581 182.482ZM191.929 181.278C191.551 182.006 190.851 182.356 190.221 182.356C189.843 182.356 189.535 182.23 189.339 182.034C189.185 181.88 189.031 181.6 189.031 181.096C189.031 180.802 189.073 180.312 189.465 179.948C189.899 179.528 190.767 179.43 191.411 179.43C191.551 179.43 191.677 179.43 191.789 179.444L191.971 179.458L191.929 181.278ZM196.371 178.898V179.738H197.085C197.435 179.738 197.869 179.78 198.191 179.99C198.541 180.214 198.653 180.55 198.653 180.998C198.653 181.474 198.457 181.754 198.289 181.908C198.079 182.104 197.715 182.272 197.099 182.272C196.791 182.272 196.035 182.23 195.153 181.628L194.733 182.44C195.321 182.818 196.161 183.168 197.155 183.168C197.701 183.168 198.373 183.056 198.877 182.748C199.199 182.552 199.857 182.034 199.857 180.984C199.857 180.396 199.605 180.032 199.381 179.808C199.115 179.556 198.723 179.346 198.345 179.262C198.709 179.15 199.087 178.926 199.297 178.688C199.535 178.408 199.661 178.03 199.661 177.68C199.661 177.134 199.409 176.63 198.975 176.308C198.555 176 197.939 175.86 197.309 175.86C196.819 175.86 196.385 175.944 195.993 176.056C195.629 176.168 195.335 176.294 195.041 176.476L195.447 177.246C195.657 177.106 195.909 176.994 196.147 176.91C196.441 176.812 196.819 176.756 197.169 176.756C197.491 176.756 197.911 176.826 198.163 177.008C198.331 177.134 198.527 177.372 198.527 177.75C198.527 178.114 198.359 178.45 198.149 178.618C197.911 178.8 197.365 178.898 196.973 178.898H196.371ZM201.807 176.042C201.919 176.49 201.961 176.91 201.961 177.54V185.912L203.053 185.702V182.37C203.627 182.958 204.397 183.168 204.971 183.168C206.063 183.168 206.777 182.468 207.127 181.908C207.645 181.096 207.687 180.13 207.687 179.5C207.687 178.324 207.463 177.442 206.917 176.756C206.693 176.462 206.133 175.86 205.055 175.86C204.355 175.86 203.557 176.168 202.997 176.91C202.997 176.546 202.969 176.196 202.927 175.846L201.807 176.042ZM203.053 177.848C203.529 177.19 204.243 176.84 204.915 176.84C205.755 176.84 206.077 177.386 206.203 177.652C206.385 178.03 206.525 178.632 206.525 179.766C206.525 180.018 206.511 180.83 206.231 181.404C205.965 181.936 205.419 182.272 204.761 182.272C204.033 182.272 203.417 181.782 203.053 181.362V177.848ZM214.977 182.482C214.473 182.244 214.403 181.838 214.403 181.292C214.403 181.138 214.417 180.956 214.417 180.774L214.473 178.478V178.156C214.473 177.764 214.445 177.302 214.319 176.938C214.151 176.476 213.661 175.846 212.345 175.846C211.799 175.846 211.281 175.944 210.833 176.098C210.357 176.266 209.853 176.532 209.461 176.784L210.007 177.568C210.329 177.316 210.637 177.148 210.987 177.008C211.281 176.896 211.743 176.742 212.233 176.742C212.513 176.742 212.877 176.784 213.143 177.092C213.367 177.358 213.395 177.624 213.395 177.932V178.702C213.255 178.688 213.101 178.688 212.919 178.688C212.135 178.688 211.015 178.8 210.203 179.332C209.517 179.794 209.209 180.424 209.209 181.194C209.209 182.412 210.035 183.168 211.449 183.168C211.967 183.168 212.695 183.056 213.465 182.244C213.591 182.734 213.941 183.112 214.417 183.266L214.977 182.482ZM213.325 181.278C212.947 182.006 212.247 182.356 211.617 182.356C211.239 182.356 210.931 182.23 210.735 182.034C210.581 181.88 210.427 181.6 210.427 181.096C210.427 180.802 210.469 180.312 210.861 179.948C211.295 179.528 212.163 179.43 212.807 179.43C212.947 179.43 213.073 179.43 213.185 179.444L213.367 179.458L213.325 181.278ZM222.023 172.192L221.071 172.654L219.195 173.494C218.103 173.984 217.487 174.67 217.151 175.496C216.829 176.252 216.689 177.288 216.689 179.024C216.689 179.976 216.717 181.264 217.487 182.188C217.949 182.748 218.719 183.168 219.699 183.168C220.665 183.168 221.463 182.748 221.911 182.216C222.471 181.572 222.709 180.55 222.709 179.612C222.709 178.66 222.457 177.638 221.953 176.994C221.589 176.518 220.889 176.028 219.811 176.028C219.363 176.028 218.915 176.14 218.467 176.434C218.075 176.686 217.837 176.994 217.697 177.246L217.627 177.232L217.669 176.798C217.711 176.364 217.865 175.888 218.061 175.566C218.327 175.104 218.649 174.88 219.055 174.698L221.071 173.788C221.477 173.606 221.743 173.508 222.471 173.102L222.023 172.192ZM219.699 176.924C220.567 176.924 221.001 177.47 221.169 177.792C221.323 178.072 221.491 178.576 221.491 179.612C221.491 180.634 221.323 181.138 221.169 181.418C220.931 181.838 220.455 182.272 219.699 182.272C218.943 182.272 218.467 181.838 218.229 181.418C218.075 181.138 217.907 180.634 217.907 179.612C217.907 178.576 218.075 178.072 218.229 177.792C218.397 177.47 218.831 176.924 219.699 176.924ZM227.395 175.86C226.597 175.86 225.715 176.21 225.183 176.84C224.623 177.498 224.385 178.548 224.385 179.514C224.385 180.662 224.679 181.586 225.183 182.174C225.729 182.832 226.583 183.168 227.395 183.168C228.207 183.168 229.061 182.832 229.607 182.174C230.111 181.586 230.405 180.662 230.405 179.514C230.405 178.548 230.167 177.498 229.607 176.84C229.075 176.21 228.193 175.86 227.395 175.86ZM227.395 176.756C228.263 176.756 228.683 177.302 228.865 177.638C228.977 177.848 229.187 178.338 229.187 179.514C229.187 180.69 228.977 181.18 228.865 181.39C228.683 181.726 228.263 182.272 227.395 182.272C226.527 182.272 226.107 181.726 225.925 181.39C225.813 181.18 225.603 180.69 225.603 179.514C225.603 178.338 225.813 177.848 225.925 177.638C226.107 177.302 226.527 176.756 227.395 176.756ZM234.09 176.924H236.106L236.204 176.028L230.982 176.028V176.924H232.998V183H234.09V176.924ZM237.395 183H238.487V179.794L239.565 179.794C239.733 179.794 239.957 179.78 240.209 180.004C240.433 180.214 240.489 180.424 240.531 180.704L240.713 181.754C240.783 182.146 240.867 182.426 241.035 182.65C241.287 182.972 241.679 183.056 241.931 183.07L242.687 183.126L242.869 182.44L242.603 182.356C242.351 182.272 242.253 182.244 242.197 182.202C242.029 182.104 241.945 181.894 241.903 181.74L241.539 180.424C241.469 180.158 241.385 179.906 241.161 179.668C241.049 179.542 240.895 179.444 240.713 179.374V179.332C240.895 179.262 241.105 179.136 241.231 178.996C241.441 178.772 241.497 178.492 241.553 178.296L241.847 177.246C241.861 177.176 241.931 176.98 242.057 176.854C242.155 176.756 242.267 176.728 242.365 176.7L242.785 176.602L242.589 175.902L241.973 175.958C241.483 176 241.259 176.154 241.133 176.294C240.965 176.476 240.867 176.756 240.811 177.022L240.601 178.086C240.517 178.52 240.349 178.688 240.293 178.744C240.111 178.926 239.943 178.954 239.663 178.954L238.487 178.954V175.874L237.395 176.084V183ZM244.409 183H245.529L248.063 178.744C248.343 178.282 248.553 177.876 248.777 177.358H248.819L248.777 178.842V183H249.869V175.874L248.749 176.028L246.215 180.27C245.949 180.704 245.725 181.152 245.501 181.698H245.459L245.501 180.186V175.874L244.409 176.084V183Z" fill="#20384E"/>
<path d="M503.008 173.396H501.762L504.59 180.326L505.122 180.284L504.982 180.732C504.898 181.012 504.716 181.446 504.562 181.656C504.422 181.852 504.212 182.034 503.96 182.16C503.806 182.23 503.498 182.342 503.358 182.384L503.078 182.454L503.288 183.266L503.694 183.21C504.002 183.168 504.576 183.098 504.996 182.79C505.346 182.538 505.528 182.174 505.682 181.824C505.92 181.278 506.046 180.844 506.172 180.494L508.608 173.396H507.488L505.906 178.17C505.808 178.464 505.542 179.276 505.43 179.64C505.248 179.024 505.108 178.674 504.926 178.226L503.008 173.396ZM510.143 176.028L509.989 177.68C509.947 178.198 509.961 178.282 509.723 180.186C509.541 181.642 509.401 181.922 508.981 182.174C508.855 182.244 508.743 182.3 508.575 182.356L508.309 182.44L508.491 183.126L508.953 183.084C509.121 183.07 509.611 183.014 509.961 182.706C510.339 182.384 510.409 181.978 510.535 181.348C510.619 180.928 510.689 180.494 510.745 180.004C510.801 179.556 510.941 178.394 510.969 177.946L511.053 176.868H512.859V183H513.951V176.028H510.143ZM516.427 175.818L515.349 176.182L516.847 180.55C517.001 180.998 517.379 182.3 517.547 183.056L517.995 182.986L517.939 183.196C517.715 184.05 517.463 184.414 517.309 184.582C517.099 184.82 516.763 185.03 516.385 185.128L516.707 185.87L516.889 185.814C517.365 185.66 517.785 185.394 518.135 184.96C518.513 184.484 518.765 183.84 518.961 183.252L521.355 176.028H520.109L518.737 180.606C518.611 181.04 518.513 181.348 518.303 182.076H518.275C518.177 181.53 518.023 180.886 517.855 180.34L516.427 175.818ZM523.088 175.874L521.996 176.084V178.338C521.996 178.772 522.01 179.276 522.43 179.738C522.934 180.298 523.732 180.396 524.264 180.396C524.866 180.396 525.188 180.34 525.846 180.102V183H526.938V175.874L525.846 176.084V179.276C525.426 179.486 524.894 179.556 524.446 179.556C524.138 179.556 523.704 179.486 523.452 179.304C523.116 179.052 523.088 178.688 523.088 178.52V175.874ZM529.317 176.084V183H537.269V175.874L536.177 176.084V182.188H533.839V175.874L532.747 176.084V182.188H530.409V175.874L529.317 176.084ZM544.987 179.71V179.542C544.987 178.576 544.903 178.044 544.791 177.652C544.749 177.526 544.581 176.98 544.189 176.588C543.825 176.21 543.153 175.86 542.299 175.86C541.207 175.86 540.507 176.406 540.087 176.98C539.485 177.792 539.373 178.716 539.373 179.444C539.373 180.41 539.513 181.348 540.199 182.174C540.591 182.636 541.263 183.168 542.467 183.168C543.335 183.168 544.147 182.86 544.819 182.286L544.399 181.586C543.783 182.16 543.083 182.244 542.691 182.244C541.921 182.244 541.277 181.922 540.955 181.39C540.633 180.872 540.633 180.242 540.633 179.864V179.71H544.987ZM540.633 178.87C540.619 178.394 540.745 177.764 540.997 177.372C541.263 176.952 541.655 176.7 542.243 176.7C542.845 176.7 543.293 176.994 543.503 177.316C543.755 177.708 543.839 178.45 543.825 178.87H540.633ZM548.046 179.696H551.07V183H552.162V175.874L551.07 176.084V178.856H548.046V175.874L546.954 176.084V183H548.046V179.696ZM554.542 183H555.662L558.196 178.744C558.476 178.282 558.686 177.876 558.91 177.358H558.952L558.91 178.842V183H560.002V175.874L558.882 176.028L556.348 180.27C556.082 180.704 555.858 181.152 555.634 181.698H555.592L555.634 180.186V175.874L554.542 176.084V183ZM567.71 179.71V179.542C567.71 178.576 567.626 178.044 567.514 177.652C567.472 177.526 567.304 176.98 566.912 176.588C566.548 176.21 565.876 175.86 565.022 175.86C563.93 175.86 563.23 176.406 562.81 176.98C562.208 177.792 562.096 178.716 562.096 179.444C562.096 180.41 562.236 181.348 562.922 182.174C563.314 182.636 563.986 183.168 565.19 183.168C566.058 183.168 566.87 182.86 567.542 182.286L567.122 181.586C566.506 182.16 565.806 182.244 565.414 182.244C564.644 182.244 564 181.922 563.678 181.39C563.356 180.872 563.356 180.242 563.356 179.864V179.71H567.71ZM563.356 178.87C563.342 178.394 563.468 177.764 563.72 177.372C563.986 176.952 564.378 176.7 564.966 176.7C565.568 176.7 566.016 176.994 566.226 177.316C566.478 177.708 566.562 178.45 566.548 178.87H563.356ZM577.327 172.752L576.235 172.962V176.392C575.829 176.014 575.311 175.832 574.933 175.832C574.331 175.832 573.673 176.112 573.225 176.742C572.833 177.288 572.553 178.17 572.553 179.472C572.553 180.214 572.651 181.306 573.197 182.146C573.757 183.028 574.499 183.196 575.045 183.196C575.409 183.196 575.815 183.098 576.235 182.748V185.758H577.327V182.748C577.747 183.098 578.153 183.196 578.517 183.196C579.063 183.196 579.805 183.028 580.365 182.146C580.911 181.306 581.009 180.214 581.009 179.472C581.009 178.17 580.729 177.288 580.337 176.742C579.889 176.112 579.231 175.832 578.629 175.832C578.251 175.832 577.733 176.014 577.327 176.392V172.752ZM577.299 177.19C577.621 176.868 578.069 176.672 578.461 176.672C578.937 176.672 579.273 176.91 579.455 177.148C579.847 177.652 579.861 178.45 579.861 179.528C579.861 180.312 579.889 181.334 579.427 181.908C579.105 182.314 578.699 182.356 578.405 182.356C578.069 182.356 577.663 182.244 577.299 181.936V177.19ZM576.263 181.936C575.899 182.244 575.493 182.356 575.157 182.356C574.863 182.356 574.457 182.314 574.135 181.908C573.673 181.334 573.701 180.312 573.701 179.528C573.701 178.45 573.715 177.652 574.107 177.148C574.289 176.91 574.625 176.672 575.101 176.672C575.493 176.672 575.941 176.868 576.263 177.19V181.936ZM588.329 182.482C587.825 182.244 587.755 181.838 587.755 181.292C587.755 181.138 587.769 180.956 587.769 180.774L587.825 178.478V178.156C587.825 177.764 587.797 177.302 587.671 176.938C587.503 176.476 587.013 175.846 585.697 175.846C585.151 175.846 584.633 175.944 584.185 176.098C583.709 176.266 583.205 176.532 582.813 176.784L583.359 177.568C583.681 177.316 583.989 177.148 584.339 177.008C584.633 176.896 585.095 176.742 585.585 176.742C585.865 176.742 586.229 176.784 586.495 177.092C586.719 177.358 586.747 177.624 586.747 177.932V178.702C586.607 178.688 586.453 178.688 586.271 178.688C585.487 178.688 584.367 178.8 583.555 179.332C582.869 179.794 582.561 180.424 582.561 181.194C582.561 182.412 583.387 183.168 584.801 183.168C585.319 183.168 586.047 183.056 586.817 182.244C586.943 182.734 587.293 183.112 587.769 183.266L588.329 182.482ZM586.677 181.278C586.299 182.006 585.599 182.356 584.969 182.356C584.591 182.356 584.283 182.23 584.087 182.034C583.933 181.88 583.779 181.6 583.779 181.096C583.779 180.802 583.821 180.312 584.213 179.948C584.647 179.528 585.515 179.43 586.159 179.43C586.299 179.43 586.425 179.43 586.537 179.444L586.719 179.458L586.677 181.278ZM591.119 178.898V179.738H591.833C592.183 179.738 592.617 179.78 592.939 179.99C593.289 180.214 593.401 180.55 593.401 180.998C593.401 181.474 593.205 181.754 593.037 181.908C592.827 182.104 592.463 182.272 591.847 182.272C591.539 182.272 590.783 182.23 589.901 181.628L589.481 182.44C590.069 182.818 590.909 183.168 591.903 183.168C592.449 183.168 593.121 183.056 593.625 182.748C593.947 182.552 594.605 182.034 594.605 180.984C594.605 180.396 594.353 180.032 594.129 179.808C593.863 179.556 593.471 179.346 593.093 179.262C593.457 179.15 593.835 178.926 594.045 178.688C594.283 178.408 594.409 178.03 594.409 177.68C594.409 177.134 594.157 176.63 593.723 176.308C593.303 176 592.687 175.86 592.057 175.86C591.567 175.86 591.133 175.944 590.741 176.056C590.377 176.168 590.083 176.294 589.789 176.476L590.195 177.246C590.405 177.106 590.657 176.994 590.895 176.91C591.189 176.812 591.567 176.756 591.917 176.756C592.239 176.756 592.659 176.826 592.911 177.008C593.079 177.134 593.275 177.372 593.275 177.75C593.275 178.114 593.107 178.45 592.897 178.618C592.659 178.8 592.113 178.898 591.721 178.898H591.119ZM597.661 175.874L596.569 176.084V183H599.159C599.509 183 600.181 182.958 600.769 182.482C601.343 182.02 601.497 181.446 601.497 180.886C601.497 180.214 601.315 179.696 600.797 179.276C600.251 178.828 599.565 178.716 598.823 178.716H597.661V175.874ZM602.575 176.084V183H603.667V175.874L602.575 176.084ZM597.661 179.556H598.767C599.145 179.556 599.649 179.57 600.013 179.892C600.209 180.06 600.391 180.368 600.391 180.872C600.391 181.39 600.167 181.67 599.999 181.824C599.817 181.978 599.481 182.16 598.949 182.16H597.661V179.556Z" fill="#20384E"/>
<circle cx="110" cy="316" r="23" fill="#F6FCFF"/>
<circle cx="638" cy="316" r="23" fill="#F6FCFF"/>
<path d="M72.658 320V310.396H71.51V314.414H67.478V310.396H66.33V320H67.478V315.352H71.51V320H72.658ZM80.5904 319.482C80.0864 319.244 80.0164 318.838 80.0164 318.292C80.0164 318.138 80.0304 317.956 80.0304 317.774L80.0864 315.478V315.156C80.0864 314.764 80.0584 314.302 79.9324 313.938C79.7644 313.476 79.2744 312.846 77.9584 312.846C77.4124 312.846 76.8944 312.944 76.4464 313.098C75.9704 313.266 75.4664 313.532 75.0744 313.784L75.6204 314.568C75.9424 314.316 76.2504 314.148 76.6004 314.008C76.8944 313.896 77.3564 313.742 77.8464 313.742C78.1264 313.742 78.4904 313.784 78.7564 314.092C78.9804 314.358 79.0084 314.624 79.0084 314.932V315.702C78.8684 315.688 78.7144 315.688 78.5324 315.688C77.7484 315.688 76.6284 315.8 75.8164 316.332C75.1304 316.794 74.8224 317.424 74.8224 318.194C74.8224 319.412 75.6484 320.168 77.0624 320.168C77.5804 320.168 78.3084 320.056 79.0784 319.244C79.2044 319.734 79.5544 320.112 80.0304 320.266L80.5904 319.482ZM78.9384 318.278C78.5604 319.006 77.8604 319.356 77.2304 319.356C76.8524 319.356 76.5444 319.23 76.3484 319.034C76.1944 318.88 76.0404 318.6 76.0404 318.096C76.0404 317.802 76.0824 317.312 76.4744 316.948C76.9084 316.528 77.7764 316.43 78.4204 316.43C78.5604 316.43 78.6864 316.43 78.7984 316.444L78.9804 316.458L78.9384 318.278ZM83.3946 312.874L82.3026 313.084V315.338C82.3026 315.772 82.3166 316.276 82.7366 316.738C83.2406 317.298 84.0386 317.396 84.5706 317.396C85.1726 317.396 85.4946 317.34 86.1526 317.102V320H87.2446V312.874L86.1526 313.084V316.276C85.7326 316.486 85.2006 316.556 84.7526 316.556C84.4446 316.556 84.0106 316.486 83.7586 316.304C83.4226 316.052 83.3946 315.688 83.3946 315.52V312.874ZM95.0416 319.482C94.5376 319.244 94.4676 318.838 94.4676 318.292C94.4676 318.138 94.4816 317.956 94.4816 317.774L94.5376 315.478V315.156C94.5376 314.764 94.5096 314.302 94.3836 313.938C94.2156 313.476 93.7256 312.846 92.4096 312.846C91.8636 312.846 91.3456 312.944 90.8976 313.098C90.4216 313.266 89.9176 313.532 89.5256 313.784L90.0716 314.568C90.3936 314.316 90.7016 314.148 91.0516 314.008C91.3456 313.896 91.8076 313.742 92.2976 313.742C92.5776 313.742 92.9416 313.784 93.2076 314.092C93.4316 314.358 93.4596 314.624 93.4596 314.932V315.702C93.3196 315.688 93.1656 315.688 92.9836 315.688C92.1996 315.688 91.0796 315.8 90.2676 316.332C89.5816 316.794 89.2736 317.424 89.2736 318.194C89.2736 319.412 90.0996 320.168 91.5136 320.168C92.0316 320.168 92.7596 320.056 93.5296 319.244C93.6556 319.734 94.0056 320.112 94.4816 320.266L95.0416 319.482ZM93.3896 318.278C93.0116 319.006 92.3116 319.356 91.6816 319.356C91.3036 319.356 90.9956 319.23 90.7996 319.034C90.6456 318.88 90.4916 318.6 90.4916 318.096C90.4916 317.802 90.5336 317.312 90.9256 316.948C91.3596 316.528 92.2276 316.43 92.8716 316.43C93.0116 316.43 93.1376 316.43 93.2496 316.444L93.4316 316.458L93.3896 318.278ZM97.711 313.028L97.557 314.68C97.515 315.198 97.529 315.282 97.291 317.186C97.109 318.642 96.969 318.922 96.549 319.174C96.423 319.244 96.311 319.3 96.143 319.356L95.877 319.44L96.059 320.126L96.521 320.084C96.689 320.07 97.179 320.014 97.529 319.706C97.907 319.384 97.977 318.978 98.103 318.348C98.187 317.928 98.257 317.494 98.313 317.004C98.369 316.556 98.509 315.394 98.537 314.946L98.621 313.868H100.427V320H101.519V313.028H97.711ZM104.989 312.874L103.897 313.084V320H106.543C107.131 320 107.733 319.902 108.251 319.482C108.811 319.034 108.965 318.474 108.965 317.886C108.965 317.27 108.811 316.752 108.321 316.332C107.635 315.73 106.711 315.716 106.039 315.716H104.989V312.874ZM104.975 316.556H106.249C106.655 316.556 107.089 316.57 107.439 316.878C107.691 317.088 107.831 317.41 107.831 317.872C107.831 318.236 107.705 318.572 107.411 318.824C107.229 318.978 106.893 319.16 106.389 319.16H104.975V316.556ZM111.811 316.696H114.835V320H115.927V312.874L114.835 313.084V315.856H111.811V312.874L110.719 313.084V320H111.811V316.696ZM119.399 312.874L118.307 313.084V320H120.897C121.247 320 121.919 319.958 122.507 319.482C123.081 319.02 123.235 318.446 123.235 317.886C123.235 317.214 123.053 316.696 122.535 316.276C121.989 315.828 121.303 315.716 120.561 315.716H119.399V312.874ZM124.313 313.084V320H125.405V312.874L124.313 313.084ZM119.399 316.556H120.505C120.883 316.556 121.387 316.57 121.751 316.892C121.947 317.06 122.129 317.368 122.129 317.872C122.129 318.39 121.905 318.67 121.737 318.824C121.555 318.978 121.219 319.16 120.687 319.16H119.399V316.556ZM127.782 320H128.902L131.436 315.744C131.716 315.282 131.926 314.876 132.15 314.358H132.192L132.15 315.842V320H133.242V312.874L132.122 313.028L129.588 317.27C129.322 317.704 129.098 318.152 128.874 318.698H128.832L128.874 317.186V312.874L127.782 313.084V320ZM132.038 309.864C131.898 310.102 131.618 310.396 131.366 310.55C131.072 310.718 130.792 310.746 130.512 310.746C130.218 310.746 129.952 310.718 129.658 310.55C129.392 310.396 129.182 310.186 128.986 309.864L128.356 310.326C128.86 311.39 129.7 311.712 130.512 311.712C131.646 311.712 132.332 311.068 132.668 310.326L132.038 309.864ZM138.324 319.244C139.052 320 139.864 320.168 140.55 320.168C141.236 320.168 142.006 320 142.65 319.272C142.902 318.992 143.504 318.18 143.504 316.346C143.504 315.072 143.07 314.176 142.552 313.644C141.922 313 141.222 312.86 140.606 312.86C140.116 312.86 139.22 312.958 138.506 313.616L139.094 314.26C139.458 313.924 139.934 313.672 140.55 313.672C141.194 313.672 141.6 313.924 141.824 314.176C142.146 314.54 142.286 315.142 142.286 315.632V315.884H139.92V316.724H142.286V317.214C142.286 317.774 142.16 318.516 141.768 318.922C141.39 319.314 140.886 319.356 140.606 319.356C139.92 319.356 139.332 319.09 138.898 318.586L138.324 319.244ZM147.446 313.924H149.462L149.56 313.028H144.338V313.924H146.354V320H147.446V313.924ZM155.909 319.482C155.405 319.244 155.335 318.838 155.335 318.292C155.335 318.138 155.349 317.956 155.349 317.774L155.405 315.478V315.156C155.405 314.764 155.377 314.302 155.251 313.938C155.083 313.476 154.593 312.846 153.277 312.846C152.731 312.846 152.213 312.944 151.765 313.098C151.289 313.266 150.785 313.532 150.393 313.784L150.939 314.568C151.261 314.316 151.569 314.148 151.919 314.008C152.213 313.896 152.675 313.742 153.165 313.742C153.445 313.742 153.809 313.784 154.075 314.092C154.299 314.358 154.327 314.624 154.327 314.932V315.702C154.187 315.688 154.033 315.688 153.851 315.688C153.067 315.688 151.947 315.8 151.135 316.332C150.449 316.794 150.141 317.424 150.141 318.194C150.141 319.412 150.967 320.168 152.381 320.168C152.899 320.168 153.627 320.056 154.397 319.244C154.523 319.734 154.873 320.112 155.349 320.266L155.909 319.482ZM154.257 318.278C153.879 319.006 153.179 319.356 152.549 319.356C152.171 319.356 151.863 319.23 151.667 319.034C151.513 318.88 151.359 318.6 151.359 318.096C151.359 317.802 151.401 317.312 151.793 316.948C152.227 316.528 153.095 316.43 153.739 316.43C153.879 316.43 154.005 316.43 154.117 316.444L154.299 316.458L154.257 318.278ZM158.993 313.868H161.863V320H162.955V313.028H157.901V320H158.993V313.868Z" fill="#20384E"/>
<path d="M354.454 319.286C354.454 318.292 353.726 317.424 352.508 317.144C353.558 316.85 354.202 316.066 354.202 315.072C354.202 313.728 353.096 312.79 351.542 312.79C350.492 312.79 349.512 313.224 348.63 313.952L349.12 314.526C350.114 313.84 350.716 313.7 351.346 313.7C352.34 313.7 353.012 314.302 353.012 315.212C353.012 315.954 352.634 316.528 351.766 316.654C351.444 316.696 350.226 316.696 350.226 316.696V317.48H350.87C351.64 317.48 352.13 317.55 352.606 317.9C352.914 318.124 353.222 318.558 353.222 319.188C353.222 320.35 352.256 321.806 349.624 321.806C349.064 321.806 348.756 321.764 348.756 321.764L349.008 322.506C349.008 322.506 349.274 322.548 349.694 322.548C350.772 322.548 351.92 322.352 352.872 321.792C353.754 321.274 354.454 320.322 354.454 319.286ZM358.813 316.794V315.73H356.139V316.794H358.813ZM365.698 319.258C365.698 317.522 364.396 316.598 362.786 316.598C362.324 316.598 361.834 316.668 361.834 316.668L362.072 313.952H365.054L365.222 313.028H361.078L360.63 317.746C361.036 317.564 361.722 317.438 362.408 317.438C363.71 317.438 364.494 318.096 364.494 319.258C364.494 320.686 363.164 321.806 361.47 321.806C361.008 321.806 360.686 321.722 360.42 321.61L360.616 322.45C360.98 322.548 361.232 322.59 361.652 322.59C363.822 322.59 365.698 321.288 365.698 319.258ZM376.638 319.16H375.77V313.028H371.85L371.822 314.316C371.78 316.22 371.43 317.732 370.646 319.16H370.142V322.002H371.206V320H375.574V322.002H376.638V319.16ZM374.678 313.868V319.16H371.696C372.466 317.592 372.704 316.094 372.76 314.876L372.802 313.868H374.678ZM379.362 316.696H382.386V320H383.478V312.874L382.386 313.084V315.856H379.362V312.874L378.27 313.084V320H379.362V316.696ZM391.192 316.71V316.542C391.192 315.576 391.108 315.044 390.996 314.652C390.954 314.526 390.786 313.98 390.394 313.588C390.03 313.21 389.358 312.86 388.504 312.86C387.412 312.86 386.712 313.406 386.292 313.98C385.69 314.792 385.578 315.716 385.578 316.444C385.578 317.41 385.718 318.348 386.404 319.174C386.796 319.636 387.468 320.168 388.672 320.168C389.54 320.168 390.352 319.86 391.024 319.286L390.604 318.586C389.988 319.16 389.288 319.244 388.896 319.244C388.126 319.244 387.482 318.922 387.16 318.39C386.838 317.872 386.838 317.242 386.838 316.864V316.71H391.192ZM386.838 315.87C386.824 315.394 386.95 314.764 387.202 314.372C387.468 313.952 387.86 313.7 388.448 313.7C389.05 313.7 389.498 313.994 389.708 314.316C389.96 314.708 390.044 315.45 390.03 315.87H386.838ZM393.159 320H394.279L396.813 315.744C397.093 315.282 397.303 314.876 397.527 314.358H397.569L397.527 315.842V320H398.619V312.874L397.499 313.028L394.965 317.27C394.699 317.704 394.475 318.152 394.251 318.698H394.209L394.251 317.186V312.874L393.159 313.084V320ZM397.415 309.864C397.275 310.102 396.995 310.396 396.743 310.55C396.449 310.718 396.169 310.746 395.889 310.746C395.595 310.746 395.329 310.718 395.035 310.55C394.769 310.396 394.559 310.186 394.363 309.864L393.733 310.326C394.237 311.39 395.077 311.712 395.889 311.712C397.023 311.712 397.709 311.068 398.045 310.326L397.415 309.864Z" fill="#DF1E18"/>
<path d="M72.434 233V223.396H66.33V233H67.478V224.292H71.286V233H72.434ZM80.2877 229.71V229.542C80.2877 228.576 80.2037 228.044 80.0917 227.652C80.0497 227.526 79.8817 226.98 79.4897 226.588C79.1257 226.21 78.4537 225.86 77.5997 225.86C76.5077 225.86 75.8077 226.406 75.3877 226.98C74.7857 227.792 74.6737 228.716 74.6737 229.444C74.6737 230.41 74.8137 231.348 75.4997 232.174C75.8917 232.636 76.5637 233.168 77.7677 233.168C78.6357 233.168 79.4477 232.86 80.1197 232.286L79.6997 231.586C79.0837 232.16 78.3837 232.244 77.9917 232.244C77.2217 232.244 76.5777 231.922 76.2557 231.39C75.9337 230.872 75.9337 230.242 75.9337 229.864V229.71H80.2877ZM75.9337 228.87C75.9197 228.394 76.0457 227.764 76.2977 227.372C76.5637 226.952 76.9557 226.7 77.5437 226.7C78.1457 226.7 78.5937 226.994 78.8037 227.316C79.0557 227.708 79.1397 228.45 79.1257 228.87H75.9337ZM82.2405 226.042C82.3525 226.49 82.3945 226.91 82.3945 227.54V235.912L83.4865 235.702V232.37C84.0605 232.958 84.8305 233.168 85.4045 233.168C86.4965 233.168 87.2105 232.468 87.5605 231.908C88.0785 231.096 88.1205 230.13 88.1205 229.5C88.1205 228.324 87.8965 227.442 87.3505 226.756C87.1265 226.462 86.5665 225.86 85.4885 225.86C84.7885 225.86 83.9905 226.168 83.4305 226.91C83.4305 226.546 83.4025 226.196 83.3605 225.846L82.2405 226.042ZM83.4865 227.848C83.9625 227.19 84.6765 226.84 85.3485 226.84C86.1885 226.84 86.5105 227.386 86.6365 227.652C86.8185 228.03 86.9585 228.632 86.9585 229.766C86.9585 230.018 86.9445 230.83 86.6645 231.404C86.3985 231.936 85.8525 232.272 85.1945 232.272C84.4665 232.272 83.8505 231.782 83.4865 231.362V227.848ZM90.2252 226.084V233H98.1772V225.874L97.0852 226.084V232.188H94.7472V225.874L93.6552 226.084V232.188H91.3172V225.874L90.2252 226.084ZM105.895 229.71V229.542C105.895 228.576 105.811 228.044 105.699 227.652C105.657 227.526 105.489 226.98 105.097 226.588C104.733 226.21 104.061 225.86 103.207 225.86C102.115 225.86 101.415 226.406 100.995 226.98C100.393 227.792 100.281 228.716 100.281 229.444C100.281 230.41 100.421 231.348 101.107 232.174C101.499 232.636 102.171 233.168 103.375 233.168C104.243 233.168 105.055 232.86 105.727 232.286L105.307 231.586C104.691 232.16 103.991 232.244 103.599 232.244C102.829 232.244 102.185 231.922 101.863 231.39C101.541 230.872 101.541 230.242 101.541 229.864V229.71H105.895ZM101.541 228.87C101.527 228.394 101.653 227.764 101.905 227.372C102.171 226.952 102.563 226.7 103.151 226.7C103.753 226.7 104.201 226.994 104.411 227.316C104.663 227.708 104.747 228.45 104.733 228.87H101.541ZM108.954 229.696H111.978V233H113.07V225.874L111.978 226.084V228.856H108.954V225.874L107.862 226.084V233H108.954V229.696ZM115.45 233H116.57L119.104 228.744C119.384 228.282 119.594 227.876 119.818 227.358H119.86L119.818 228.842V233H120.91V225.874L119.79 226.028L117.256 230.27C116.99 230.704 116.766 231.152 116.542 231.698H116.5L116.542 230.186V225.874L115.45 226.084V233ZM128.618 229.71V229.542C128.618 228.576 128.534 228.044 128.422 227.652C128.38 227.526 128.212 226.98 127.82 226.588C127.456 226.21 126.784 225.86 125.93 225.86C124.838 225.86 124.138 226.406 123.718 226.98C123.116 227.792 123.004 228.716 123.004 229.444C123.004 230.41 123.144 231.348 123.83 232.174C124.222 232.636 124.894 233.168 126.098 233.168C126.966 233.168 127.778 232.86 128.45 232.286L128.03 231.586C127.414 232.16 126.714 232.244 126.322 232.244C125.552 232.244 124.908 231.922 124.586 231.39C124.264 230.872 124.264 230.242 124.264 229.864V229.71H128.618ZM124.264 228.87C124.25 228.394 124.376 227.764 124.628 227.372C124.894 226.952 125.286 226.7 125.874 226.7C126.476 226.7 126.924 226.994 127.134 227.316C127.386 227.708 127.47 228.45 127.456 228.87H124.264Z" fill="#DF1E18"/>
<path d="M165.774 82.228C164.934 82.228 163.814 82.494 162.988 83.516C162.54 84.076 161.91 85.168 161.91 87.198C161.91 89.228 162.54 90.32 162.988 90.88C163.814 91.902 164.934 92.168 165.774 92.168C166.614 92.168 167.734 91.902 168.56 90.88C169.008 90.32 169.638 89.228 169.638 87.198C169.638 85.168 169.008 84.076 168.56 83.516C167.734 82.494 166.614 82.228 165.774 82.228ZM165.774 83.124C166.642 83.124 167.328 83.488 167.79 84.272C168.042 84.692 168.35 85.49 168.35 87.198C168.35 88.906 168.042 89.704 167.79 90.124C167.328 90.908 166.642 91.272 165.774 91.272C164.906 91.272 164.22 90.908 163.758 90.124C163.506 89.704 163.198 88.906 163.198 87.198C163.198 85.49 163.506 84.692 163.758 84.272C164.22 83.488 164.906 83.124 165.774 83.124ZM172.825 85.868H175.695V92H176.787V85.028H171.733V92H172.825V85.868ZM179.268 84.818L178.19 85.182L179.688 89.55C179.842 89.998 180.22 91.3 180.388 92.056L180.836 91.986L180.78 92.196C180.556 93.05 180.304 93.414 180.15 93.582C179.94 93.82 179.604 94.03 179.226 94.128L179.548 94.87L179.73 94.814C180.206 94.66 180.626 94.394 180.976 93.96C181.354 93.484 181.606 92.84 181.802 92.252L184.196 85.028H182.95L181.578 89.606C181.452 90.04 181.354 90.348 181.144 91.076H181.116C181.018 90.53 180.864 89.886 180.696 89.34L179.268 84.818ZM190.601 92L187.927 88.136L189.999 85.028H188.725L187.381 87.352L185.995 85.028H184.651L186.807 88.136L184.203 92H185.491L187.381 89.032L189.271 92H190.601ZM196.934 91.482C196.43 91.244 196.36 90.838 196.36 90.292C196.36 90.138 196.374 89.956 196.374 89.774L196.43 87.478V87.156C196.43 86.764 196.402 86.302 196.276 85.938C196.108 85.476 195.618 84.846 194.302 84.846C193.756 84.846 193.238 84.944 192.79 85.098C192.314 85.266 191.81 85.532 191.418 85.784L191.964 86.568C192.286 86.316 192.594 86.148 192.944 86.008C193.238 85.896 193.7 85.742 194.19 85.742C194.47 85.742 194.834 85.784 195.1 86.092C195.324 86.358 195.352 86.624 195.352 86.932V87.702C195.212 87.688 195.058 87.688 194.876 87.688C194.092 87.688 192.972 87.8 192.16 88.332C191.474 88.794 191.166 89.424 191.166 90.194C191.166 91.412 191.992 92.168 193.406 92.168C193.924 92.168 194.652 92.056 195.422 91.244C195.548 91.734 195.898 92.112 196.374 92.266L196.934 91.482ZM195.282 90.278C194.904 91.006 194.204 91.356 193.574 91.356C193.196 91.356 192.888 91.23 192.692 91.034C192.538 90.88 192.384 90.6 192.384 90.096C192.384 89.802 192.426 89.312 192.818 88.948C193.252 88.528 194.12 88.43 194.764 88.43C194.904 88.43 195.03 88.43 195.142 88.444L195.324 88.458L195.282 90.278ZM200.018 88.696H203.042V92H204.134V84.874L203.042 85.084V87.856H200.018V84.874L198.926 85.084V92H200.018V88.696ZM206.514 92H207.634L210.168 87.744C210.448 87.282 210.658 86.876 210.882 86.358H210.924L210.882 87.842V92H211.974V84.874L210.854 85.028L208.32 89.27C208.054 89.704 207.83 90.152 207.606 90.698H207.564L207.606 89.186V84.874L206.514 85.084V92ZM219.682 88.71V88.542C219.682 87.576 219.598 87.044 219.486 86.652C219.444 86.526 219.276 85.98 218.884 85.588C218.52 85.21 217.848 84.86 216.994 84.86C215.902 84.86 215.202 85.406 214.782 85.98C214.18 86.792 214.068 87.716 214.068 88.444C214.068 89.41 214.208 90.348 214.894 91.174C215.286 91.636 215.958 92.168 217.162 92.168C218.03 92.168 218.842 91.86 219.514 91.286L219.094 90.586C218.478 91.16 217.778 91.244 217.386 91.244C216.616 91.244 215.972 90.922 215.65 90.39C215.328 89.872 215.328 89.242 215.328 88.864V88.71H219.682ZM215.328 87.87C215.314 87.394 215.44 86.764 215.692 86.372C215.958 85.952 216.35 85.7 216.938 85.7C217.54 85.7 217.988 85.994 218.198 86.316C218.45 86.708 218.534 87.45 218.52 87.87H215.328Z" fill="#DF1E18"/>
<path d="M546.774 96.228C545.934 96.228 544.814 96.494 543.988 97.516C543.54 98.076 542.91 99.168 542.91 101.198C542.91 103.228 543.54 104.32 543.988 104.88C544.814 105.902 545.934 106.168 546.774 106.168C547.614 106.168 548.734 105.902 549.56 104.88C550.008 104.32 550.638 103.228 550.638 101.198C550.638 99.168 550.008 98.076 549.56 97.516C548.734 96.494 547.614 96.228 546.774 96.228ZM546.774 97.124C547.642 97.124 548.328 97.488 548.79 98.272C549.042 98.692 549.35 99.49 549.35 101.198C549.35 102.906 549.042 103.704 548.79 104.124C548.328 104.908 547.642 105.272 546.774 105.272C545.906 105.272 545.22 104.908 544.758 104.124C544.506 103.704 544.198 102.906 544.198 101.198C544.198 99.49 544.506 98.692 544.758 98.272C545.22 97.488 545.906 97.124 546.774 97.124ZM557.787 95.192L556.835 95.654L554.959 96.494C553.867 96.984 553.251 97.67 552.915 98.496C552.593 99.252 552.453 100.288 552.453 102.024C552.453 102.976 552.481 104.264 553.251 105.188C553.713 105.748 554.483 106.168 555.463 106.168C556.429 106.168 557.227 105.748 557.675 105.216C558.235 104.572 558.473 103.55 558.473 102.612C558.473 101.66 558.221 100.638 557.717 99.994C557.353 99.518 556.653 99.028 555.575 99.028C555.127 99.028 554.679 99.14 554.231 99.434C553.839 99.686 553.601 99.994 553.461 100.246L553.391 100.232L553.433 99.798C553.475 99.364 553.629 98.888 553.825 98.566C554.091 98.104 554.413 97.88 554.819 97.698L556.835 96.788C557.241 96.606 557.507 96.508 558.235 96.102L557.787 95.192ZM555.463 99.924C556.331 99.924 556.765 100.47 556.933 100.792C557.087 101.072 557.255 101.576 557.255 102.612C557.255 103.634 557.087 104.138 556.933 104.418C556.695 104.838 556.219 105.272 555.463 105.272C554.707 105.272 554.231 104.838 553.993 104.418C553.839 104.138 553.671 103.634 553.671 102.612C553.671 101.576 553.839 101.072 553.993 100.792C554.161 100.47 554.595 99.924 555.463 99.924ZM561.039 99.028L560.885 100.68C560.843 101.198 560.857 101.282 560.619 103.186C560.437 104.642 560.297 104.922 559.877 105.174C559.751 105.244 559.639 105.3 559.471 105.356L559.205 105.44L559.387 106.126L559.849 106.084C560.017 106.07 560.507 106.014 560.857 105.706C561.235 105.384 561.305 104.978 561.431 104.348C561.515 103.928 561.585 103.494 561.641 103.004C561.697 102.556 561.837 101.394 561.865 100.946L561.949 99.868H563.755V106H564.847V99.028H561.039ZM572.559 102.71V102.542C572.559 101.576 572.475 101.044 572.363 100.652C572.321 100.526 572.153 99.98 571.761 99.588C571.397 99.21 570.725 98.86 569.871 98.86C568.779 98.86 568.079 99.406 567.659 99.98C567.057 100.792 566.945 101.716 566.945 102.444C566.945 103.41 567.085 104.348 567.771 105.174C568.163 105.636 568.835 106.168 570.039 106.168C570.907 106.168 571.719 105.86 572.391 105.286L571.971 104.586C571.355 105.16 570.655 105.244 570.263 105.244C569.493 105.244 568.849 104.922 568.527 104.39C568.205 103.872 568.205 103.242 568.205 102.864V102.71H572.559ZM568.205 101.87C568.191 101.394 568.317 100.764 568.569 100.372C568.835 99.952 569.227 99.7 569.815 99.7C570.417 99.7 570.865 99.994 571.075 100.316C571.327 100.708 571.411 101.45 571.397 101.87H568.205ZM575.66 100.008H578.376L578.53 99.028H574.568V106H575.66V100.008ZM580.738 98.874L579.646 99.084V101.338C579.646 101.772 579.66 102.276 580.08 102.738C580.584 103.298 581.382 103.396 581.914 103.396C582.516 103.396 582.838 103.34 583.496 103.102V106H584.588V98.874L583.496 99.084V102.276C583.076 102.486 582.544 102.556 582.096 102.556C581.788 102.556 581.354 102.486 581.102 102.304C580.766 102.052 580.738 101.688 580.738 101.52V98.874ZM592.301 102.71V102.542C592.301 101.576 592.217 101.044 592.105 100.652C592.063 100.526 591.895 99.98 591.503 99.588C591.139 99.21 590.467 98.86 589.613 98.86C588.521 98.86 587.821 99.406 587.401 99.98C586.799 100.792 586.687 101.716 586.687 102.444C586.687 103.41 586.827 104.348 587.513 105.174C587.905 105.636 588.577 106.168 589.781 106.168C590.649 106.168 591.461 105.86 592.133 105.286L591.713 104.586C591.097 105.16 590.397 105.244 590.005 105.244C589.235 105.244 588.591 104.922 588.269 104.39C587.947 103.872 587.947 103.242 587.947 102.864V102.71L592.301 102.71ZM587.947 101.87C587.933 101.394 588.059 100.764 588.311 100.372C588.577 99.952 588.969 99.7 589.557 99.7C590.159 99.7 590.607 99.994 590.817 100.316C591.069 100.708 591.153 101.45 591.139 101.87H587.947ZM595.36 102.696H598.384V106H599.476V98.874L598.384 99.084V101.856H595.36V98.874L594.268 99.084V106H595.36V102.696ZM601.856 106H602.976L605.51 101.744C605.79 101.282 606 100.876 606.224 100.358H606.266L606.224 101.842V106H607.316V98.874L606.196 99.028L603.662 103.27C603.396 103.704 603.172 104.152 602.948 104.698H602.906L602.948 103.186V98.874L601.856 99.084V106ZM615.024 102.71V102.542C615.024 101.576 614.94 101.044 614.828 100.652C614.786 100.526 614.618 99.98 614.226 99.588C613.862 99.21 613.19 98.86 612.336 98.86C611.244 98.86 610.544 99.406 610.124 99.98C609.522 100.792 609.41 101.716 609.41 102.444C609.41 103.41 609.55 104.348 610.236 105.174C610.628 105.636 611.3 106.168 612.504 106.168C613.372 106.168 614.184 105.86 614.856 105.286L614.436 104.586C613.82 105.16 613.12 105.244 612.728 105.244C611.958 105.244 611.314 104.922 610.992 104.39C610.67 103.872 610.67 103.242 610.67 102.864V102.71H615.024ZM610.67 101.87C610.656 101.394 610.782 100.764 611.034 100.372C611.3 99.952 611.692 99.7 612.28 99.7C612.882 99.7 613.33 99.994 613.54 100.316C613.792 100.708 613.876 101.45 613.862 101.87H610.67ZM625.271 95.192L624.319 95.654L622.443 96.494C621.351 96.984 620.735 97.67 620.399 98.496C620.077 99.252 619.937 100.288 619.937 102.024C619.937 102.976 619.965 104.264 620.735 105.188C621.197 105.748 621.967 106.168 622.947 106.168C623.913 106.168 624.711 105.748 625.159 105.216C625.719 104.572 625.957 103.55 625.957 102.612C625.957 101.66 625.705 100.638 625.201 99.994C624.837 99.518 624.137 99.028 623.059 99.028C622.611 99.028 622.163 99.14 621.715 99.434C621.323 99.686 621.085 99.994 620.945 100.246L620.875 100.232L620.917 99.798C620.959 99.364 621.113 98.888 621.309 98.566C621.575 98.104 621.897 97.88 622.303 97.698L624.319 96.788C624.725 96.606 624.991 96.508 625.719 96.102L625.271 95.192ZM622.947 99.924C623.815 99.924 624.249 100.47 624.417 100.792C624.571 101.072 624.739 101.576 624.739 102.612C624.739 103.634 624.571 104.138 624.417 104.418C624.179 104.838 623.703 105.272 622.947 105.272C622.191 105.272 621.715 104.838 621.477 104.418C621.323 104.138 621.155 103.634 621.155 102.612C621.155 101.576 621.323 101.072 621.477 100.792C621.645 100.47 622.079 99.924 622.947 99.924ZM630.643 98.86C629.845 98.86 628.963 99.21 628.431 99.84C627.871 100.498 627.633 101.548 627.633 102.514C627.633 103.662 627.927 104.586 628.431 105.174C628.977 105.832 629.831 106.168 630.643 106.168C631.455 106.168 632.309 105.832 632.855 105.174C633.359 104.586 633.653 103.662 633.653 102.514C633.653 101.548 633.415 100.498 632.855 99.84C632.323 99.21 631.441 98.86 630.643 98.86ZM630.643 99.756C631.511 99.756 631.931 100.302 632.113 100.638C632.225 100.848 632.435 101.338 632.435 102.514C632.435 103.69 632.225 104.18 632.113 104.39C631.931 104.726 631.511 105.272 630.643 105.272C629.775 105.272 629.355 104.726 629.173 104.39C629.061 104.18 628.851 103.69 628.851 102.514C628.851 101.338 629.061 100.848 629.173 100.638C629.355 100.302 629.775 99.756 630.643 99.756ZM636.234 99.028L636.08 100.68C636.038 101.198 636.052 101.282 635.814 103.186C635.632 104.642 635.492 104.922 635.072 105.174C634.946 105.244 634.834 105.3 634.666 105.356L634.4 105.44L634.582 106.126L635.044 106.084C635.212 106.07 635.702 106.014 636.052 105.706C636.43 105.384 636.5 104.978 636.626 104.348C636.71 103.928 636.78 103.494 636.836 103.004C636.892 102.556 637.032 101.394 637.06 100.946L637.144 99.868H638.95V106H640.042V99.028H636.234ZM642.42 106H643.54L646.074 101.744C646.354 101.282 646.564 100.876 646.788 100.358H646.83L646.788 101.842V106H647.88V98.874L646.76 99.028L644.226 103.27C643.96 103.704 643.736 104.152 643.512 104.698H643.47L643.512 103.186V98.874L642.42 99.084V106ZM653.523 99.028V106H656.351C656.785 106 657.597 105.944 658.143 105.44C658.395 105.202 658.717 104.754 658.717 104.012C658.717 103.508 658.591 103.116 658.283 102.808C658.031 102.542 657.667 102.374 657.317 102.304C657.653 102.192 657.877 102.01 658.003 101.87C658.255 101.59 658.395 101.254 658.395 100.82C658.395 100.442 658.297 99.77 657.681 99.364C657.233 99.07 656.771 99.028 656.281 99.028H653.523ZM654.615 102.766H656.337C656.673 102.766 656.995 102.864 657.205 103.018C657.555 103.284 657.611 103.662 657.611 103.97C657.611 104.502 657.401 104.768 657.303 104.866C657.135 105.034 656.841 105.188 656.337 105.188H654.615V102.766ZM654.615 99.84H656.281C656.589 99.84 656.855 99.938 657.023 100.092C657.177 100.232 657.345 100.484 657.345 100.918C657.345 101.282 657.219 101.506 657.093 101.646C656.897 101.856 656.547 101.982 656.253 101.982H654.615V99.84ZM665.101 100.008H667.817L667.971 99.028H664.009V106H665.101V100.008ZM671.467 98.86C670.669 98.86 669.787 99.21 669.255 99.84C668.695 100.498 668.457 101.548 668.457 102.514C668.457 103.662 668.751 104.586 669.255 105.174C669.801 105.832 670.655 106.168 671.467 106.168C672.279 106.168 673.133 105.832 673.679 105.174C674.183 104.586 674.477 103.662 674.477 102.514C674.477 101.548 674.239 100.498 673.679 99.84C673.147 99.21 672.265 98.86 671.467 98.86ZM671.467 99.756C672.335 99.756 672.755 100.302 672.937 100.638C673.049 100.848 673.259 101.338 673.259 102.514C673.259 103.69 673.049 104.18 672.937 104.39C672.755 104.726 672.335 105.272 671.467 105.272C670.599 105.272 670.179 104.726 669.997 104.39C669.885 104.18 669.675 103.69 669.675 102.514C669.675 101.338 669.885 100.848 669.997 100.638C670.179 100.302 670.599 99.756 671.467 99.756ZM676.49 99.042C676.602 99.49 676.644 99.91 676.644 100.54V108.912L677.736 108.702V105.37C678.31 105.958 679.08 106.168 679.654 106.168C680.746 106.168 681.46 105.468 681.81 104.908C682.328 104.096 682.37 103.13 682.37 102.5C682.37 101.324 682.146 100.442 681.6 99.756C681.376 99.462 680.816 98.86 679.738 98.86C679.038 98.86 678.24 99.168 677.68 99.91C677.68 99.546 677.652 99.196 677.61 98.846L676.49 99.042ZM677.736 100.848C678.212 100.19 678.926 99.84 679.598 99.84C680.438 99.84 680.76 100.386 680.886 100.652C681.068 101.03 681.208 101.632 681.208 102.766C681.208 103.018 681.194 103.83 680.914 104.404C680.648 104.936 680.102 105.272 679.444 105.272C678.716 105.272 678.1 104.782 677.736 104.362V100.848ZM685.371 99.028L685.217 100.68C685.175 101.198 685.189 101.282 684.951 103.186C684.769 104.642 684.629 104.922 684.209 105.174C684.083 105.244 683.971 105.3 683.803 105.356L683.537 105.44L683.719 106.126L684.181 106.084C684.349 106.07 684.839 106.014 685.189 105.706C685.567 105.384 685.637 104.978 685.763 104.348C685.847 103.928 685.917 103.494 685.973 103.004C686.029 102.556 686.169 101.394 686.197 100.946L686.281 99.868H688.087V106H689.179V99.028H685.371ZM696.891 102.71V102.542C696.891 101.576 696.807 101.044 696.695 100.652C696.653 100.526 696.485 99.98 696.093 99.588C695.729 99.21 695.057 98.86 694.203 98.86C693.111 98.86 692.411 99.406 691.991 99.98C691.389 100.792 691.277 101.716 691.277 102.444C691.277 103.41 691.417 104.348 692.103 105.174C692.495 105.636 693.167 106.168 694.371 106.168C695.239 106.168 696.051 105.86 696.723 105.286L696.303 104.586C695.687 105.16 694.987 105.244 694.595 105.244C693.825 105.244 693.181 104.922 692.859 104.39C692.537 103.872 692.537 103.242 692.537 102.864V102.71H696.891ZM692.537 101.87C692.523 101.394 692.649 100.764 692.901 100.372C693.167 99.952 693.559 99.7 694.147 99.7C694.749 99.7 695.197 99.994 695.407 100.316C695.659 100.708 695.743 101.45 695.729 101.87H692.537Z" fill="#DF1E18"/>
<path d="M466.808 59C468.068 59 469.076 58.986 469.86 58.216C470.266 57.824 470.616 57.166 470.616 56.27C470.616 55.206 470.182 54.394 469.552 53.946C468.782 53.4 467.718 53.372 467.06 53.372H465.478V50.376H469.594L469.748 49.396H464.33V59H466.808ZM465.478 58.062V54.31H467.13C467.704 54.31 468.306 54.31 468.782 54.688C469.174 54.996 469.412 55.57 469.412 56.256C469.412 56.844 469.216 57.334 468.908 57.628C468.488 58.034 467.928 58.062 467.48 58.062H465.478ZM475.231 51.86C474.433 51.86 473.551 52.21 473.019 52.84C472.459 53.498 472.221 54.548 472.221 55.514C472.221 56.662 472.515 57.586 473.019 58.174C473.565 58.832 474.419 59.168 475.231 59.168C476.043 59.168 476.897 58.832 477.443 58.174C477.947 57.586 478.241 56.662 478.241 55.514C478.241 54.548 478.003 53.498 477.443 52.84C476.911 52.21 476.029 51.86 475.231 51.86ZM475.231 52.756C476.099 52.756 476.519 53.302 476.701 53.638C476.813 53.848 477.023 54.338 477.023 55.514C477.023 56.69 476.813 57.18 476.701 57.39C476.519 57.726 476.099 58.272 475.231 58.272C474.363 58.272 473.943 57.726 473.761 57.39C473.649 57.18 473.439 56.69 473.439 55.514C473.439 54.338 473.649 53.848 473.761 53.638C473.943 53.302 474.363 52.756 475.231 52.756ZM480.822 52.028L480.668 53.68C480.626 54.198 480.64 54.282 480.402 56.186C480.22 57.642 480.08 57.922 479.66 58.174C479.534 58.244 479.422 58.3 479.254 58.356L478.988 58.44L479.17 59.126L479.632 59.084C479.8 59.07 480.29 59.014 480.64 58.706C481.018 58.384 481.088 57.978 481.214 57.348C481.298 56.928 481.368 56.494 481.424 56.004C481.48 55.556 481.62 54.394 481.648 53.946L481.732 52.868H483.538V59H484.63V52.028H480.822ZM488.1 51.874L487.008 52.084V59H489.654C490.242 59 490.844 58.902 491.362 58.482C491.922 58.034 492.076 57.474 492.076 56.886C492.076 56.27 491.922 55.752 491.432 55.332C490.746 54.73 489.822 54.716 489.15 54.716H488.1V51.874ZM488.086 55.556H489.36C489.766 55.556 490.2 55.57 490.55 55.878C490.802 56.088 490.942 56.41 490.942 56.872C490.942 57.236 490.816 57.572 490.522 57.824C490.34 57.978 490.004 58.16 489.5 58.16H488.086V55.556Z" fill="#DF1E18"/>
<path d="M587.628 320V318.446H587.852C588.832 318.446 589.63 318.138 590.134 317.718C591.114 316.892 591.198 315.52 591.198 314.848C591.198 314.176 591.114 312.804 590.134 311.978C589.63 311.558 588.832 311.25 587.852 311.25H587.628V309.836H586.48V311.25H586.256C585.276 311.25 584.478 311.558 583.974 311.978C582.994 312.804 582.91 314.176 582.91 314.848C582.91 315.52 582.994 316.892 583.974 317.718C584.478 318.138 585.276 318.446 586.256 318.446H586.48V320H587.628ZM587.6 312.048H587.824C588.328 312.048 588.93 312.118 589.392 312.566C590.036 313.182 590.022 314.092 590.022 314.848C590.022 315.604 590.036 316.514 589.392 317.13C588.93 317.578 588.328 317.648 587.824 317.648H587.6V312.048ZM586.508 312.048V317.648H586.284C585.78 317.648 585.178 317.578 584.716 317.13C584.072 316.514 584.086 315.604 584.086 314.848C584.086 314.092 584.072 313.182 584.716 312.566C585.178 312.118 585.78 312.048 586.284 312.048H586.508ZM598.712 319.482C598.208 319.244 598.138 318.838 598.138 318.292C598.138 318.138 598.152 317.956 598.152 317.774L598.208 315.478V315.156C598.208 314.764 598.18 314.302 598.054 313.938C597.886 313.476 597.396 312.846 596.08 312.846C595.534 312.846 595.016 312.944 594.568 313.098C594.092 313.266 593.588 313.532 593.196 313.784L593.742 314.568C594.064 314.316 594.372 314.148 594.722 314.008C595.016 313.896 595.478 313.742 595.968 313.742C596.248 313.742 596.612 313.784 596.878 314.092C597.102 314.358 597.13 314.624 597.13 314.932V315.702C596.99 315.688 596.836 315.688 596.654 315.688C595.87 315.688 594.75 315.8 593.938 316.332C593.252 316.794 592.944 317.424 592.944 318.194C592.944 319.412 593.77 320.168 595.184 320.168C595.702 320.168 596.43 320.056 597.2 319.244C597.326 319.734 597.676 320.112 598.152 320.266L598.712 319.482ZM597.06 318.278C596.682 319.006 595.982 319.356 595.352 319.356C594.974 319.356 594.666 319.23 594.47 319.034C594.316 318.88 594.162 318.6 594.162 318.096C594.162 317.802 594.204 317.312 594.596 316.948C595.03 316.528 595.898 316.43 596.542 316.43C596.682 316.43 596.808 316.43 596.92 316.444L597.102 316.458L597.06 318.278ZM601.502 315.898V316.738H602.216C602.566 316.738 603 316.78 603.322 316.99C603.672 317.214 603.784 317.55 603.784 317.998C603.784 318.474 603.588 318.754 603.42 318.908C603.21 319.104 602.846 319.272 602.23 319.272C601.922 319.272 601.166 319.23 600.284 318.628L599.864 319.44C600.452 319.818 601.292 320.168 602.286 320.168C602.832 320.168 603.504 320.056 604.008 319.748C604.33 319.552 604.988 319.034 604.988 317.984C604.988 317.396 604.736 317.032 604.512 316.808C604.246 316.556 603.854 316.346 603.476 316.262C603.84 316.15 604.218 315.926 604.428 315.688C604.666 315.408 604.792 315.03 604.792 314.68C604.792 314.134 604.54 313.63 604.106 313.308C603.686 313 603.07 312.86 602.44 312.86C601.95 312.86 601.516 312.944 601.124 313.056C600.76 313.168 600.466 313.294 600.172 313.476L600.578 314.246C600.788 314.106 601.04 313.994 601.278 313.91C601.572 313.812 601.95 313.756 602.3 313.756C602.622 313.756 603.042 313.826 603.294 314.008C603.462 314.134 603.658 314.372 603.658 314.75C603.658 315.114 603.49 315.45 603.28 315.618C603.042 315.8 602.496 315.898 602.104 315.898H601.502ZM612.206 319.482C611.702 319.244 611.632 318.838 611.632 318.292C611.632 318.138 611.646 317.956 611.646 317.774L611.702 315.478V315.156C611.702 314.764 611.674 314.302 611.548 313.938C611.38 313.476 610.89 312.846 609.574 312.846C609.028 312.846 608.51 312.944 608.062 313.098C607.586 313.266 607.082 313.532 606.69 313.784L607.236 314.568C607.558 314.316 607.866 314.148 608.216 314.008C608.51 313.896 608.972 313.742 609.462 313.742C609.742 313.742 610.106 313.784 610.372 314.092C610.596 314.358 610.624 314.624 610.624 314.932V315.702C610.484 315.688 610.33 315.688 610.148 315.688C609.364 315.688 608.244 315.8 607.432 316.332C606.746 316.794 606.438 317.424 606.438 318.194C606.438 319.412 607.264 320.168 608.678 320.168C609.196 320.168 609.924 320.056 610.694 319.244C610.82 319.734 611.17 320.112 611.646 320.266L612.206 319.482ZM610.554 318.278C610.176 319.006 609.476 319.356 608.846 319.356C608.468 319.356 608.16 319.23 607.964 319.034C607.81 318.88 607.656 318.6 607.656 318.096C607.656 317.802 607.698 317.312 608.09 316.948C608.524 316.528 609.392 316.43 610.036 316.43C610.176 316.43 610.302 316.43 610.414 316.444L610.596 316.458L610.554 318.278ZM617.41 313.042C617.522 313.49 617.564 313.91 617.564 314.54V322.912L618.656 322.702V319.37C619.23 319.958 620 320.168 620.574 320.168C621.666 320.168 622.38 319.468 622.73 318.908C623.248 318.096 623.29 317.13 623.29 316.5C623.29 315.324 623.066 314.442 622.52 313.756C622.296 313.462 621.736 312.86 620.658 312.86C619.958 312.86 619.16 313.168 618.6 313.91C618.6 313.546 618.572 313.196 618.53 312.846L617.41 313.042ZM618.656 314.848C619.132 314.19 619.846 313.84 620.518 313.84C621.358 313.84 621.68 314.386 621.806 314.652C621.988 315.03 622.128 315.632 622.128 316.766C622.128 317.018 622.114 317.83 621.834 318.404C621.568 318.936 621.022 319.272 620.364 319.272C619.636 319.272 619.02 318.782 618.656 318.362V314.848ZM630.581 319.482C630.077 319.244 630.007 318.838 630.007 318.292C630.007 318.138 630.021 317.956 630.021 317.774L630.077 315.478V315.156C630.077 314.764 630.049 314.302 629.923 313.938C629.755 313.476 629.265 312.846 627.949 312.846C627.403 312.846 626.885 312.944 626.437 313.098C625.961 313.266 625.457 313.532 625.065 313.784L625.611 314.568C625.933 314.316 626.241 314.148 626.591 314.008C626.885 313.896 627.347 313.742 627.837 313.742C628.117 313.742 628.481 313.784 628.747 314.092C628.971 314.358 628.999 314.624 628.999 314.932V315.702C628.859 315.688 628.705 315.688 628.523 315.688C627.739 315.688 626.619 315.8 625.807 316.332C625.121 316.794 624.813 317.424 624.813 318.194C624.813 319.412 625.639 320.168 627.053 320.168C627.571 320.168 628.299 320.056 629.069 319.244C629.195 319.734 629.545 320.112 630.021 320.266L630.581 319.482ZM628.929 318.278C628.551 319.006 627.851 319.356 627.221 319.356C626.843 319.356 626.535 319.23 626.339 319.034C626.185 318.88 626.031 318.6 626.031 318.096C626.031 317.802 626.073 317.312 626.465 316.948C626.899 316.528 627.767 316.43 628.411 316.43C628.551 316.43 628.677 316.43 628.789 316.444L628.971 316.458L628.929 318.278ZM633.371 315.898V316.738H634.085C634.435 316.738 634.869 316.78 635.191 316.99C635.541 317.214 635.653 317.55 635.653 317.998C635.653 318.474 635.457 318.754 635.289 318.908C635.079 319.104 634.715 319.272 634.099 319.272C633.791 319.272 633.035 319.23 632.153 318.628L631.733 319.44C632.321 319.818 633.161 320.168 634.155 320.168C634.701 320.168 635.373 320.056 635.877 319.748C636.199 319.552 636.857 319.034 636.857 317.984C636.857 317.396 636.605 317.032 636.381 316.808C636.115 316.556 635.723 316.346 635.345 316.262C635.709 316.15 636.087 315.926 636.297 315.688C636.535 315.408 636.661 315.03 636.661 314.68C636.661 314.134 636.409 313.63 635.975 313.308C635.555 313 634.939 312.86 634.309 312.86C633.819 312.86 633.385 312.944 632.993 313.056C632.629 313.168 632.335 313.294 632.041 313.476L632.447 314.246C632.657 314.106 632.909 313.994 633.147 313.91C633.441 313.812 633.819 313.756 634.169 313.756C634.491 313.756 634.911 313.826 635.163 314.008C635.331 314.134 635.527 314.372 635.527 314.75C635.527 315.114 635.359 315.45 635.149 315.618C634.911 315.8 634.365 315.898 633.973 315.898H633.371ZM638.807 313.042C638.919 313.49 638.961 313.91 638.961 314.54V322.912L640.053 322.702V319.37C640.627 319.958 641.397 320.168 641.971 320.168C643.063 320.168 643.777 319.468 644.127 318.908C644.645 318.096 644.687 317.13 644.687 316.5C644.687 315.324 644.463 314.442 643.917 313.756C643.693 313.462 643.133 312.86 642.055 312.86C641.355 312.86 640.557 313.168 639.997 313.91C639.997 313.546 639.969 313.196 639.927 312.846L638.807 313.042ZM640.053 314.848C640.529 314.19 641.243 313.84 641.915 313.84C642.755 313.84 643.077 314.386 643.203 314.652C643.385 315.03 643.525 315.632 643.525 316.766C643.525 317.018 643.511 317.83 643.231 318.404C642.965 318.936 642.419 319.272 641.761 319.272C641.033 319.272 640.417 318.782 640.053 318.362V314.848ZM651.907 316.71V316.542C651.907 315.576 651.823 315.044 651.711 314.652C651.669 314.526 651.501 313.98 651.109 313.588C650.745 313.21 650.073 312.86 649.219 312.86C648.127 312.86 647.427 313.406 647.007 313.98C646.405 314.792 646.293 315.716 646.293 316.444C646.293 317.41 646.433 318.348 647.119 319.174C647.511 319.636 648.183 320.168 649.387 320.168C650.255 320.168 651.067 319.86 651.739 319.286L651.319 318.586C650.703 319.16 650.003 319.244 649.611 319.244C648.841 319.244 648.197 318.922 647.875 318.39C647.553 317.872 647.553 317.242 647.553 316.864V316.71H651.907ZM647.553 315.87C647.539 315.394 647.665 314.764 647.917 314.372C648.183 313.952 648.575 313.7 649.163 313.7C649.765 313.7 650.213 313.994 650.423 314.316C650.675 314.708 650.759 315.45 650.745 315.87H647.553ZM653.874 313.084V320H661.826V312.874L660.734 313.084V319.188H658.396V312.874L657.304 313.084V319.188H654.966V312.874L653.874 313.084ZM669.544 316.71V316.542C669.544 315.576 669.46 315.044 669.348 314.652C669.306 314.526 669.138 313.98 668.746 313.588C668.382 313.21 667.71 312.86 666.856 312.86C665.764 312.86 665.064 313.406 664.644 313.98C664.042 314.792 663.93 315.716 663.93 316.444C663.93 317.41 664.07 318.348 664.756 319.174C665.148 319.636 665.82 320.168 667.024 320.168C667.892 320.168 668.704 319.86 669.376 319.286L668.956 318.586C668.34 319.16 667.64 319.244 667.248 319.244C666.478 319.244 665.834 318.922 665.512 318.39C665.19 317.872 665.19 317.242 665.19 316.864V316.71H669.544ZM665.19 315.87C665.176 315.394 665.302 314.764 665.554 314.372C665.82 313.952 666.212 313.7 666.8 313.7C667.402 313.7 667.85 313.994 668.06 314.316C668.312 314.708 668.396 315.45 668.382 315.87H665.19ZM672.602 316.696H675.626V320H676.718V312.874L675.626 313.084V315.856H672.602V312.874L671.51 313.084V320H672.602V316.696ZM679.098 320H680.218L682.752 315.744C683.032 315.282 683.242 314.876 683.466 314.358H683.508L683.466 315.842V320H684.558V312.874L683.438 313.028L680.904 317.27C680.638 317.704 680.414 318.152 680.19 318.698H680.148L680.19 317.186V312.874L679.098 313.084V320ZM689.312 313.028C688.71 313.028 688.08 313.042 687.492 313.518C686.918 313.98 686.806 314.568 686.806 314.96C686.806 315.352 686.974 315.786 687.254 316.066C687.548 316.36 687.996 316.528 688.36 316.57V316.598C688.108 316.682 687.954 316.822 687.856 316.934C687.688 317.144 687.534 317.494 687.492 317.62L687.1 318.642C687.016 318.866 686.974 319.02 686.778 319.16C686.694 319.216 686.47 319.328 686.358 319.356L686.092 319.44L686.274 320.126L686.848 320.084C687.436 320.042 687.688 319.874 687.842 319.706C688.024 319.496 688.136 319.188 688.234 318.838L688.514 317.886C688.584 317.648 688.682 317.382 688.892 317.2C689.13 316.99 689.368 316.99 689.592 316.99H690.544V320H691.636V313.028H689.312ZM690.544 316.15H689.438C689.102 316.15 688.626 316.122 688.304 315.856C688.038 315.646 687.954 315.366 687.954 315.002C687.954 314.666 688.052 314.372 688.22 314.19C688.5 313.882 688.934 313.868 689.326 313.868H690.544V316.15Z" fill="#20384E"/>
<line x1="143.5" y1="333.5" x2="603.5" y2="333.5" stroke="#DF1E18" stroke-linecap="round" stroke-dasharray="10 10"/>
</svg>
