<svg width="159" height="40" viewBox="0 0 159 40" fill="none" xmlns="http://www.w3.org/2000/svg">
<g clip-path="url(#clip0)">
<path fill-rule="evenodd" clip-rule="evenodd" d="M138.265 5.08497C138.265 5.17062 138.25 5.24955 138.215 5.32008C138.181 5.39061 138.127 5.4561 138.056 5.51488C137.922 5.63411 137.728 5.69289 137.475 5.69289H137.221L137.437 4.67018H137.745C137.921 4.67018 138.051 4.70544 138.137 4.7743C138.223 4.84315 138.265 4.94727 138.265 5.08497ZM137.796 6.02708C137.86 6.02708 137.922 6.02036 137.986 6.00525C138.049 5.99013 138.11 5.9683 138.169 5.93807C138.23 5.91288 138.284 5.88097 138.34 5.84403C138.392 5.80708 138.443 5.7651 138.492 5.7164C138.588 5.62068 138.662 5.51488 138.708 5.39901C138.757 5.28313 138.78 5.1555 138.78 5.01948C138.78 4.50728 138.439 4.25202 137.762 4.24866H137.039L136.36 7.41253H136.853L137.15 6.04219C137.193 6.04219 137.231 6.05395 137.27 6.08082C137.307 6.10768 137.346 6.14631 137.383 6.19669C137.463 6.30417 137.554 6.46538 137.664 6.6753C137.77 6.88689 137.897 7.15223 138.039 7.4713L138.478 7.33863C138.432 7.21604 138.389 7.09849 138.343 6.9843C138.297 6.86842 138.248 6.76094 138.196 6.65683C138.117 6.49897 138.046 6.3663 137.98 6.26218C137.909 6.15639 137.846 6.07746 137.796 6.02708ZM134.777 5.86418C134.753 5.97166 134.74 6.07746 134.726 6.1799C134.716 6.28066 134.711 6.37974 134.711 6.4721C134.711 6.78781 134.763 7.07498 134.87 7.3336C134.978 7.59389 135.138 7.82228 135.349 8.02212C135.774 8.4218 136.312 8.62164 136.959 8.62164C137.187 8.62164 137.405 8.60653 137.613 8.57294C137.823 8.53768 138.022 8.48898 138.208 8.4218C138.394 8.35631 138.569 8.27234 138.738 8.17326C138.904 8.07418 139.064 7.95831 139.215 7.83068C139.498 7.58214 139.733 7.29665 139.916 6.9675C140.103 6.64171 140.24 6.27394 140.324 5.86586C140.346 5.76174 140.363 5.66098 140.375 5.56022C140.387 5.46114 140.39 5.36542 140.39 5.27306C140.39 4.95734 140.338 4.67018 140.233 4.41156C140.127 4.15126 139.971 3.91952 139.757 3.71632C139.547 3.51312 139.306 3.36198 139.037 3.25954C138.767 3.15878 138.468 3.1084 138.142 3.1084C137.285 3.11008 136.546 3.37373 135.927 3.90104C135.628 4.1563 135.385 4.44683 135.194 4.7743C135.001 5.10009 134.861 5.46282 134.777 5.86418ZM135.267 5.86418C135.343 5.52664 135.463 5.21764 135.63 4.93551C135.797 4.65338 136.01 4.3998 136.267 4.17477C136.782 3.72975 137.38 3.5064 138.056 3.5064C138.326 3.50808 138.573 3.55006 138.796 3.63403C139.015 3.71968 139.213 3.84395 139.384 4.01188C139.551 4.17813 139.679 4.36958 139.764 4.58453C139.85 4.80116 139.89 5.04299 139.892 5.30832C139.892 5.39061 139.885 5.47794 139.877 5.56862C139.868 5.66266 139.853 5.76006 139.83 5.86418C139.753 6.21348 139.632 6.52584 139.473 6.80461C139.314 7.08338 139.113 7.32856 138.877 7.53848C138.62 7.76854 138.34 7.93984 138.034 8.05067C137.728 8.16487 137.399 8.22196 137.049 8.22196C136.777 8.22196 136.53 8.17998 136.306 8.09769C136.083 8.01541 135.885 7.89114 135.714 7.7232C135.547 7.55695 135.419 7.3655 135.334 7.15055C135.25 6.93392 135.206 6.69545 135.206 6.42676C135.206 6.34111 135.211 6.25379 135.219 6.15806C135.228 6.0657 135.245 5.96662 135.267 5.86418Z" fill="#20384E"/>
<path d="M19.2886 13.6889C19.5606 13.7695 20.1062 13.7964 20.9508 13.7964C23.1604 13.7964 24.8768 13.3094 26.1319 12.3051C27.36 11.3294 27.9868 10.164 27.9868 8.83564C27.9868 7.48042 27.4682 6.44931 26.4326 5.77254C25.5322 5.14783 24.2771 4.85059 22.6706 4.85059C20.1332 4.85059 18.1162 5.79941 16.5908 7.69705C15.1177 9.51241 14.4082 11.7627 14.4082 14.4194C14.4082 16.181 14.8728 17.4825 15.8272 18.3222C16.7817 19.1635 18.2547 19.5716 20.2718 19.5716C22.0168 19.5716 23.951 19.0006 26.0525 17.8369L25.1251 14.8812C23.7348 15.8015 22.3986 16.2616 21.1705 16.2616C20.7076 16.2616 20.3799 16.2096 20.1349 16.1273C19.8883 16.045 19.7261 15.9913 19.6433 15.909C19.3443 15.6386 19.2075 15.1768 19.2075 14.5269L19.2886 13.6889ZM20.0505 10.5435C20.4052 8.9448 21.1147 8.15719 22.2043 8.15719C22.9121 8.15719 23.2686 8.48298 23.2686 9.13288C23.2686 9.5947 23.0236 9.97423 22.5591 10.2731C22.0962 10.5435 21.6046 10.6795 21.0336 10.6795C20.6231 10.6795 20.2954 10.6275 20.0505 10.5435Z" fill="#20384E"/>
<path d="M66.5447 4.87793C63.5411 4.87793 61.3028 6.04507 59.7453 8.34743C58.5442 10.1359 57.9141 12.1696 57.9141 14.5274C57.9141 16.1261 58.3803 17.3755 59.2807 18.2689C60.1811 19.1355 61.4667 19.5704 63.1306 19.5704C66.0784 19.5704 68.3151 18.4033 69.8979 16.0724C71.1244 14.2587 71.7511 12.1696 71.7511 9.83868C71.7511 8.15766 71.2612 6.88473 70.251 6.04507C69.354 5.25746 68.0988 4.87793 66.5447 4.87793ZM65.6696 8.15766C66.3791 8.15766 66.7339 8.59261 66.7339 9.43228C66.7339 10.4348 66.516 11.6809 66.0784 13.199C65.4804 15.231 64.7692 16.2604 63.9499 16.2604C63.2404 16.2604 62.8857 15.8272 62.8857 14.9875C62.8857 14.0118 63.1053 12.7372 63.5411 11.1922C64.1425 9.1619 64.8537 8.15766 65.6696 8.15766Z" fill="#20384E"/>
<path d="M94.3848 13.6889C94.6568 13.7695 95.2041 13.7964 96.0488 13.7964C98.2584 13.7964 99.9747 13.3094 101.232 12.3051C102.458 11.3294 103.086 10.164 103.086 8.83564C103.086 7.48042 102.568 6.44931 101.532 5.77254C100.632 5.14783 99.375 4.85059 97.7685 4.85059C95.2312 4.85059 93.2141 5.79941 91.687 7.69705C90.2139 9.51241 89.5078 11.7627 89.5078 14.4194C89.5078 16.181 89.969 17.4825 90.9234 18.3222C91.8779 19.1635 93.351 19.5716 95.368 19.5716C97.113 19.5716 99.049 19.0006 101.15 17.8369L100.223 14.8812C98.8344 15.8015 97.4982 16.2616 96.2701 16.2616C95.8055 16.2616 95.4795 16.2096 95.2328 16.1273C94.9879 16.045 94.824 15.9913 94.7446 15.909C94.4456 15.6386 94.3071 15.1768 94.3071 14.5269L94.3848 13.6889ZM95.1484 10.5435C95.5014 8.9448 96.2109 8.15719 97.3022 8.15719C98.01 8.15719 98.3665 8.48298 98.3665 9.13288C98.3665 9.5947 98.1215 9.97423 97.657 10.2731C97.1958 10.5435 96.7025 10.6795 96.1299 10.6795C95.7211 10.6795 95.3933 10.6275 95.1484 10.5435Z" fill="#20384E"/>
<path d="M123.045 13.6889C123.317 13.7695 123.864 13.7964 124.71 13.7964C126.918 13.7964 128.636 13.3094 129.891 12.3051C131.118 11.3294 131.745 10.164 131.745 8.83564C131.745 7.48042 131.228 6.44931 130.192 5.77254C129.292 5.14783 128.038 4.85059 126.428 4.85059C123.894 4.85059 121.876 5.79941 120.347 7.69705C118.876 9.51241 118.166 11.7627 118.166 14.4194C118.166 16.181 118.631 17.4825 119.583 18.3222C120.538 19.1635 122.011 19.5716 124.028 19.5716C125.771 19.5716 127.709 19.0006 129.807 17.8369L128.881 14.8812C127.491 15.8015 126.155 16.2616 124.927 16.2616C124.464 16.2616 124.136 16.2096 123.893 16.1273C123.646 16.045 123.482 15.9913 123.401 15.909C123.102 15.6386 122.965 15.1768 122.965 14.5269L123.045 13.6889ZM123.808 10.5435C124.165 8.9448 124.873 8.15719 125.962 8.15719C126.672 8.15719 127.026 8.48298 127.026 9.13288C127.026 9.5947 126.781 9.97423 126.319 10.2731C125.852 10.5435 125.361 10.6795 124.79 10.6795C124.383 10.6795 124.055 10.6275 123.808 10.5435Z" fill="#20384E"/>
<path d="M13.0616 17.6179L11.6156 14.2575C10.4432 15.1257 9.27086 15.5573 8.12383 15.5573C7.38899 15.5573 6.76057 15.3138 6.29939 14.8251C5.83652 14.3667 5.58819 13.6614 5.58819 12.7663C5.58819 11.3842 5.83483 9.89294 6.32642 8.32109C6.79097 6.74923 7.33493 5.63752 7.93463 5.01448C8.75394 4.17314 9.67967 3.76842 10.6882 3.76842C11.7795 3.76842 12.6782 4.06566 13.3877 4.66182L16.0618 1.38041C14.9148 0.460137 13.2813 0 11.1798 0C8.48027 0 6.21661 0.839666 4.33474 2.49381C2.91911 3.76842 1.82782 5.36547 1.09129 7.3454C0.354752 9.29678 0 11.2482 0 13.2281C0 15.1526 0.5997 16.6993 1.82782 17.8362C3.02553 18.9748 4.66246 19.5441 6.70651 19.5441C9.27086 19.5441 11.3977 18.8925 13.0616 17.6179Z" fill="#20384E"/>
<path d="M59.1395 5.22852H44.7805L43.9375 9.23876H48.3516L46.3312 19.4877H51.2707L53.2945 9.23876H57.7188L59.1395 5.22852Z" fill="#20384E"/>
<path d="M119.388 5.22852H105.044L104.199 9.23876H108.615L106.595 19.4877H111.531L113.553 9.23876H117.97L119.388 5.22852Z" fill="#20384E"/>
<path d="M79.5133 15.1297C78.7515 18.7318 75.1786 19.0492 73.7258 19.0492C72.2713 19.0492 71.6074 19.0459 71.6074 19.0459L72.5484 14.8257H73.7528C73.7528 14.8257 74.9387 14.9802 75.307 13.2438L75.9472 10.2361C76.2766 8.74485 76.2868 7.57939 76.2868 6.73973V5.98067C76.2293 5.76235 76.204 5.60114 76.1753 5.49198C76.1753 5.49198 83.2112 4.70605 84.9022 4.70605C87.2756 4.70605 88.475 5.62801 88.475 7.47191C88.475 7.66 88.475 7.84976 88.448 8.06808C88.421 8.28471 88.3939 8.50135 88.3382 8.71798L86.1303 19.0459H81.3851L83.294 10.1017L83.4004 9.31582C83.4004 8.80027 83.1301 8.52989 82.6115 8.52989C81.875 8.52989 81.7787 8.56012 80.9036 8.67432L79.5133 15.1297Z" fill="#20384E"/>
<path d="M30.2463 6.03202C30.2734 6.1395 30.3004 6.30239 30.3561 6.51903V7.27809C30.3561 8.11775 30.194 9.28321 29.8679 10.7745L27.9844 19.5842H32.7279L34.951 9.25802C36.071 9.08505 35.946 9.06657 36.6826 9.06657C37.2012 9.06657 37.4732 9.33863 37.4732 9.85418L37.3633 10.6401L35.4561 19.5859H40.2014L42.4093 9.25802C42.465 9.04138 42.4904 8.82475 42.5174 8.60644C42.5444 8.3898 42.5444 8.20004 42.5444 8.01027C42.5444 6.16637 41.345 5.24609 38.9716 5.24609C37.2823 5.24609 30.2463 6.03202 30.2463 6.03202Z" fill="#20384E"/>
<path d="M150.862 23.123H81.9076C77.4131 23.123 73.7695 26.7666 73.7695 31.2611C73.7695 35.7556 77.4131 39.3991 81.9076 39.3991H150.862C155.356 39.3991 159 35.7556 159 31.2611C159 26.7666 155.356 23.123 150.862 23.123Z" fill="url(#paint0_linear)"/>
<path d="M151.615 25.5225H84.3808L84.043 28.5419H151.615V25.5225Z" fill="url(#paint1_linear)"/>
<mask id="mask0" mask-type="alpha" maskUnits="userSpaceOnUse" x="73" y="23" width="87" height="17">
<path d="M150.864 23.123H81.9095C77.415 23.123 73.7715 26.7666 73.7715 31.2611C73.7715 35.7556 77.415 39.3991 81.9095 39.3991H150.864C155.358 39.3991 159.002 35.7556 159.002 31.2611C159.002 26.7666 155.358 23.123 150.864 23.123Z" fill="url(#paint2_linear)"/>
</mask>
<g mask="url(#mask0)">
<path d="M136.211 26.0928L136.042 26.039C134.87 25.6612 133.228 25.416 131.859 25.416C125.413 25.416 122.041 30.3264 122.041 35.1763C122.041 38.0631 123.744 40.001 126.279 40.001C127.622 40.001 129.481 39.4871 130.972 37.1428C130.888 38.0261 130.814 38.8473 130.79 39.4888L130.783 39.6954H134.223L134.216 39.4905C134.162 37.8599 134.391 35.3341 134.775 33.3475L136.211 26.0928ZM127.597 36.9833C126.062 36.9833 125.832 35.4836 125.832 34.5902C125.832 31.6312 128.009 28.6118 130.961 28.6118C131.386 28.6118 131.751 28.642 132.07 28.7041L131.408 31.7941C130.781 35.1645 128.977 36.9833 127.597 36.9833Z" fill="white"/>
<path d="M141.517 25.5312L140.404 31.2611C139.916 33.8036 139.198 35.4091 138.186 36.1849C137.83 36.5393 137.233 36.7727 136.456 36.8634L136.264 36.8852L136.526 39.8576H136.708C138.309 39.8576 139.402 39.4747 140.463 38.5477C142.085 37.3722 143.102 35.2227 143.867 31.3619L144.433 28.5003H147.834L145.702 39.688H149.405L152.096 25.5312H141.517Z" fill="white"/>
<path d="M103.058 25.5176C98.5612 25.5176 95.0391 29.3481 95.0391 34.2383C95.0391 37.6843 97.3449 40.0001 100.776 40.0001C105.29 40.0001 108.825 36.1797 108.825 31.3046C108.825 28.4245 107.042 25.5176 103.058 25.5176ZM101.222 37.1117C99.737 37.1117 98.7775 35.9513 98.7775 34.1544C98.7775 31.8033 100.134 28.5421 102.639 28.5421C104.399 28.5421 105.058 29.9023 105.058 31.3046C105.058 34.0452 103.418 37.1117 101.222 37.1117Z" fill="white"/>
</g>
<path d="M110.991 25.5312L110.322 28.544H113.948L111.932 39.3992H115.676L117.684 28.544H121.627L122.347 25.5312H110.991Z" fill="white"/>
<path d="M95.7301 25.5225H83.9202C83.2529 25.5225 82.709 26.1992 82.709 27.0322C82.709 27.8668 83.2513 28.5419 83.9202 28.5419H87.4069L85.3375 39.3904H89.103L91.1386 28.5419H95.1456L95.7301 25.5225Z" fill="white"/>
</g>
<defs>
<linearGradient id="paint0_linear" x1="73.7687" y1="31.2607" x2="159" y2="31.2607" gradientUnits="userSpaceOnUse">
<stop stop-color="#7D1216"/>
<stop offset="0.3262" stop-color="#B72222"/>
<stop offset="0.7572" stop-color="#DA2621"/>
<stop offset="1" stop-color="#DF1E18"/>
</linearGradient>
<linearGradient id="paint1_linear" x1="82.7142" y1="27.0287" x2="151.618" y2="27.0287" gradientUnits="userSpaceOnUse">
<stop stop-color="white"/>
<stop offset="0.3615" stop-color="#EEC7BF"/>
<stop offset="1" stop-color="#CD5C46"/>
</linearGradient>
<linearGradient id="paint2_linear" x1="73.7707" y1="31.2607" x2="159.002" y2="31.2607" gradientUnits="userSpaceOnUse">
<stop stop-color="#7F1F22"/>
<stop offset="0.3262" stop-color="#9A2424"/>
<stop offset="0.7572" stop-color="#B92925"/>
<stop offset="1" stop-color="#C42B26"/>
</linearGradient>
<clipPath id="clip0">
<rect width="159" height="40" fill="white"/>
</clipPath>
</defs>
</svg>
