<svg width="85" height="85" viewBox="0 0 85 85" fill="none" xmlns="http://www.w3.org/2000/svg">
<g clip-path="url(#clip0)">
<path d="M68.4449 62.6436C68.2266 61.9896 67.5194 61.636 66.865 61.8548C66.2109 62.0732 65.8578 62.7807 66.0762 63.4348C66.8304 65.6933 67.2129 68.0575 67.2129 70.4618V80.4111L55.3456 66.5069C55.6611 65.9951 56.0557 65.2899 56.3796 64.5074C57.6143 61.5246 56.8292 59.8544 55.9533 58.9783C54.9583 57.9835 53.9211 57.8441 53.227 57.8994C52.2966 57.9752 51.4831 58.4382 50.8626 58.935C50.1195 57.861 48.8934 56.4509 47.1106 55.4694C49.2821 54.1047 50.8093 51.8081 51.128 49.144C56.5356 50.6861 61.2116 54.2698 64.1151 59.1536C64.4697 59.7518 65.2437 59.938 65.8265 59.5887C66.4194 59.2364 66.6141 58.4701 66.2617 57.8773C63.2249 52.7691 58.4432 48.9397 52.88 47.0738C55.7134 44.8792 57.8352 41.8095 58.8391 38.274C59.4046 38.4422 59.9941 38.53 60.5919 38.53C63.9824 38.53 66.7408 35.7716 66.7408 32.3811C66.7408 31.0543 66.317 29.8255 65.5996 28.8197C68.679 21.1752 68.6931 13.7382 65.6149 8.31996C63.7211 4.98636 60.8215 2.82916 57.6596 2.40183C54.3366 1.95326 51.7408 2.6985 50.3715 3.24968C50.0162 2.83646 49.5075 2.35585 48.7958 1.89449C46.6828 0.524031 43.7495 -0.107658 40.075 0.0136989C36.0457 0.148006 32.9623 2.26886 30.9936 3.85248C30.4563 4.28462 30.3709 5.07053 30.8032 5.60809C31.2355 6.14532 32.0216 6.23048 32.5588 5.79835C35.2446 3.63799 37.6595 2.59308 40.1582 2.50974C47.0405 2.28048 48.6834 5.11154 48.7955 5.32205C49.0452 6.02562 49.952 6.30785 50.5759 5.9046C50.6029 5.88899 53.3315 4.33724 57.3249 4.87663C59.7077 5.19853 61.9378 6.90318 63.4432 9.55329C64.6938 11.7547 67.0957 17.7194 63.6161 27.0304C62.7222 26.5232 61.6906 26.2319 60.5916 26.2319C60.2189 26.2319 59.8477 26.2672 59.4829 26.3341V26.1294C59.4829 24.3929 58.7629 22.7329 57.5078 21.575C54.6567 18.9448 51.4305 14.3101 50.1756 12.4395C49.4738 11.3307 47.7687 11.2106 46.9104 12.1997C40.4393 19.2674 31.9062 21.5607 28.5379 22.2186C26.787 22.5608 25.5161 24.1057 25.5161 25.892V26.3336C25.1514 26.2667 24.7802 26.2314 24.4075 26.2314C23.7363 26.2314 23.0905 26.341 22.4853 26.5407C21.3614 24.7047 18.8375 19.9284 18.5689 13.696C19.6993 13.8111 21.2862 13.8466 22.7918 13.4405C24.9731 12.8525 26.9902 10.9296 28.9409 9.06985C29.4401 8.59388 29.4588 7.80348 28.983 7.30444C28.5072 6.8054 27.7168 6.78664 27.2176 7.26211C25.493 8.90616 23.7097 10.6063 22.1417 11.0292C20.0672 11.5888 17.6115 11.0253 17.5889 11.02C16.839 10.8215 16.0433 11.4412 16.0512 12.2163C15.9402 19.7682 18.9205 25.5207 20.3173 27.7939C19.0551 28.9208 18.2586 30.5587 18.2586 32.3799C18.2586 35.7705 21.0171 38.5288 24.4076 38.5288C25.0053 38.5288 25.5948 38.441 26.1603 38.2728C27.1643 41.8083 29.2862 44.8783 32.1196 47.0728C27.7567 48.5379 23.8387 51.223 20.8876 54.8145C17.2774 59.2081 15.2891 64.7646 15.2891 70.4611V83.7493C15.2891 84.4391 15.8482 84.9981 16.5378 84.9981H35.4019C36.0915 84.9981 36.6506 84.4391 36.6506 83.7493C36.6506 83.0595 36.0915 82.5005 35.4019 82.5005H29.716V76.1589V69.0262C29.716 68.3364 29.1568 67.7775 28.4672 67.7775C27.7776 67.7775 27.2184 68.3364 27.2184 69.0262V74.9108H17.7864V70.4616C17.7864 65.342 19.5729 60.3484 22.817 56.4006C25.685 52.9104 29.5672 50.3724 33.8714 49.1434C34.2162 52.0264 35.9761 54.4796 38.4361 55.7863C36.9815 56.9569 35.9002 58.7384 35.5063 60.8408C35.0733 63.1504 35.5707 65.5648 36.9065 67.6388C38.4051 69.9657 40.858 71.8279 44.2002 73.1771L52.0975 82.5012H40.3918C39.7022 82.5012 39.143 83.0602 39.143 83.75C39.143 84.4398 39.7022 84.9987 40.3918 84.9987H68.4617C69.1515 84.9987 69.7105 84.4398 69.7105 83.75V70.4618C69.7103 67.7879 69.2847 65.1576 68.4449 62.6436ZM59.4831 33.6412V28.9017C59.8399 28.7884 60.2144 28.7291 60.5917 28.7291C62.6052 28.7291 64.2433 30.3672 64.2433 32.3806C64.2433 34.394 62.6052 36.0321 60.5917 36.0321C60.1629 36.0321 59.7411 35.9567 59.3433 35.8118C59.4346 35.1008 59.4831 34.3766 59.4831 33.6412ZM24.4075 36.0321C22.394 36.0321 20.756 34.394 20.756 32.3806C20.756 30.3672 22.394 28.7291 24.4075 28.7291C24.7848 28.7291 25.1594 28.7884 25.5161 28.9017V33.6412C25.5161 34.3766 25.5646 35.1006 25.6557 35.8116C25.2581 35.9567 24.8365 36.0321 24.4075 36.0321ZM27.2184 77.4083V82.5012H17.7864V77.4083H27.2184ZM28.0137 33.6412V25.8922C28.0137 25.2975 28.4357 24.7836 29.0169 24.67C32.567 23.9766 41.4722 21.5843 48.3971 14.2681C49.8636 16.4248 52.9759 20.7922 55.8145 23.4108C56.5587 24.0973 56.9855 25.0882 56.9855 26.1294V33.6412C56.9855 41.6287 50.4872 48.127 42.4995 48.127C34.512 48.1272 28.0137 41.6288 28.0137 33.6412ZM36.4688 49.5172C38.344 50.2319 40.3767 50.6245 42.4997 50.6245C44.6227 50.6245 46.6554 50.2318 48.5305 49.5171C47.8897 52.2548 45.43 54.3005 42.4997 54.3005C39.5695 54.3005 37.1097 52.2548 36.4688 49.5172ZM55.3704 82.5012L45.9037 71.3242C45.7692 71.1653 45.597 71.0428 45.4031 70.9673C37.3994 67.8578 37.6832 62.7825 37.961 61.301C38.4421 58.7339 40.3934 56.7978 42.4997 56.7978C47.2941 56.7978 49.3888 61.2947 49.4742 61.4821C49.6553 61.8892 50.0413 62.167 50.4845 62.2139C50.9298 62.2616 51.3641 62.0662 51.6266 61.7063C51.9239 61.2989 52.7568 60.4404 53.4335 60.3879C53.6048 60.3741 53.8467 60.4032 54.1872 60.744C55.2042 61.7609 53.647 64.6828 52.7812 65.8585C52.4354 66.3256 52.4576 66.9698 52.835 67.412L65.7133 82.501H55.3704V82.5012Z" fill="#45B3F1"/>
<path d="M35.7513 27.6792C34.4222 28.9847 32.8455 29.4471 32.81 29.4574C32.1476 29.641 31.7578 30.3258 31.9389 30.9895C32.0905 31.5449 32.5937 31.9098 33.1428 31.9098C33.2517 31.9098 33.3623 31.8955 33.4724 31.8654C33.5619 31.841 35.6827 31.2474 37.5014 29.461C37.9935 28.9778 38.0005 28.1872 37.5172 27.6951C37.0341 27.2031 36.2433 27.1958 35.7513 27.6792Z" fill="#45B3F1"/>
<path d="M51.5277 31.8653C51.6376 31.8952 51.748 31.9097 51.8566 31.9097C52.4033 31.9097 52.9032 31.5468 53.0569 30.9941C53.2408 30.3317 52.852 29.6444 52.1906 29.4574C52.1747 29.453 50.5864 28.9931 49.2488 27.6791C48.7568 27.1958 47.9665 27.2031 47.4829 27.6949C46.9996 28.1869 47.0066 28.9775 47.4987 29.4608C49.3174 31.2473 51.4384 31.8409 51.5277 31.8653Z" fill="#45B3F1"/>
<path d="M43.6819 40.1051C43.6819 40.7949 44.2409 41.3539 44.9307 41.3539C45.6205 41.3539 46.1795 40.7949 46.1795 40.1051C46.1795 37.8594 44.5288 36.0322 42.4999 36.0322C40.4708 36.0322 38.8203 37.8592 38.8203 40.1051C38.8203 40.7949 39.3795 41.3539 40.0691 41.3539C40.7587 41.3539 41.3178 40.7949 41.3178 40.1051C41.3178 39.2511 41.8592 38.5298 42.5 38.5298C43.1404 38.5298 43.6819 39.2511 43.6819 40.1051Z" fill="#45B3F1"/>
<path d="M19.5623 47.9537C20.447 47.9537 21.2913 47.4948 22.1089 47.0506C22.7373 46.7089 23.4497 46.3218 23.9102 46.3218C24.8701 46.3218 25.4558 46.8146 25.4802 46.8356C25.7055 47.0567 26.0138 47.1933 26.3545 47.1933C27.0441 47.1933 27.6032 46.6342 27.6032 45.9446C27.6032 45.5549 27.4246 45.2073 27.145 44.9782C26.9622 44.8128 25.7913 43.8242 23.9102 43.8242C22.8148 43.8242 21.8061 44.3724 20.9163 44.8562C20.4978 45.0836 19.804 45.4683 19.5611 45.4561C18.8731 45.4276 18.2891 45.96 18.259 46.6491C18.2288 47.3383 18.7631 47.9211 19.452 47.9514C19.489 47.953 19.5256 47.9537 19.5623 47.9537Z" fill="#45B3F1"/>
<path d="M31.6706 53.0715C31.2719 53.0662 29.8594 53.1321 28.5153 54.2393C27.6718 54.9341 27.2418 55.9967 26.8962 56.8507C26.6375 57.4901 26.946 58.218 27.5853 58.4767C28.2084 58.7337 28.9528 58.4334 29.2113 57.7876C29.4382 57.2268 29.749 56.4588 30.1031 56.1669C30.8444 55.5565 31.621 55.5654 31.621 55.5654C32.3299 55.6058 32.9312 55.0282 32.929 54.3197C32.929 53.6596 32.4165 53.1205 31.7679 53.0754C31.7681 53.0755 31.6801 53.0706 31.6706 53.0715Z" fill="#45B3F1"/>
<path d="M65.4353 47.9537C64.5506 47.9537 63.7063 47.4948 62.8887 47.0506C62.2603 46.7089 61.5479 46.3218 61.0874 46.3218C60.1275 46.3218 59.5418 46.8146 59.5175 46.8356C59.2923 47.0567 58.9838 47.1933 58.6433 47.1933C57.9537 47.1933 57.3945 46.6342 57.3945 45.9446C57.3945 45.5549 57.5732 45.2073 57.8527 44.9782C58.0355 44.8128 59.2064 43.8242 61.0875 43.8242C62.1829 43.8242 63.1916 44.3724 64.0815 44.8562C64.5 45.0836 65.1938 45.4683 65.4367 45.4561C66.1246 45.4276 66.7087 45.96 66.7387 46.6491C66.7689 47.3383 66.2347 47.9211 65.5457 47.9514C65.5087 47.953 65.472 47.9537 65.4353 47.9537Z" fill="#45B3F1"/>
<path d="M54.36 53.0715C54.7587 53.0662 56.1712 53.1321 57.5153 54.2393C58.3588 54.9341 58.7888 55.9967 59.1344 56.8507C59.3931 57.4901 59.0846 58.218 58.4453 58.4767C57.8222 58.7337 57.0778 58.4334 56.8193 57.7876C56.5924 57.2268 56.2816 56.4588 55.9275 56.1669C55.1862 55.5565 54.4096 55.5654 54.4096 55.5654C53.7007 55.6058 53.0994 55.0282 53.1016 54.3197C53.1016 53.6596 53.6141 53.1205 54.2627 53.0754C54.2627 53.0755 54.3507 53.0706 54.36 53.0715Z" fill="#45B3F1"/>
</g>
<defs>
<clipPath id="clip0">
<rect width="85" height="85" fill="white" transform="translate(0 -0.000976562)"/>
</clipPath>
</defs>
</svg>
