<svg width="130" height="179" viewBox="0 0 130 179" fill="none" xmlns="http://www.w3.org/2000/svg">
<path fill-rule="evenodd" clip-rule="evenodd" d="M81.2093 137.911L81.2011 137.903C80.6075 137.306 80.0391 137.094 79.3823 137.094H45.845C45.1946 137.094 44.6247 137.305 44.0192 137.909C43.417 138.511 43.2073 139.077 43.2073 139.734V173.272C43.2073 173.928 43.4184 174.496 44.0191 175.097C44.6239 175.7 45.1922 175.911 45.845 175.911H79.3823C80.0388 175.911 80.6083 175.698 81.2029 175.101L81.2098 175.095C81.8113 174.495 82.022 173.929 82.022 173.272V139.734C82.022 139.077 81.8126 138.513 81.2093 137.911ZM41.9334 135.821C43.0513 134.705 44.3561 134.143 45.845 134.143H79.3823C80.8712 134.143 82.1794 134.702 83.2929 135.821C84.4152 136.94 84.9732 138.243 84.9732 139.734V173.272C84.9732 174.763 84.4137 176.068 83.2929 177.185C82.1794 178.302 80.8712 178.862 79.3823 178.862H45.845C44.3547 178.862 43.0513 178.3 41.9334 177.185C40.8165 176.068 40.2561 174.763 40.2561 173.272V139.734C40.2561 138.243 40.8146 136.94 41.9334 135.821Z" fill="#45B3F1"/>
<path fill-rule="evenodd" clip-rule="evenodd" d="M120.809 35.1553C117.17 28.4529 112.486 22.8251 106.746 18.2332C100.941 13.5884 94.4043 9.8694 87.1329 7.08702C79.895 4.31897 72.7528 2.95117 65.6886 2.95117C38.4323 2.95117 17.7671 14.7756 3.38066 38.6921L3.37316 38.7046L3.36553 38.717C2.99256 39.3234 2.87922 39.9061 2.99372 40.5969C3.09445 41.1956 3.37859 41.719 4.04461 42.2326C4.04604 42.2337 4.04748 42.2348 4.04891 42.2359L26.8282 59.5991C27.6399 60.0771 28.2382 60.2089 28.6611 60.2089C29.3103 60.2089 29.955 59.9786 30.6974 59.0694C37.3773 50.7201 42.5921 45.0521 46.2289 42.4527L46.2619 42.4291L46.2955 42.4065C50.8999 39.3027 56.5419 37.8518 63.0359 37.8518C69.2654 37.8518 74.8646 39.4966 79.7294 42.8405L79.731 42.8416C84.5611 46.1665 87.5042 50.414 87.5042 55.6139C87.5042 60.529 86.1871 64.8079 83.2961 68.1607C80.5613 71.333 76.1996 74.1552 70.5495 76.7413L70.5396 76.7459L70.5296 76.7503C63.7004 79.8152 57.367 84.5957 51.5521 91.1742C45.881 97.5859 43.2091 104.205 43.2091 111.089V117.377C43.2091 118.581 43.5336 119.829 44.2897 121.159L44.2909 121.161C44.6415 121.779 44.9271 122.056 45.082 122.168C45.1973 122.252 45.2427 122.252 45.2873 122.252H78.8251C79.1963 122.252 79.7031 122.135 80.402 121.23L80.4047 121.227C81.1848 120.22 81.4633 119.326 81.4633 118.498C81.4633 115.256 83.1722 111.512 85.7859 107.519C88.5883 103.24 92.1188 99.8684 96.3826 97.4769C100 95.4356 102.802 93.8054 104.807 92.5744L104.811 92.5718C106.671 91.4344 109.211 89.519 112.484 86.7566C115.64 84.0884 117.991 81.5211 119.61 79.0693L119.611 79.0676C121.239 76.6059 122.77 73.3018 124.162 69.0803L124.163 69.0784C125.502 65.0262 126.181 60.6368 126.181 55.8918M114.389 89.0102C111.081 91.803 108.405 93.8336 106.351 95.0895C104.299 96.3489 101.461 98.0002 97.8295 100.049C94.007 102.192 90.8174 105.223 88.2551 109.135C85.6954 113.046 84.4145 116.17 84.4145 118.498C84.4145 120.08 83.8531 121.594 82.7377 123.034C81.6189 124.483 80.316 125.203 78.8251 125.203H45.2883C43.89 125.203 42.7031 124.342 41.7243 122.618C40.7444 120.894 40.2579 119.148 40.2579 117.377V111.089C40.2579 103.357 43.2841 96.0674 49.3409 89.2197C55.3933 82.3725 62.057 77.318 69.3212 74.0579C74.8186 71.5417 78.7326 68.9344 81.0609 66.2337C83.3906 63.532 84.553 59.9904 84.553 55.6139C84.553 51.7013 82.3892 48.2542 78.0577 45.2725C73.7242 42.2938 68.7182 40.803 63.0359 40.803C56.9805 40.803 51.9516 42.1529 47.945 44.8536C44.6849 47.1838 39.6999 52.5402 32.9937 60.9233C31.7813 62.4137 30.3385 63.1601 28.6611 63.1601C27.5428 63.1601 26.3779 62.7876 25.167 62.0436L2.24959 44.5751C1.03872 43.6437 0.3168 42.4788 0.0828484 41.083C-0.149635 39.6851 0.10732 38.3813 0.851756 37.1709C15.7581 12.3901 37.3702 0 65.6886 0C73.1428 0 80.6414 1.44482 88.1871 4.33055C95.7313 7.21726 102.536 11.0853 108.589 15.9288C114.646 20.7742 119.582 26.7101 123.403 33.7473C127.22 40.7771 129.131 48.1593 129.132 55.8914C129.132 60.9214 128.412 65.6263 126.965 70.0044C125.521 74.3839 123.89 77.9479 122.072 80.6956C120.258 83.4429 117.696 86.2145 114.389 89.0102ZM120.809 35.1553C124.4 41.7688 126.18 48.6694 126.181 55.8918L120.809 35.1553Z" fill="#45B3F1"/>
</svg>
