<svg width="18" height="18" viewBox="0 0 18 18" fill="none" xmlns="http://www.w3.org/2000/svg">
<path d="M9.03365 0.666717C6.77796 0.660624 4.60874 1.53425 2.98691 3.10199V0.666678C2.98691 0.298476 2.68843 0 2.32023 0C1.95203 0 1.65359 0.298476 1.65359 0.666678V4.66667C1.65351 4.95374 1.83722 5.20862 2.10961 5.29932L6.1096 6.63264C6.45936 6.74901 6.83725 6.55975 6.95358 6.20999C7.06995 5.86022 6.88069 5.48233 6.53092 5.366L3.57761 4.38335C6.30577 1.41246 10.9258 1.21566 13.8967 3.94382C16.8676 6.67198 17.0644 11.292 14.3362 14.2629C11.6081 17.2338 6.98803 17.4306 4.01714 14.7024C2.19574 13.0299 1.34441 10.5492 1.75496 8.11065C1.81953 7.74815 1.57804 7.40198 1.21558 7.33737C0.853124 7.27276 0.506914 7.51428 0.442304 7.87674C0.441601 7.88069 0.440937 7.88467 0.440312 7.88862C0.360508 8.36604 0.320352 8.84924 0.320312 9.33326C0.325742 14.1175 4.20273 17.9945 8.98689 18C13.7733 18.0129 17.664 14.1432 17.6769 9.35674C17.6898 4.5703 13.8201 0.679647 9.03365 0.666717Z" fill="#DF1E18"/>
</svg>
