<svg width="85" height="85" viewBox="0 0 85 85" fill="none" xmlns="http://www.w3.org/2000/svg">
<g clip-path="url(#clip0)">
<path d="M64.4583 15.5839C60.8523 15.5816 57.326 16.6447 54.3221 18.6397C53.941 13.7423 51.952 10.032 48.45 7.86309C44.2241 5.25076 37.6933 5.54259 30.7842 5.85284C22.1921 6.23534 13.3082 6.63201 10.5258 0.894508C10.2484 0.323328 9.62481 0.0065206 8.99992 0.119298C8.37502 0.232076 7.90151 0.746886 7.84125 1.37901C7.53301 5.34226 7.79493 9.32923 8.619 13.2181C9.46348 16.9741 11.6986 20.2711 14.875 22.4463V28.4756C11.495 29.1629 9.10143 32.1849 9.20643 35.6325C9.31142 39.0801 11.8844 41.9508 15.3 42.4312C17.2585 47.0495 20.7046 50.8807 25.0906 53.3154C25.9107 54.7656 26.2986 56.4203 26.2083 58.0839C26.2083 60.8974 23.7873 63.0579 22.9075 63.7506H19.125C9.74037 63.7608 2.13515 71.366 2.125 80.7506C2.125 81.8778 2.57277 82.9588 3.3698 83.7558C4.16683 84.5528 5.24783 85.0006 6.375 85.0006H60.2083C62.5555 85.0006 64.4583 83.0978 64.4583 80.7506C64.4482 71.366 56.843 63.7608 47.4583 63.7506H43.6758C42.7918 63.055 40.375 60.8946 40.375 58.0839C40.2892 56.4459 40.661 54.8164 41.4488 53.3778C44.9863 51.5216 47.9124 48.6831 49.8752 45.2036C50.512 46.0313 51.2182 46.8034 51.986 47.5113L43.5583 57.1518C43.2221 57.5325 43.1154 58.064 43.2787 58.5449C43.442 59.0258 43.8502 59.3826 44.3487 59.4799C44.8471 59.5772 45.3596 59.4003 45.6918 59.0161L54.1917 49.285C60.7457 53.6906 69.3789 53.4274 75.6523 48.6307C81.9257 43.834 84.4427 35.5717 81.9091 28.0921C79.3756 20.6125 72.3554 15.5806 64.4583 15.5839ZM11.3829 12.5933C10.8761 10.257 10.6019 7.87628 10.5641 5.48593C15.1909 9.38459 23.1611 9.02759 30.9103 8.68334C37.0912 8.40709 43.4747 8.11668 46.954 10.2728C50.1344 12.2392 51.6701 15.8177 51.5553 20.8823C50.8813 21.5511 50.2599 22.271 49.6967 23.0356C45.9893 18.2076 40.1313 16.9751 34.2309 19.9898C31.3862 21.2701 28.3468 22.0641 25.2393 22.3386C18.8128 23.0928 12.8461 18.8964 11.3829 12.5933ZM61.625 80.7506C61.625 81.533 60.9907 82.1673 60.2083 82.1673H6.375C5.5926 82.1673 4.95833 81.533 4.95833 80.7506C4.96692 72.9301 11.3045 66.5925 19.125 66.5839H22.0561C22.7658 72.2491 27.5822 76.4997 33.2917 76.4997C39.0011 76.4997 43.8175 72.2491 44.5273 66.5839H47.4583C55.2788 66.5925 61.6164 72.9301 61.625 80.7506ZM41.7633 65.8515C41.4023 70.2623 37.7172 73.6581 33.2917 73.6581C28.8661 73.6581 25.181 70.2623 24.82 65.8515C26.1559 64.7664 29.0417 61.9713 29.0417 58.0839C29.051 56.9314 28.9226 55.7819 28.6592 54.6599C30.1721 55.052 31.7287 55.2505 33.2917 55.2506C34.8528 55.2509 36.408 55.0573 37.9213 54.674C37.6598 55.7915 37.5324 56.9363 37.5417 58.0839C37.5417 61.9713 40.4274 64.7664 41.7633 65.8515ZM33.2917 52.4173C21.7444 52.4173 17.7976 41.1137 17.6347 40.6334C17.4411 40.0563 16.9004 39.6673 16.2917 39.6673C13.9445 39.6673 12.0417 37.7645 12.0417 35.4173C12.0417 33.0701 13.9445 31.1673 16.2917 31.1673C17.0741 31.1673 17.7083 30.533 17.7083 29.7506V24.0273C20.1911 25.0889 22.9103 25.476 25.5907 25.1493C29.0264 24.8366 32.3845 23.9453 35.5229 22.5128C40.5691 19.9373 45.2087 21.1174 48.0675 25.6437C45.3452 30.9344 45.3689 37.2193 48.1313 42.4893C46.427 45.9006 42.0283 52.4173 33.2917 52.4173ZM64.4583 49.5839C55.8519 49.5839 48.875 42.607 48.875 34.0006C48.875 25.3942 55.8519 18.4173 64.4583 18.4173C73.0648 18.4173 80.0417 25.3942 80.0417 34.0006C80.0315 42.6028 73.0606 49.5738 64.4583 49.5839Z" fill="#45B3F1"/>
<path d="M61.6237 34.0003C62.4061 34.0003 63.0404 33.3661 63.0404 32.5837C63.0404 31.8013 62.4061 31.167 61.6237 31.167C60.8413 31.167 60.207 31.8013 60.207 32.5837C60.207 33.3661 60.8413 34.0003 61.6237 34.0003Z" fill="#45B3F1"/>
<path d="M67.2917 36.8343C68.0741 36.8343 68.7083 36.2 68.7083 35.4176C68.7083 34.6352 68.0741 34.001 67.2917 34.001C66.5093 34.001 65.875 34.6352 65.875 35.4176C65.875 36.2 66.5093 36.8343 67.2917 36.8343Z" fill="#45B3F1"/>
<path d="M73.5634 27.1065L72.2374 27.8715C71.7531 27.2583 71.1987 26.7039 70.5855 26.2197L71.3505 24.8937C71.7354 24.2167 71.5017 23.356 70.8273 22.9666C70.1529 22.5772 69.2907 22.8052 68.8969 23.477L68.1333 24.7987C67.4068 24.5086 66.6482 24.3065 65.8737 24.1967V22.6667C65.8737 21.8843 65.2394 21.25 64.457 21.25C63.6746 21.25 63.0404 21.8843 63.0404 22.6667V24.1967C62.2658 24.3065 61.5072 24.5086 60.7808 24.7987L60.0172 23.477C59.7659 23.0351 59.2971 22.7616 58.7888 22.7605C58.2804 22.7594 57.8104 23.0308 57.5572 23.4716C57.304 23.9124 57.3064 24.4551 57.5635 24.8937L58.3285 26.2197C57.7153 26.7039 57.161 27.2583 56.6767 27.8715L55.3507 27.1065C54.6737 26.7216 53.813 26.9553 53.4236 27.6297C53.0343 28.3041 53.2622 29.1663 53.934 29.5602L55.2558 30.3238C54.9656 31.0502 54.7635 31.8088 54.6537 32.5833H53.1237C52.3413 32.5833 51.707 33.2176 51.707 34C51.707 34.7824 52.3413 35.4167 53.1237 35.4167H54.6537C54.7635 36.1912 54.9656 36.9498 55.2558 37.6762L53.934 38.4398C53.4921 38.6911 53.2187 39.1599 53.2176 39.6682C53.2164 40.1766 53.4878 40.6466 53.9286 40.8998C54.3694 41.153 54.9121 41.1506 55.3507 40.8935L56.6767 40.1285C57.161 40.7417 57.7153 41.2961 58.3285 41.7803L57.5635 43.1063C57.3064 43.5449 57.304 44.0876 57.5572 44.5284C57.8104 44.9692 58.2804 45.2406 58.7888 45.2395C59.2971 45.2383 59.7659 44.9649 60.0172 44.523L60.7808 43.2013C61.5072 43.4914 62.2658 43.6935 63.0404 43.8033V45.3333C63.0404 46.1157 63.6746 46.75 64.457 46.75C65.2394 46.75 65.8737 46.1157 65.8737 45.3333V43.8033C66.6503 43.6964 67.4113 43.4966 68.1404 43.2083L68.9039 44.5301C69.2978 45.2019 70.16 45.4298 70.8344 45.0405C71.5088 44.6511 71.7425 43.7904 71.3576 43.1134L70.5926 41.7874C71.2058 41.3032 71.7602 40.7488 72.2444 40.1356L73.5704 40.9006C74.2474 41.2855 75.1081 41.0518 75.4975 40.3774C75.8869 39.703 75.6589 38.8408 74.9871 38.4469L73.6654 37.6833C73.9536 36.9543 74.1534 36.1933 74.2604 35.4167H75.7904C76.5728 35.4167 77.207 34.7824 77.207 34C77.207 33.2176 76.5728 32.5833 75.7904 32.5833H74.2604C74.1506 31.8088 73.9484 31.0502 73.6583 30.3238L74.98 29.5602C75.6518 29.1663 75.8798 28.3041 75.4904 27.6297C75.101 26.9553 74.2403 26.7216 73.5634 27.1065ZM64.457 41.0833C60.545 41.0833 57.3737 37.912 57.3737 34C57.3737 30.088 60.545 26.9167 64.457 26.9167C68.369 26.9167 71.5404 30.088 71.5404 34C71.5357 37.9101 68.3671 41.0786 64.457 41.0833Z" fill="#45B3F1"/>
<path d="M30.4596 66.5833C31.242 66.5833 31.8763 65.9491 31.8763 65.1667C31.8763 64.3843 31.242 63.75 30.4596 63.75C29.6772 63.75 29.043 64.3843 29.043 65.1667C29.043 65.9491 29.6772 66.5833 30.4596 66.5833Z" fill="#45B3F1"/>
<path d="M36.1276 66.5843C36.91 66.5843 37.5443 65.95 37.5443 65.1676C37.5443 64.3852 36.91 63.751 36.1276 63.751C35.3452 63.751 34.7109 64.3852 34.7109 65.1676C34.7109 65.95 35.3452 66.5843 36.1276 66.5843Z" fill="#45B3F1"/>
<path d="M33.2917 70.8333C34.0741 70.8333 34.7083 70.1991 34.7083 69.4167C34.7083 68.6343 34.0741 68 33.2917 68C32.5093 68 31.875 68.6343 31.875 69.4167C31.875 70.1991 32.5093 70.8333 33.2917 70.8333Z" fill="#45B3F1"/>
<path d="M33.2917 62.3343C34.0741 62.3343 34.7083 61.7 34.7083 60.9176C34.7083 60.1352 34.0741 59.501 33.2917 59.501C32.5093 59.501 31.875 60.1352 31.875 60.9176C31.875 61.7 32.5093 62.3343 33.2917 62.3343Z" fill="#45B3F1"/>
</g>
<defs>
<clipPath id="clip0">
<rect width="85" height="85" fill="white"/>
</clipPath>
</defs>
</svg>
