<svg width="73" height="73" viewBox="0 0 73 73" fill="none" xmlns="http://www.w3.org/2000/svg">
<g clip-path="url(#clip0)">
<path d="M36.5 15.6826C25.0217 15.6826 15.6836 25.0208 15.6836 36.499C15.6836 47.9773 25.0217 57.3154 36.5 57.3154C47.9783 57.3154 57.3164 47.9773 57.3164 36.499C57.3164 25.0208 47.9783 15.6826 36.5 15.6826ZM35.0742 54.4073C26.303 53.7153 19.2837 46.6961 18.5916 37.9248H35.0742V54.4073ZM35.0742 35.0732H18.5916C19.2837 26.302 26.303 19.2827 35.0742 18.5908V35.0732ZM37.9258 18.5908C46.697 19.2827 53.7163 26.302 54.4084 35.0732H37.9258V18.5908ZM37.9258 54.4073V37.9248H54.4084C53.7163 46.6961 46.697 53.7153 37.9258 54.4073Z" fill="#45B3F1"/>
<path d="M71.5742 35.0732H69.2566C69.0148 29.6327 67.4289 24.2848 64.6228 19.6179C64.217 18.9431 63.3413 18.7251 62.6661 19.1307C61.9914 19.5365 61.7731 20.4125 62.1789 21.0873C64.8015 25.4491 66.1993 30.2551 66.4284 35.0732H63.875C63.0877 35.0732 62.4492 35.7116 62.4492 36.499C62.4492 37.2865 63.0877 37.9248 63.875 37.9248H66.4279C66.0803 45.1659 63.1017 52.2409 57.6717 57.6707C52.354 62.9886 45.3879 66.059 37.9258 66.4065V63.874C37.9258 63.0866 37.2873 62.4482 36.5 62.4482C35.7127 62.4482 35.0742 63.0866 35.0742 63.874V66.4065C27.6121 66.059 20.646 62.9886 15.3283 57.6707C9.85315 52.1956 6.94598 45.1102 6.6065 37.9248H9.125C9.91232 37.9248 10.5508 37.2865 10.5508 36.499C10.5508 35.7116 9.91232 35.0732 9.125 35.0732H6.6065C6.94598 27.8879 9.85315 20.8025 15.3283 15.3272C20.7023 9.95326 27.8151 6.9979 35.0742 6.63832V9.12402C35.0742 9.91148 35.7127 10.5498 36.5 10.5498C37.2873 10.5498 37.9258 9.91148 37.9258 9.12402V6.63233C42.9959 6.85717 48.0359 8.3541 52.5057 11.1867C53.1707 11.6082 54.0517 11.4104 54.4733 10.7456C54.8947 10.0804 54.6971 9.19959 54.032 8.77813C49.2093 5.72182 43.6243 3.99249 37.9258 3.74042V1.4248C37.9258 0.637346 37.2873 -0.000976562 36.5 -0.000976562C35.7127 -0.000976562 35.0742 0.637346 35.0742 1.4248V3.73813C34.404 3.76679 33.7337 3.81541 33.0643 3.88556C25.6254 4.66475 18.6106 8.01206 13.3118 13.311C7.45541 19.1674 4.08871 26.8492 3.73911 35.0732H1.42578C0.638465 35.0732 0 35.7116 0 36.499C0 37.2865 0.638465 37.9248 1.42578 37.9248H3.73911C4.08857 46.1489 7.45527 53.8307 13.3118 59.6871C19.1683 65.5436 26.85 68.9103 35.0742 69.2598V71.5732C35.0742 72.3607 35.7127 72.999 36.5 72.999C37.2873 72.999 37.9258 72.3607 37.9258 71.5732V69.2599C46.1498 68.9105 53.8317 65.5436 59.6882 59.6872C64.9681 54.4071 68.2134 47.7041 69.0728 40.3026C69.1648 39.5114 69.2255 38.7183 69.2592 37.9248H71.5742C72.3615 37.9248 73 37.2865 73 36.499C73 35.7116 72.3615 35.0732 71.5742 35.0732Z" fill="#45B3F1"/>
</g>
<defs>
<clipPath id="clip0">
<rect width="73" height="73" fill="white" transform="translate(0 -0.000976562)"/>
</clipPath>
</defs>
</svg>
