<svg width="59" height="59" viewBox="0 0 59 59" fill="none" xmlns="http://www.w3.org/2000/svg">
<circle cx="29.5" cy="29.5" r="29.5" fill="#45B3F1"/>
<path d="M28.176 22.144L27.984 19.744C25.872 20.32 22.728 21.88 21.024 23.224C17.904 25.672 16.008 28.888 16.008 32.344C16.008 35.536 17.664 37.336 20.784 37.336C24.6 37.336 27.672 34.384 27.672 30.736C27.672 28.456 26.016 26.8 23.496 26.8C22.464 26.8 21.528 27.064 20.76 27.592C22.608 24.232 25.56 22.936 28.176 22.144ZM24.264 31.168C24.264 33.064 22.872 34.864 21.216 34.864C20.04 34.864 19.344 34.072 19.344 32.776C19.344 31.96 19.656 30.664 19.848 30.184C20.928 29.632 21.744 29.392 22.512 29.392C23.616 29.392 24.264 30.064 24.264 31.168ZM43.1841 28.216H38.2401L39.3201 23.152H36.0321L34.9521 28.216H30.0561L29.4081 31.24H34.3041L33.2241 36.304H36.5121L37.5921 31.24H42.5361L43.1841 28.216Z" fill="white"/>
</svg>
