<svg width="330" height="130" viewBox="0 0 330 130" fill="none" xmlns="http://www.w3.org/2000/svg">
<mask id="mask0" mask-type="alpha" maskUnits="userSpaceOnUse" x="0" y="0" width="330" height="130">
<rect width="330" height="130" fill="#C4C4C4"/>
</mask>
<g mask="url(#mask0)">
</g>
<g clip-path="url(#clip0)">
<path d="M138.4 48.9849C140.017 47.3024 141.013 45.0202 141.013 42.5085C141.013 37.3491 136.816 33.1519 131.657 33.1519C126.497 33.1519 122.3 37.3493 122.3 42.5085C122.3 45.0204 123.297 47.3024 124.913 48.9849C119.361 49.5021 115 54.1856 115 59.8706V78.8112C115 81.3595 117.073 83.4329 119.622 83.4329C120.219 83.4329 120.79 83.3177 121.314 83.1105V106.089C120.15 106.64 119.341 107.824 119.341 109.195V111.563C119.341 113.458 120.883 115 122.779 115H140.535C142.431 115 143.973 113.458 143.973 111.563V109.195C143.973 107.824 143.164 106.641 142 106.09V96.4339C142 95.6249 141.345 94.9691 140.536 94.9691C139.727 94.9691 139.071 95.6249 139.071 96.4339V105.756H133.122V86.9841H134.222C135.031 86.9841 135.687 86.3282 135.687 85.5192C135.687 84.7103 135.031 84.0544 134.222 84.0544H129.092C128.283 84.0544 127.627 84.7103 127.627 85.5192C127.627 86.3282 128.283 86.9841 129.092 86.9841H130.192V105.756H124.244V80.2759H139.07V89.598C139.07 90.4069 139.726 91.0628 140.535 91.0628C141.344 91.0628 142 90.4069 142 89.598V83.1107C142.524 83.3177 143.095 83.4327 143.692 83.4327C146.24 83.4327 148.313 81.3595 148.313 78.811V59.8704C148.313 54.1856 143.952 49.5021 138.4 48.9849ZM131.657 36.0813C135.201 36.0813 138.084 38.9646 138.084 42.5083C138.084 46.0522 135.201 48.9355 131.657 48.9355C128.113 48.9355 125.23 46.0522 125.23 42.5083C125.23 38.9646 128.113 36.0813 131.657 36.0813ZM119.622 80.503C118.689 80.503 117.93 79.744 117.93 78.811V65.4786H121.313V78.811C121.313 79.744 120.554 80.503 119.622 80.503ZM122.27 111.562V109.195C122.27 108.915 122.498 108.687 122.779 108.687H130.192V112.071H122.778C122.498 112.071 122.27 111.843 122.27 111.562ZM141.043 111.562C141.043 111.843 140.815 112.071 140.535 112.071H133.122V108.687H140.535C140.815 108.687 141.043 108.915 141.043 109.195L141.043 111.562ZM143.692 80.503C142.76 80.503 142.001 79.745 142 78.813V78.8108C142 78.8103 142 78.8097 142 78.8089V65.4786H145.384V78.811C145.384 79.744 144.625 80.503 143.692 80.503ZM145.384 62.5489H142V60.0679C142 59.2589 141.344 58.603 140.535 58.603C139.726 58.603 139.07 59.2589 139.07 60.0679V77.346H124.243V60.0679C124.243 59.2589 123.587 58.603 122.778 58.603C121.969 58.603 121.313 59.2589 121.313 60.0679V62.5489H117.93V59.8706C117.93 55.4563 121.521 51.8651 125.935 51.8651H137.378C141.793 51.8651 145.384 55.4563 145.384 59.8706V62.5489Z" fill="#45B3F1"/>
<path d="M205.089 48.9844C206.705 47.302 207.702 45.0197 207.702 42.508C207.702 37.3486 203.504 33.1514 198.345 33.1514C193.186 33.1514 188.988 37.3488 188.988 42.508C188.988 45.0199 189.985 47.302 191.602 48.9844C186.05 49.5016 181.688 54.1852 181.688 59.8701L181.688 67.0389C181.688 67.8478 182.343 68.5037 183.152 68.5037C183.961 68.5037 184.617 67.8478 184.617 67.0389V65.4781H188.002V78.8084V78.8103C188.002 79.2629 187.826 79.6871 187.505 80.007C187.186 80.326 186.762 80.5017 186.311 80.5017C185.377 80.5017 184.617 79.743 184.617 78.8103V73.8748C184.617 73.0658 183.961 72.41 183.152 72.41C182.343 72.41 181.688 73.0658 181.688 73.8748V78.8103C181.688 81.3584 183.761 83.4314 186.311 83.4314C186.899 83.4314 187.47 83.3209 188.002 83.1121V106.089C186.838 106.64 186.029 107.823 186.029 109.194V111.562C186.029 113.458 187.571 115 189.467 115H207.224C209.12 115 210.662 113.458 210.662 111.562V109.194C210.662 107.823 209.852 106.64 208.688 106.088V96.4334C208.688 95.6244 208.032 94.9685 207.223 94.9685C206.414 94.9685 205.758 95.6244 205.758 96.4334V105.756H199.81V86.9836H200.91C201.719 86.9836 202.375 86.3277 202.375 85.5187C202.375 84.7098 201.719 84.0539 200.91 84.0539H195.781C194.972 84.0539 194.316 84.7098 194.316 85.5187C194.316 86.3277 194.972 86.9836 195.781 86.9836H196.881V105.756H190.932V80.2754H205.758V89.5975C205.758 90.4064 206.414 91.0623 207.223 91.0623C208.032 91.0623 208.687 90.4064 208.687 89.5975V83.1098C209.212 83.3172 209.783 83.4322 210.38 83.4322C212.929 83.4322 215.002 81.359 215.002 78.8105V59.8699C215.002 54.1852 210.641 49.5016 205.089 48.9844ZM198.345 36.0809C201.889 36.0809 204.772 38.9641 204.772 42.5078C204.772 46.0518 201.889 48.935 198.345 48.935C194.801 48.935 191.918 46.0518 191.918 42.5078C191.918 38.9641 194.801 36.0809 198.345 36.0809ZM184.618 62.5484V59.8701C184.618 55.4559 188.209 51.8646 192.624 51.8646H204.067C208.481 51.8646 212.072 55.4559 212.072 59.8701V62.5484H208.688V60.0674C208.688 59.2584 208.033 58.6025 207.224 58.6025C206.415 58.6025 205.759 59.2584 205.759 60.0674V77.3455H190.932V60.0674C190.932 59.2584 190.276 58.6025 189.467 58.6025C188.658 58.6025 188.002 59.2584 188.002 60.0674V62.5484H184.618ZM188.959 111.562V109.194C188.959 108.914 189.187 108.686 189.467 108.686H196.88V112.07H189.467C189.187 112.07 188.959 111.842 188.959 111.562ZM207.732 111.562C207.732 111.842 207.504 112.07 207.223 112.07H199.81V108.686H207.223C207.504 108.686 207.732 108.914 207.732 109.195V111.562ZM210.38 80.5025C209.447 80.5025 208.688 79.7435 208.688 78.8105V65.4781H212.072V78.8105C212.072 79.7435 211.313 80.5025 210.38 80.5025Z" fill="#45B3F1"/>
<path d="M185.175 41.4733L180.242 36.5409C179.67 35.9688 178.743 35.9688 178.171 36.5409C177.599 37.1129 177.599 38.0405 178.171 38.6124L180.602 41.0442H149.4L151.831 38.6124C152.403 38.0403 152.403 37.1127 151.831 36.5409C151.259 35.9688 150.332 35.9688 149.76 36.5409L144.827 41.4733C144.255 42.0454 144.255 42.9729 144.827 43.5448L149.76 48.4772C150.046 48.7633 150.421 48.9063 150.796 48.9063C151.17 48.9063 151.545 48.7633 151.831 48.4772C152.403 47.9051 152.403 46.9776 151.831 46.4057L149.4 43.9739H180.602L178.171 46.4057C177.599 46.9778 177.599 47.9053 178.171 48.4772C178.457 48.7631 178.832 48.9063 179.206 48.9063C179.581 48.9063 179.956 48.7633 180.242 48.4772L185.175 43.5448C185.747 42.9729 185.747 42.0454 185.175 41.4733Z" fill="#45B3F1"/>
<path d="M164.662 30.4356C165.457 30.5785 166.22 30.0504 166.364 29.2541L167.698 21.859L169.897 29.3127C169.902 29.3301 169.908 29.3473 169.913 29.3647C170.153 30.0791 170.819 30.5574 171.572 30.5574H171.581C172.338 30.5535 173.003 30.0674 173.237 29.3477C173.243 29.3309 173.248 29.3141 173.253 29.2971L175.376 21.8492L176.794 29.269C176.945 30.0637 177.713 30.5846 178.507 30.4328C179.302 30.2811 179.823 29.5137 179.671 28.7192L177.317 16.4014C177.159 15.6233 176.494 15.0484 175.701 15.0035C174.908 14.9609 174.183 15.4551 173.938 16.2106C173.932 16.2274 173.927 16.2442 173.922 16.2611L171.553 24.5721L169.097 16.2463C169.092 16.2289 169.086 16.2115 169.081 16.1943C168.828 15.4412 168.096 14.9545 167.304 15.0053C166.512 15.0584 165.853 15.6404 165.7 16.4373L163.481 28.7338C163.337 29.5301 163.866 30.292 164.662 30.4356Z" fill="#45B3F1"/>
<path d="M155.58 19.057C155.029 19.479 154.235 19.3375 153.863 18.7513C153.534 18.2324 153.658 17.548 154.147 17.1767L156.67 15.2635C156.896 15.0925 157.171 15 157.454 15C158.17 15 158.75 15.5805 158.75 16.2965V28.6435C158.75 29.3064 158.213 29.8438 157.55 29.8438C156.887 29.8438 156.35 29.3064 156.35 28.6435V18.4678L155.58 19.057Z" fill="#45B3F1"/>
</g>
<defs>
<clipPath id="clip0">
<rect width="100" height="100" fill="white" transform="translate(115 15)"/>
</clipPath>
</defs>
</svg>
