<svg width="330" height="130" viewBox="0 0 330 130" fill="none" xmlns="http://www.w3.org/2000/svg">
<mask id="mask0" mask-type="alpha" maskUnits="userSpaceOnUse" x="0" y="0" width="330" height="130">
<rect width="330" height="130" fill="#C4C4C4"/>
</mask>
<g mask="url(#mask0)">
<path d="M195.01 14.752H195.01C183.831 14.752 174.77 23.8182 174.77 35.0016C174.77 46.1851 183.831 55.2513 195.01 55.2513C206.188 55.2513 215.25 46.1851 215.25 35.0016V35.0014C215.238 23.8231 206.183 14.764 195.01 14.752ZM195.009 51.4181C185.948 51.4179 178.601 44.0682 178.601 35.0016C178.601 25.935 185.948 18.5852 195.01 18.5852C204.072 18.5852 211.418 25.9349 211.418 35.0014C211.408 44.064 204.068 51.4081 195.009 51.4181Z" fill="#45B3F1" stroke="#45B3F1" stroke-width="0.5"/>
<path d="M200.139 27.1843L200.139 27.1843L191.469 38.75L189.699 36.979L189.699 36.979L189.696 36.976C188.944 36.2496 187.749 36.26 187.01 36.9993C186.271 37.7386 186.261 38.934 186.987 39.686L186.987 39.686L186.99 39.6891C187.659 40.3587 188.206 40.9131 188.659 41.3716C189.427 42.1507 189.923 42.6527 190.28 42.9721C190.566 43.2277 190.787 43.388 191.009 43.479C191.237 43.5727 191.444 43.584 191.676 43.584C192.279 43.584 192.847 43.2999 193.209 42.8173L203.204 29.4842C203.839 28.6374 203.667 27.4361 202.821 26.8009C201.974 26.1658 200.774 26.3374 200.139 27.1843Z" fill="#45B3F1" stroke="#45B3F1" stroke-width="0.5"/>
<path d="M175.792 60.2679L165.836 25.4248C164.032 19.1063 158.259 14.75 151.691 14.75C145.123 14.75 139.35 19.1063 137.546 25.4248L127.591 60.2644C121.727 61.7155 117.078 66.1906 115.408 72.0061C113.724 77.8686 115.327 84.1841 119.603 88.5325C123.848 92.8505 130.076 94.5637 135.927 93.0317C145.127 100.438 158.242 100.438 167.442 93.0317C173.293 94.5637 179.52 92.8505 183.766 88.5325C188.042 84.1841 189.645 77.8686 187.961 72.0061C186.292 66.1953 181.65 61.7228 175.792 60.2679ZM129.334 84.973C130.215 86.657 131.282 88.236 132.516 89.6802C126.247 90.0738 120.552 85.9264 119.033 79.7796C117.512 73.6257 120.629 67.2937 126.373 64.725C126.339 65.2242 126.501 65.7248 126.837 66.113C127.287 66.6314 127.978 66.8706 128.651 66.7406C129.325 66.6106 129.877 66.1311 130.101 65.4829L130.102 65.483L130.106 65.4699L140.372 29.5219L141.062 27.1052L141.208 26.5944L141.237 26.4904L141.241 26.4787L141.242 26.4735L141.242 26.4732L141.244 26.468C141.244 26.4678 141.243 26.4676 141.243 26.4674C142.581 21.8013 146.847 18.5854 151.699 18.5854C156.553 18.5854 160.819 21.8027 162.156 26.4705C162.156 26.4714 162.156 26.4719 162.156 26.472L162.157 26.4757L162.157 26.4771L162.159 26.4816L162.16 26.4885L162.189 26.5886L162.333 27.092L163.019 29.4972C164.33 34.0874 167.327 44.5848 173.293 65.4782L173.293 65.4782C173.482 66.1369 174.007 66.6451 174.671 66.8114C175.335 66.9777 176.038 66.7768 176.514 66.2843C176.917 65.8679 177.105 65.2966 177.04 64.7319C182.786 67.2986 185.906 73.6321 184.385 79.7888C182.864 85.9443 177.156 90.0934 170.878 89.6879C172.113 88.2413 173.181 86.6597 174.062 84.9731C176.191 85.649 178.528 85.1003 180.135 83.5316C181.795 81.9116 182.387 79.4871 181.66 77.2841C180.956 75.1482 179.133 73.5823 176.928 73.2024C176.842 72.2455 176.051 71.4841 175.068 71.4595C174.009 71.4331 173.13 72.2698 173.104 73.3282L173.104 73.3282V73.3344C173.104 85.1625 163.52 94.7508 151.698 94.7508C139.876 94.7508 130.292 85.1625 130.292 73.3344H130.292L130.292 73.3282C130.265 72.2698 129.386 71.4331 128.328 71.4595C127.345 71.4841 126.553 72.2455 126.467 73.2024C124.263 73.5823 122.439 75.1482 121.735 77.2841C121.009 79.4871 121.601 81.9116 123.261 83.5316C124.868 85.1004 127.205 85.6491 129.334 84.973ZM178.101 79.1683L178.101 79.1696C178.107 79.8586 177.791 80.5107 177.247 80.9335C176.775 81.3004 176.179 81.4581 175.594 81.3787C176.067 79.974 176.415 78.5301 176.632 77.0638C177.504 77.3856 178.099 78.2196 178.101 79.1683ZM125.294 79.1694L125.294 79.1683C125.297 78.2196 125.892 77.3856 126.763 77.0638C126.981 78.53 127.328 79.9739 127.802 81.3784C127.217 81.4573 126.621 81.2994 126.149 80.9326C125.605 80.51 125.289 79.8582 125.294 79.1694Z" fill="#45B3F1" stroke="#45B3F1" stroke-width="0.5"/>
<path d="M127.021 101.978L127.021 101.978L127.018 101.981C126.292 102.733 126.303 103.929 127.042 104.668C127.781 105.407 128.976 105.418 129.727 104.691L129.727 104.691L129.73 104.688L131.459 102.96V105C131.459 108.544 128.588 111.416 125.046 111.416H116.717C115.658 111.416 114.801 112.275 114.801 113.333C114.801 114.391 115.658 115.25 116.717 115.25H125.046H125.046C130.702 115.244 135.285 110.658 135.291 105V105V102.96L137.018 104.688L137.018 104.688L137.021 104.691C137.773 105.418 138.968 105.407 139.707 104.668C140.446 103.929 140.456 102.733 139.73 101.981L139.73 101.981L139.727 101.978L134.73 96.9799C134.182 96.4314 133.358 96.2672 132.641 96.5639C132.628 96.5694 132.615 96.5747 132.602 96.58C132.511 96.6167 132.423 96.6524 132.295 96.7488C132.162 96.8483 131.98 97.0165 131.655 97.3345C131.31 97.6731 130.791 98.1947 129.98 99.0104C129.255 99.7388 128.297 100.702 127.021 101.978Z" fill="#45B3F1" stroke="#45B3F1" stroke-width="0.5"/>
<path d="M171.939 104.999V102.96L173.666 104.688L173.666 104.688L173.67 104.691C174.421 105.417 175.616 105.407 176.355 104.668C177.094 103.928 177.105 102.733 176.379 101.981L176.379 101.981L176.376 101.978L171.378 96.9779C171.378 96.9779 171.378 96.9779 171.378 96.9778C170.83 96.4294 170.006 96.2652 169.29 96.562C169.276 96.5675 169.263 96.5728 169.25 96.5781C169.16 96.6147 169.071 96.6504 168.943 96.7468C168.81 96.8463 168.628 97.0146 168.304 97.3326C167.959 97.6711 167.44 98.1928 166.628 99.0086C165.903 99.7369 164.945 100.7 163.67 101.976L163.67 101.976L163.667 101.979C162.941 102.731 162.951 103.927 163.69 104.666C164.429 105.405 165.624 105.416 166.376 104.689L166.376 104.689L166.379 104.686L168.108 102.959V104.999V105C168.113 110.658 172.697 115.244 178.352 115.249H178.353H186.682C187.74 115.249 188.598 114.391 188.598 113.333C188.598 112.274 187.74 111.416 186.682 111.416H178.353C174.811 111.416 171.939 108.543 171.939 104.999Z" fill="#45B3F1" stroke="#45B3F1" stroke-width="0.5"/>
<path d="M145.342 106.978L145.342 106.978L145.339 106.981C144.613 107.733 144.623 108.929 145.362 109.668C146.101 110.407 147.296 110.418 148.048 109.691L148.048 109.691L148.051 109.688L149.78 107.96V113.333C149.78 114.391 150.637 115.25 151.695 115.25C152.754 115.25 153.611 114.391 153.611 113.333V107.96L155.337 109.687C155.818 110.184 156.529 110.383 157.199 110.208C157.868 110.032 158.392 109.509 158.567 108.839C158.742 108.17 158.543 107.458 158.046 106.977L153.05 101.98C153.05 101.98 153.05 101.98 153.05 101.98C152.502 101.431 151.678 101.267 150.962 101.564C150.948 101.569 150.935 101.575 150.922 101.58C150.831 101.617 150.743 101.652 150.615 101.749C150.482 101.848 150.3 102.017 149.976 102.335C149.631 102.673 149.112 103.195 148.3 104.011C147.575 104.739 146.617 105.702 145.342 106.978Z" fill="#45B3F1" stroke="#45B3F1" stroke-width="0.5"/>
</g>
</svg>
