<svg width="290" height="1089" viewBox="0 0 290 1089" fill="none" xmlns="http://www.w3.org/2000/svg">
<rect width="290" height="1089" rx="10" fill="#FAFAFA"/>
<mask id="mask0" mask-type="alpha" maskUnits="userSpaceOnUse" x="0" y="0" width="290" height="1089">
<rect width="290" height="1089" rx="10" fill="#F2FAFF"/>
</mask>
<g mask="url(#mask0)">
<circle cx="40.5" cy="164.5" r="28.5" fill="#F4F5F5"/>
<circle cx="9.5" cy="179.5" r="14.5" fill="#F4F5F5"/>
<circle cx="316.5" cy="261.5" r="55.5" fill="#F4F5F5"/>
<circle cx="204.5" cy="-23.5" r="55.5" fill="#F4F5F5"/>
<circle cx="68" cy="1128" r="162" fill="#F4F5F5"/>
<circle cx="290" cy="974" r="70" fill="#F4F5F5"/>
<circle cx="97" cy="84" r="45" fill="#F4F5F5"/>
<mask id="mask1" mask-type="alpha" maskUnits="userSpaceOnUse" x="-58" y="-36" width="181" height="181">
<path d="M6.39879 -7.19734C-58.018 21.4244 -11.234 120.287 19.3648 123.806C42.8718 124.096 19.5494 103.539 31.842 92.6263C47.2078 78.9848 69.1379 106.068 94.9444 86.3312C120.751 66.5947 116.287 47.282 89.7592 41.2086C63.2317 35.1352 82.0819 -40.8249 6.39879 -7.19734Z" fill="#B62930"/>
</mask>
<g mask="url(#mask1)">
<circle cx="14.6622" cy="19.933" r="1.49012" transform="rotate(-41.598 14.6622 19.933)" fill="#EC1F27"/>
<circle cx="0.400505" cy="32.5948" r="1.49012" transform="rotate(-41.598 0.400505 32.5948)" fill="#EC1F27"/>
<circle cx="28.9278" cy="7.26897" r="1.49012" transform="rotate(-41.598 28.9278 7.26897)" fill="#EC1F27"/>
<circle cx="21.795" cy="13.6007" r="1.49012" transform="rotate(-41.598 21.795 13.6007)" fill="#EC1F27"/>
<circle cx="7.52941" cy="26.2628" r="1.49012" transform="rotate(-41.598 7.52941 26.2628)" fill="#EC1F27"/>
<circle cx="36.0568" cy="0.936637" r="1.49012" transform="rotate(-41.598 36.0568 0.936637)" fill="#EC1F27"/>
<circle cx="6.31066" cy="75.1772" r="1.49012" transform="rotate(-41.598 6.31066 75.1772)" fill="#EC1F27"/>
<circle cx="34.84" cy="49.8509" r="1.49012" transform="rotate(-41.598 34.84 49.8509)" fill="#EC1F27"/>
<circle cx="63.3673" cy="24.5231" r="1.49012" transform="rotate(-41.598 63.3673 24.5231)" fill="#EC1F27"/>
<circle cx="20.5763" cy="62.5131" r="1.49012" transform="rotate(-41.598 20.5763 62.5131)" fill="#EC1F27"/>
<circle cx="49.1036" cy="37.187" r="1.49012" transform="rotate(-41.598 49.1036 37.187)" fill="#EC1F27"/>
<circle cx="77.631" cy="11.8608" r="1.49012" transform="rotate(-41.598 77.631 11.8608)" fill="#EC1F27"/>
<circle cx="13.4435" cy="68.8444" r="1.49012" transform="rotate(-41.598 13.4435 68.8444)" fill="#EC1F27"/>
<circle cx="41.9708" cy="43.519" r="1.49012" transform="rotate(-41.598 41.9708 43.519)" fill="#EC1F27"/>
<circle cx="70.4982" cy="18.1936" r="1.49012" transform="rotate(-41.598 70.4982 18.1936)" fill="#EC1F27"/>
<circle cx="-0.822151" cy="81.5092" r="1.49012" transform="rotate(-41.598 -0.822151 81.5092)" fill="#EC1F27"/>
<circle cx="27.7091" cy="56.1811" r="1.49012" transform="rotate(-41.598 27.7091 56.1811)" fill="#EC1F27"/>
<circle cx="56.2364" cy="30.8549" r="1.49012" transform="rotate(-41.598 56.2364 30.8549)" fill="#EC1F27"/>
<circle cx="84.7638" cy="5.52874" r="1.49012" transform="rotate(-41.598 84.7638 5.52874)" fill="#EC1F27"/>
<circle cx="-2.0409" cy="130.405" r="1.49012" transform="rotate(-41.598 -2.0409 130.405)" fill="#EC1F27"/>
<circle cx="26.4864" cy="105.081" r="1.49012" transform="rotate(-41.598 26.4864 105.081)" fill="#EC1F27"/>
<circle cx="55.0138" cy="79.7553" r="1.49012" transform="rotate(-41.598 55.0138 79.7553)" fill="#EC1F27"/>
<circle cx="83.5411" cy="54.4272" r="1.49012" transform="rotate(-41.598 83.5411 54.4272)" fill="#EC1F27"/>
<circle cx="12.2247" cy="117.741" r="1.49012" transform="rotate(-41.598 12.2247 117.741)" fill="#EC1F27"/>
<circle cx="40.7521" cy="92.4171" r="1.49012" transform="rotate(-41.598 40.7521 92.4171)" fill="#EC1F27"/>
<circle cx="69.2794" cy="67.0909" r="1.49012" transform="rotate(-41.598 69.2794 67.0909)" fill="#EC1F27"/>
<circle cx="97.8068" cy="41.7667" r="1.49012" transform="rotate(-41.598 97.8068 41.7667)" fill="#EC1F27"/>
<circle cx="5.09191" cy="124.073" r="1.49012" transform="rotate(-41.598 5.09191 124.073)" fill="#EC1F27"/>
<circle cx="33.6193" cy="98.7494" r="1.49012" transform="rotate(-41.598 33.6193 98.7494)" fill="#EC1F27"/>
<circle cx="62.1466" cy="73.423" r="1.49012" transform="rotate(-41.598 62.1466 73.423)" fill="#EC1F27"/>
<circle cx="90.6739" cy="48.0991" r="1.49012" transform="rotate(-41.598 90.6739 48.0991)" fill="#EC1F27"/>
<circle cx="19.3536" cy="111.413" r="1.49012" transform="rotate(-41.598 19.3536 111.413)" fill="#EC1F27"/>
<circle cx="47.881" cy="86.0851" r="1.49012" transform="rotate(-41.598 47.881 86.0851)" fill="#EC1F27"/>
<circle cx="76.4083" cy="60.7589" r="1.49012" transform="rotate(-41.598 76.4083 60.7589)" fill="#EC1F27"/>
<circle cx="104.936" cy="35.4347" r="1.49012" transform="rotate(-41.598 104.936 35.4347)" fill="#EC1F27"/>
<circle cx="7.77941" cy="133.753" r="1.49012" transform="rotate(-41.598 7.77941 133.753)" fill="#1AAD4F"/>
<circle cx="36.3068" cy="108.428" r="1.49012" transform="rotate(-41.598 36.3068 108.428)" fill="#1AAD4F"/>
<circle cx="64.8341" cy="83.1023" r="1.49012" transform="rotate(-41.598 64.8341 83.1023)" fill="#1AAD4F"/>
<circle cx="93.3614" cy="57.7762" r="1.49012" transform="rotate(-41.598 93.3614 57.7762)" fill="#1AAD4F"/>
<circle cx="22.045" cy="121.091" r="1.49012" transform="rotate(-41.598 22.045 121.091)" fill="#1AAD4F"/>
<circle cx="50.5724" cy="95.7651" r="1.49012" transform="rotate(-41.598 50.5724 95.7651)" fill="#1AAD4F"/>
<circle cx="79.0997" cy="70.4389" r="1.49012" transform="rotate(-41.598 79.0997 70.4389)" fill="#1AAD4F"/>
<circle cx="107.627" cy="45.1127" r="1.49012" transform="rotate(-41.598 107.627 45.1127)" fill="#1AAD4F"/>
<circle cx="14.9122" cy="127.422" r="1.49012" transform="rotate(-41.598 14.9122 127.422)" fill="#1AAD4F"/>
<circle cx="43.4396" cy="102.097" r="1.49012" transform="rotate(-41.598 43.4396 102.097)" fill="#1AAD4F"/>
<circle cx="71.9669" cy="76.7708" r="1.49012" transform="rotate(-41.598 71.9669 76.7708)" fill="#1AAD4F"/>
<circle cx="100.494" cy="51.4441" r="1.49012" transform="rotate(-41.598 100.494 51.4441)" fill="#1AAD4F"/>
<circle cx="29.1739" cy="114.759" r="1.49012" transform="rotate(-41.598 29.1739 114.759)" fill="#1AAD4F"/>
<circle cx="57.7013" cy="89.435" r="1.49012" transform="rotate(-41.598 57.7013 89.435)" fill="#1AAD4F"/>
<circle cx="86.2286" cy="64.1069" r="1.49012" transform="rotate(-41.598 86.2286 64.1069)" fill="#1AAD4F"/>
<circle cx="114.756" cy="38.7807" r="1.49012" transform="rotate(-41.598 114.756 38.7807)" fill="#1AAD4F"/>
<circle cx="17.381" cy="137.3" r="1.49012" transform="rotate(-41.598 17.381 137.3)" fill="#FFC613"/>
<circle cx="45.9083" cy="111.976" r="1.49012" transform="rotate(-41.598 45.9083 111.976)" fill="#FFC613"/>
<circle cx="74.4357" cy="86.6498" r="1.49012" transform="rotate(-41.598 74.4357 86.6498)" fill="#FFC613"/>
<circle cx="102.963" cy="61.3217" r="1.49012" transform="rotate(-41.598 102.963 61.3217)" fill="#FFC613"/>
<circle cx="31.6466" cy="124.636" r="1.49012" transform="rotate(-41.598 31.6466 124.636)" fill="#FFC613"/>
<circle cx="60.1739" cy="99.3116" r="1.49012" transform="rotate(-41.598 60.1739 99.3116)" fill="#FFC613"/>
<circle cx="88.7013" cy="73.9855" r="1.49012" transform="rotate(-41.598 88.7013 73.9855)" fill="#FFC613"/>
<circle cx="117.229" cy="48.6612" r="1.49012" transform="rotate(-41.598 117.229 48.6612)" fill="#FFC613"/>
<circle cx="24.5138" cy="130.968" r="1.49012" transform="rotate(-41.598 24.5138 130.968)" fill="#FFC613"/>
<circle cx="53.0411" cy="105.644" r="1.49012" transform="rotate(-41.598 53.0411 105.644)" fill="#FFC613"/>
<circle cx="81.5685" cy="80.3175" r="1.49012" transform="rotate(-41.598 81.5685 80.3175)" fill="#FFC613"/>
<circle cx="110.096" cy="54.9933" r="1.49012" transform="rotate(-41.598 110.096 54.9933)" fill="#FFC613"/>
<circle cx="38.7755" cy="118.308" r="1.49012" transform="rotate(-41.598 38.7755 118.308)" fill="#FFC613"/>
<circle cx="67.3028" cy="92.9796" r="1.49012" transform="rotate(-41.598 67.3028 92.9796)" fill="#FFC613"/>
<circle cx="95.8302" cy="67.6534" r="1.49012" transform="rotate(-41.598 95.8302 67.6534)" fill="#FFC613"/>
<circle cx="27.5802" cy="140.317" r="1.49012" transform="rotate(-41.598 27.5802 140.317)" fill="#0877BC"/>
<circle cx="56.1075" cy="114.992" r="1.49012" transform="rotate(-41.598 56.1075 114.992)" fill="#0877BC"/>
<circle cx="84.6349" cy="89.6662" r="1.49012" transform="rotate(-41.598 84.6349 89.6662)" fill="#0877BC"/>
<circle cx="113.162" cy="64.3381" r="1.49012" transform="rotate(-41.598 113.162 64.3381)" fill="#0877BC"/>
<circle cx="41.8458" cy="127.653" r="1.49012" transform="rotate(-41.598 41.8458 127.653)" fill="#0877BC"/>
<circle cx="70.3732" cy="102.328" r="1.49012" transform="rotate(-41.598 70.3732 102.328)" fill="#0877BC"/>
<circle cx="98.9005" cy="77.0017" r="1.49012" transform="rotate(-41.598 98.9005 77.0017)" fill="#0877BC"/>
<circle cx="34.713" cy="133.985" r="1.49012" transform="rotate(-41.598 34.713 133.985)" fill="#0877BC"/>
<circle cx="63.2403" cy="108.66" r="1.49012" transform="rotate(-41.598 63.2403 108.66)" fill="#0877BC"/>
<circle cx="91.7677" cy="83.3342" r="1.49012" transform="rotate(-41.598 91.7677 83.3342)" fill="#0877BC"/>
<circle cx="120.295" cy="58.008" r="1.49012" transform="rotate(-41.598 120.295 58.008)" fill="#0877BC"/>
<circle cx="48.9747" cy="121.324" r="1.49012" transform="rotate(-41.598 48.9747 121.324)" fill="#0877BC"/>
<circle cx="77.5021" cy="95.9963" r="1.49012" transform="rotate(-41.598 77.5021 95.9963)" fill="#0877BC"/>
<circle cx="106.029" cy="70.6701" r="1.49012" transform="rotate(-41.598 106.029 70.6701)" fill="#0877BC"/>
<circle cx="5.15832" cy="16.4194" r="1.49012" transform="rotate(-41.598 5.15832 16.4194)" fill="#0877BC"/>
<circle cx="19.4239" cy="3.7553" r="1.49012" transform="rotate(-41.598 19.4239 3.7553)" fill="#0877BC"/>
<circle cx="12.2911" cy="10.087" r="1.49012" transform="rotate(-41.598 12.2911 10.087)" fill="#0877BC"/>
<circle cx="-1.9745" cy="22.7491" r="1.49012" transform="rotate(-41.598 -1.9745 22.7491)" fill="#0877BC"/>
<circle cx="25.3341" cy="46.327" r="1.49012" transform="rotate(-41.598 25.3341 46.327)" fill="#0877BC"/>
<circle cx="53.8614" cy="21.0008" r="1.49012" transform="rotate(-41.598 53.8614 21.0008)" fill="#0877BC"/>
<circle cx="11.0724" cy="58.9897" r="1.49012" transform="rotate(-41.598 11.0724 58.9897)" fill="#0877BC"/>
<circle cx="39.5997" cy="33.6635" r="1.49012" transform="rotate(-41.598 39.5997 33.6635)" fill="#0877BC"/>
<circle cx="68.1271" cy="8.33733" r="1.49012" transform="rotate(-41.598 68.1271 8.33733)" fill="#0877BC"/>
<circle cx="3.93957" cy="65.3217" r="1.49012" transform="rotate(-41.598 3.93957 65.3217)" fill="#0877BC"/>
<circle cx="32.4669" cy="39.9954" r="1.49012" transform="rotate(-41.598 32.4669 39.9954)" fill="#0877BC"/>
<circle cx="60.9943" cy="14.6688" r="1.49012" transform="rotate(-41.598 60.9943 14.6688)" fill="#0877BC"/>
<circle cx="18.2013" cy="52.6596" r="1.49012" transform="rotate(-41.598 18.2013 52.6596)" fill="#0877BC"/>
<circle cx="46.7286" cy="27.3315" r="1.49012" transform="rotate(-41.598 46.7286 27.3315)" fill="#0877BC"/>
<circle cx="75.256" cy="2.0053" r="1.49012" transform="rotate(-41.598 75.256 2.0053)" fill="#0877BC"/>
<circle cx="16.9864" cy="101.56" r="1.49012" transform="rotate(-41.598 16.9864 101.56)" fill="#0877BC"/>
<circle cx="45.5138" cy="76.2319" r="1.49012" transform="rotate(-41.598 45.5138 76.2319)" fill="#0877BC"/>
<circle cx="74.0411" cy="50.9057" r="1.49012" transform="rotate(-41.598 74.0411 50.9057)" fill="#0877BC"/>
<circle cx="2.72472" cy="114.22" r="1.49012" transform="rotate(-41.598 2.72472 114.22)" fill="#0877BC"/>
<circle cx="31.2521" cy="88.8959" r="1.49012" transform="rotate(-41.598 31.2521 88.8959)" fill="#0877BC"/>
<circle cx="59.7794" cy="63.5698" r="1.49012" transform="rotate(-41.598 59.7794 63.5698)" fill="#0877BC"/>
<circle cx="88.3068" cy="38.2455" r="1.49012" transform="rotate(-41.598 88.3068 38.2455)" fill="#0877BC"/>
<circle cx="24.1193" cy="95.228" r="1.49012" transform="rotate(-41.598 24.1193 95.228)" fill="#0877BC"/>
<circle cx="52.6466" cy="69.9018" r="1.49012" transform="rotate(-41.598 52.6466 69.9018)" fill="#0877BC"/>
<circle cx="81.1739" cy="44.5737" r="1.49012" transform="rotate(-41.598 81.1739 44.5737)" fill="#0877BC"/>
<circle cx="9.85363" cy="107.888" r="1.49012" transform="rotate(-41.598 9.85363 107.888)" fill="#0877BC"/>
<circle cx="38.3849" cy="82.5639" r="1.49012" transform="rotate(-41.598 38.3849 82.5639)" fill="#0877BC"/>
<circle cx="66.9122" cy="57.2377" r="1.49012" transform="rotate(-41.598 66.9122 57.2377)" fill="#0877BC"/>
<circle cx="95.4396" cy="31.9135" r="1.49012" transform="rotate(-41.598 95.4396 31.9135)" fill="#0877BC"/>
<circle cx="10.3693" cy="-0.160806" r="1.49012" transform="rotate(-41.598 10.3693 -0.160806)" fill="#FFC613"/>
<circle cx="3.23644" cy="6.17116" r="1.49012" transform="rotate(-41.598 3.23644 6.17116)" fill="#FFC613"/>
<circle cx="16.2794" cy="42.4076" r="1.49012" transform="rotate(-41.598 16.2794 42.4076)" fill="#FFC613"/>
<circle cx="44.8068" cy="17.0831" r="1.49012" transform="rotate(-41.598 44.8068 17.0831)" fill="#FFC613"/>
<circle cx="2.01769" cy="55.0714" r="1.49012" transform="rotate(-41.598 2.01769 55.0714)" fill="#FFC613"/>
<circle cx="30.545" cy="29.7472" r="1.49012" transform="rotate(-41.598 30.545 29.7472)" fill="#FFC613"/>
<circle cx="59.0724" cy="4.41906" r="1.49012" transform="rotate(-41.598 59.0724 4.41906)" fill="#FFC613"/>
<circle cx="23.4122" cy="36.0773" r="1.49012" transform="rotate(-41.598 23.4122 36.0773)" fill="#FFC613"/>
<circle cx="51.9396" cy="10.7514" r="1.49012" transform="rotate(-41.598 51.9396 10.7514)" fill="#FFC613"/>
<circle cx="9.1466" cy="48.7394" r="1.49012" transform="rotate(-41.598 9.1466 48.7394)" fill="#FFC613"/>
<circle cx="37.6739" cy="23.4152" r="1.49012" transform="rotate(-41.598 37.6739 23.4152)" fill="#FFC613"/>
<circle cx="66.2013" cy="-1.91297" r="1.49012" transform="rotate(-41.598 66.2013 -1.91297)" fill="#FFC613"/>
<circle cx="7.93176" cy="97.644" r="1.49012" transform="rotate(-41.598 7.93176 97.644)" fill="#FFC613"/>
<circle cx="36.4591" cy="72.3178" r="1.49012" transform="rotate(-41.598 36.4591 72.3178)" fill="#FFC613"/>
<circle cx="64.9864" cy="46.9897" r="1.49012" transform="rotate(-41.598 64.9864 46.9897)" fill="#FFC613"/>
<circle cx="22.1974" cy="84.9799" r="1.49012" transform="rotate(-41.598 22.1974 84.9799)" fill="#FFC613"/>
<circle cx="50.7247" cy="59.6537" r="1.49012" transform="rotate(-41.598 50.7247 59.6537)" fill="#FFC613"/>
<circle cx="79.2521" cy="34.3295" r="1.49012" transform="rotate(-41.598 79.2521 34.3295)" fill="#FFC613"/>
<circle cx="15.0646" cy="91.3119" r="1.49012" transform="rotate(-41.598 15.0646 91.3119)" fill="#FFC613"/>
<circle cx="43.5919" cy="65.9858" r="1.49012" transform="rotate(-41.598 43.5919 65.9858)" fill="#FFC613"/>
<circle cx="72.1193" cy="40.6596" r="1.49012" transform="rotate(-41.598 72.1193 40.6596)" fill="#FFC613"/>
<circle cx="0.798942" cy="103.976" r="1.49012" transform="rotate(-41.598 0.798942 103.976)" fill="#FFC613"/>
<circle cx="29.3263" cy="78.6479" r="1.49012" transform="rotate(-41.598 29.3263 78.6479)" fill="#FFC613"/>
<circle cx="57.8536" cy="53.3217" r="1.49012" transform="rotate(-41.598 57.8536 53.3217)" fill="#FFC613"/>
<circle cx="86.3849" cy="27.9975" r="1.49012" transform="rotate(-41.598 86.3849 27.9975)" fill="#FFC613"/>
<circle cx="10.3458" cy="35.7224" r="1.49012" transform="rotate(-41.598 10.3458 35.7224)" fill="#1AAD4F"/>
<circle cx="38.8732" cy="10.3943" r="1.49012" transform="rotate(-41.598 38.8732 10.3943)" fill="#1AAD4F"/>
<circle cx="24.6114" cy="23.0583" r="1.49012" transform="rotate(-41.598 24.6114 23.0583)" fill="#1AAD4F"/>
<circle cx="17.4786" cy="29.3901" r="1.49012" transform="rotate(-41.598 17.4786 29.3901)" fill="#1AAD4F"/>
<circle cx="46.006" cy="4.0642" r="1.49012" transform="rotate(-41.598 46.006 4.0642)" fill="#1AAD4F"/>
<circle cx="3.213" cy="42.0522" r="1.49012" transform="rotate(-41.598 3.213 42.0522)" fill="#1AAD4F"/>
<circle cx="31.7403" cy="16.726" r="1.49012" transform="rotate(-41.598 31.7403 16.726)" fill="#1AAD4F"/>
<circle cx="1.99816" cy="90.9587" r="1.49012" transform="rotate(-41.598 1.99816 90.9587)" fill="#1AAD4F"/>
<circle cx="30.5255" cy="65.6326" r="1.49012" transform="rotate(-41.598 30.5255 65.6326)" fill="#1AAD4F"/>
<circle cx="59.0528" cy="40.3044" r="1.49012" transform="rotate(-41.598 59.0528 40.3044)" fill="#1AAD4F"/>
<circle cx="16.2638" cy="78.2944" r="1.49012" transform="rotate(-41.598 16.2638 78.2944)" fill="#1AAD4F"/>
<circle cx="44.7911" cy="52.9685" r="1.49012" transform="rotate(-41.598 44.7911 52.9685)" fill="#1AAD4F"/>
<circle cx="73.3185" cy="27.642" r="1.49012" transform="rotate(-41.598 73.3185 27.642)" fill="#1AAD4F"/>
<circle cx="9.13097" cy="84.6264" r="1.49012" transform="rotate(-41.598 9.13097 84.6264)" fill="#1AAD4F"/>
<circle cx="37.6583" cy="59.3005" r="1.49012" transform="rotate(-41.598 37.6583 59.3005)" fill="#1AAD4F"/>
<circle cx="66.1857" cy="33.9744" r="1.49012" transform="rotate(-41.598 66.1857 33.9744)" fill="#1AAD4F"/>
<circle cx="23.3927" cy="71.9643" r="1.49012" transform="rotate(-41.598 23.3927 71.9643)" fill="#1AAD4F"/>
<circle cx="51.92" cy="46.6362" r="1.49012" transform="rotate(-41.598 51.92 46.6362)" fill="#1AAD4F"/>
<circle cx="80.4474" cy="21.31" r="1.49012" transform="rotate(-41.598 80.4474 21.31)" fill="#1AAD4F"/>
</g>
<mask id="mask2" mask-type="alpha" maskUnits="userSpaceOnUse" x="222" y="756" width="212" height="213">
<path d="M358.613 933.859C433.767 899.392 377.516 784.092 341.579 780.391C314.005 780.379 341.645 804.164 327.38 817.135C309.548 833.349 283.449 801.89 253.457 825.398C223.465 848.906 228.97 871.495 260.168 878.248C291.366 885.002 270.316 974.356 358.613 933.859Z" fill="#B62930"/>
</mask>
<g mask="url(#mask2)">
<circle cx="290.607" cy="954.831" r="1.74783" transform="rotate(137.721 290.607 954.831)" fill="#EC1F27"/>
<circle cx="291.353" cy="897.451" r="1.74783" transform="rotate(137.721 291.353 897.451)" fill="#EC1F27"/>
<circle cx="274.799" cy="912.5" r="1.74783" transform="rotate(137.721 274.799 912.5)" fill="#EC1F27"/>
<circle cx="283.076" cy="904.974" r="1.74783" transform="rotate(137.721 283.076 904.974)" fill="#EC1F27"/>
<circle cx="266.521" cy="920.025" r="1.74783" transform="rotate(137.721 266.521 920.025)" fill="#EC1F27"/>
<circle cx="267.279" cy="862.657" r="1.74783" transform="rotate(137.721 267.279 862.657)" fill="#EC1F27"/>
<circle cx="283.83" cy="847.606" r="1.74783" transform="rotate(137.721 283.83 847.606)" fill="#EC1F27"/>
<circle cx="250.724" cy="877.706" r="1.74783" transform="rotate(137.721 250.724 877.706)" fill="#EC1F27"/>
<circle cx="292.107" cy="840.081" r="1.74783" transform="rotate(137.721 292.107 840.081)" fill="#EC1F27"/>
<circle cx="258.998" cy="870.18" r="1.74783" transform="rotate(137.721 258.998 870.18)" fill="#EC1F27"/>
<circle cx="275.552" cy="855.131" r="1.74783" transform="rotate(137.721 275.552 855.131)" fill="#EC1F27"/>
<circle cx="242.451" cy="885.231" r="1.74783" transform="rotate(137.721 242.451 885.231)" fill="#EC1F27"/>
<circle cx="288.818" cy="828.763" r="1.74783" transform="rotate(137.721 288.818 828.763)" fill="#1AAD4F"/>
<circle cx="255.713" cy="858.864" r="1.74783" transform="rotate(137.721 255.713 858.864)" fill="#1AAD4F"/>
<circle cx="272.263" cy="843.816" r="1.74783" transform="rotate(137.721 272.263 843.816)" fill="#1AAD4F"/>
<circle cx="239.158" cy="873.916" r="1.74783" transform="rotate(137.721 239.158 873.916)" fill="#1AAD4F"/>
<circle cx="280.541" cy="836.291" r="1.74783" transform="rotate(137.721 280.541 836.291)" fill="#1AAD4F"/>
<circle cx="247.431" cy="866.39" r="1.74783" transform="rotate(137.721 247.431 866.39)" fill="#1AAD4F"/>
<circle cx="263.986" cy="851.341" r="1.74783" transform="rotate(137.721 263.986 851.341)" fill="#1AAD4F"/>
<circle cx="230.884" cy="881.441" r="1.74783" transform="rotate(137.721 230.884 881.441)" fill="#1AAD4F"/>
<circle cx="277.506" cy="824.736" r="1.74783" transform="rotate(137.721 277.506 824.736)" fill="#FFC613"/>
<circle cx="244.4" cy="854.841" r="1.74783" transform="rotate(137.721 244.4 854.841)" fill="#FFC613"/>
<circle cx="260.951" cy="839.79" r="1.74783" transform="rotate(137.721 260.951 839.79)" fill="#FFC613"/>
<circle cx="227.845" cy="869.89" r="1.74783" transform="rotate(137.721 227.845 869.89)" fill="#FFC613"/>
<circle cx="269.228" cy="832.261" r="1.74783" transform="rotate(137.721 269.228 832.261)" fill="#FFC613"/>
<circle cx="236.119" cy="862.365" r="1.74783" transform="rotate(137.721 236.119 862.365)" fill="#FFC613"/>
<circle cx="285.779" cy="817.213" r="1.74783" transform="rotate(137.721 285.779 817.213)" fill="#FFC613"/>
<circle cx="252.674" cy="847.316" r="1.74783" transform="rotate(137.721 252.674 847.316)" fill="#FFC613"/>
<circle cx="219.572" cy="877.416" r="1.74783" transform="rotate(137.721 219.572 877.416)" fill="#FFC613"/>
<circle cx="265.502" cy="821.343" r="1.74783" transform="rotate(137.721 265.502 821.343)" fill="#0877BC"/>
<circle cx="232.396" cy="851.448" r="1.74783" transform="rotate(137.721 232.396 851.448)" fill="#0877BC"/>
<circle cx="282.052" cy="806.294" r="1.74783" transform="rotate(137.721 282.052 806.294)" fill="#0877BC"/>
<circle cx="248.947" cy="836.398" r="1.74783" transform="rotate(137.721 248.947 836.398)" fill="#0877BC"/>
<circle cx="290.328" cy="798.769" r="1.74783" transform="rotate(137.721 290.328 798.769)" fill="#0877BC"/>
<circle cx="257.224" cy="828.872" r="1.74783" transform="rotate(137.721 257.224 828.872)" fill="#0877BC"/>
<circle cx="224.115" cy="858.972" r="1.74783" transform="rotate(137.721 224.115 858.972)" fill="#0877BC"/>
<circle cx="273.775" cy="813.822" r="1.74783" transform="rotate(137.721 273.775 813.822)" fill="#0877BC"/>
<circle cx="240.67" cy="843.923" r="1.74783" transform="rotate(137.721 240.67 843.923)" fill="#0877BC"/>
<circle cx="285.998" cy="916.499" r="1.74783" transform="rotate(137.721 285.998 916.499)" fill="#0877BC"/>
<circle cx="277.724" cy="924.024" r="1.74783" transform="rotate(137.721 277.724 924.024)" fill="#0877BC"/>
<circle cx="278.459" cy="866.656" r="1.74783" transform="rotate(137.721 278.459 866.656)" fill="#0877BC"/>
<circle cx="261.908" cy="881.704" r="1.74783" transform="rotate(137.721 261.908 881.704)" fill="#0877BC"/>
<circle cx="270.185" cy="874.181" r="1.74783" transform="rotate(137.721 270.185 874.181)" fill="#0877BC"/>
<circle cx="286.736" cy="859.13" r="1.74783" transform="rotate(137.721 286.736 859.13)" fill="#0877BC"/>
<circle cx="253.631" cy="889.23" r="1.74783" transform="rotate(137.721 253.631 889.23)" fill="#0877BC"/>
<circle cx="288.4" cy="928.495" r="1.74783" transform="rotate(137.721 288.4 928.495)" fill="#FFC613"/>
<circle cx="289.142" cy="871.122" r="1.74783" transform="rotate(137.721 289.142 871.122)" fill="#FFC613"/>
<circle cx="272.588" cy="886.171" r="1.74783" transform="rotate(137.721 272.588 886.171)" fill="#FFC613"/>
<circle cx="280.861" cy="878.646" r="1.74783" transform="rotate(137.721 280.861 878.646)" fill="#FFC613"/>
<circle cx="264.306" cy="893.697" r="1.74783" transform="rotate(137.721 264.306 893.697)" fill="#FFC613"/>
<circle cx="279.642" cy="893.929" r="1.74783" transform="rotate(137.721 279.642 893.929)" fill="#1AAD4F"/>
<circle cx="287.916" cy="886.403" r="1.74783" transform="rotate(137.721 287.916 886.403)" fill="#1AAD4F"/>
<circle cx="271.369" cy="901.454" r="1.74783" transform="rotate(137.721 271.369 901.454)" fill="#1AAD4F"/>
</g>
<mask id="mask3" mask-type="alpha" maskUnits="userSpaceOnUse" x="204" y="42" width="212" height="213">
<path d="M340.613 219.859C415.767 185.392 359.516 70.0921 323.579 66.3913C296.005 66.3786 323.645 90.1636 309.38 103.135C291.548 119.349 265.449 87.8899 235.457 111.398C205.465 134.906 210.97 157.495 242.168 164.248C273.366 171.002 252.316 260.356 340.613 219.859Z" fill="#B62930"/>
</mask>
<g mask="url(#mask3)">
<circle cx="280.884" cy="233.306" r="1.74783" transform="rotate(137.721 280.884 233.306)" fill="#EC1F27"/>
<circle cx="289.158" cy="225.78" r="1.74783" transform="rotate(137.721 289.158 225.78)" fill="#EC1F27"/>
<circle cx="272.607" cy="240.831" r="1.74783" transform="rotate(137.721 272.607 240.831)" fill="#EC1F27"/>
<circle cx="273.353" cy="183.451" r="1.74783" transform="rotate(137.721 273.353 183.451)" fill="#EC1F27"/>
<circle cx="289.902" cy="168.399" r="1.74783" transform="rotate(137.721 289.902 168.399)" fill="#EC1F27"/>
<circle cx="256.799" cy="198.5" r="1.74783" transform="rotate(137.721 256.799 198.5)" fill="#EC1F27"/>
<circle cx="265.076" cy="190.974" r="1.74783" transform="rotate(137.721 265.076 190.974)" fill="#EC1F27"/>
<circle cx="281.627" cy="175.925" r="1.74783" transform="rotate(137.721 281.627 175.925)" fill="#EC1F27"/>
<circle cx="248.521" cy="206.025" r="1.74783" transform="rotate(137.721 248.521 206.025)" fill="#EC1F27"/>
<circle cx="282.384" cy="118.551" r="1.74783" transform="rotate(137.721 282.384 118.551)" fill="#EC1F27"/>
<circle cx="249.279" cy="148.657" r="1.74783" transform="rotate(137.721 249.279 148.657)" fill="#EC1F27"/>
<circle cx="265.83" cy="133.606" r="1.74783" transform="rotate(137.721 265.83 133.606)" fill="#EC1F27"/>
<circle cx="232.724" cy="163.706" r="1.74783" transform="rotate(137.721 232.724 163.706)" fill="#EC1F27"/>
<circle cx="274.107" cy="126.081" r="1.74783" transform="rotate(137.721 274.107 126.081)" fill="#EC1F27"/>
<circle cx="240.998" cy="156.18" r="1.74783" transform="rotate(137.721 240.998 156.18)" fill="#EC1F27"/>
<circle cx="290.658" cy="111.03" r="1.74783" transform="rotate(137.721 290.658 111.03)" fill="#EC1F27"/>
<circle cx="257.552" cy="141.131" r="1.74783" transform="rotate(137.721 257.552 141.131)" fill="#EC1F27"/>
<circle cx="224.451" cy="171.231" r="1.74783" transform="rotate(137.721 224.451 171.231)" fill="#EC1F27"/>
<circle cx="270.818" cy="114.763" r="1.74783" transform="rotate(137.721 270.818 114.763)" fill="#1AAD4F"/>
<circle cx="237.713" cy="144.864" r="1.74783" transform="rotate(137.721 237.713 144.864)" fill="#1AAD4F"/>
<circle cx="287.369" cy="99.7144" r="1.74783" transform="rotate(137.721 287.369 99.7144)" fill="#1AAD4F"/>
<circle cx="254.263" cy="129.816" r="1.74783" transform="rotate(137.721 254.263 129.816)" fill="#1AAD4F"/>
<circle cx="221.158" cy="159.916" r="1.74783" transform="rotate(137.721 221.158 159.916)" fill="#1AAD4F"/>
<circle cx="262.541" cy="122.291" r="1.74783" transform="rotate(137.721 262.541 122.291)" fill="#1AAD4F"/>
<circle cx="229.431" cy="152.39" r="1.74783" transform="rotate(137.721 229.431 152.39)" fill="#1AAD4F"/>
<circle cx="279.092" cy="107.236" r="1.74783" transform="rotate(137.721 279.092 107.236)" fill="#1AAD4F"/>
<circle cx="245.986" cy="137.341" r="1.74783" transform="rotate(137.721 245.986 137.341)" fill="#1AAD4F"/>
<circle cx="212.884" cy="167.441" r="1.74783" transform="rotate(137.721 212.884 167.441)" fill="#1AAD4F"/>
<circle cx="259.506" cy="110.736" r="1.74783" transform="rotate(137.721 259.506 110.736)" fill="#FFC613"/>
<circle cx="226.4" cy="140.841" r="1.74783" transform="rotate(137.721 226.4 140.841)" fill="#FFC613"/>
<circle cx="276.056" cy="95.6867" r="1.74783" transform="rotate(137.721 276.056 95.6867)" fill="#FFC613"/>
<circle cx="242.951" cy="125.79" r="1.74783" transform="rotate(137.721 242.951 125.79)" fill="#FFC613"/>
<circle cx="209.845" cy="155.89" r="1.74783" transform="rotate(137.721 209.845 155.89)" fill="#FFC613"/>
<circle cx="284.332" cy="88.1614" r="1.74783" transform="rotate(137.721 284.332 88.1614)" fill="#FFC613"/>
<circle cx="251.228" cy="118.261" r="1.74783" transform="rotate(137.721 251.228 118.261)" fill="#FFC613"/>
<circle cx="218.119" cy="148.364" r="1.74783" transform="rotate(137.721 218.119 148.364)" fill="#FFC613"/>
<circle cx="267.779" cy="103.213" r="1.74783" transform="rotate(137.721 267.779 103.213)" fill="#FFC613"/>
<circle cx="234.674" cy="133.316" r="1.74783" transform="rotate(137.721 234.674 133.316)" fill="#FFC613"/>
<circle cx="201.572" cy="163.416" r="1.74783" transform="rotate(137.721 201.572 163.416)" fill="#FFC613"/>
<circle cx="280.603" cy="77.2432" r="1.74783" transform="rotate(137.721 280.603 77.2432)" fill="#0877BC"/>
<circle cx="247.502" cy="107.343" r="1.74783" transform="rotate(137.721 247.502 107.343)" fill="#0877BC"/>
<circle cx="214.396" cy="137.448" r="1.74783" transform="rotate(137.721 214.396 137.448)" fill="#0877BC"/>
<circle cx="264.052" cy="92.2942" r="1.74783" transform="rotate(137.721 264.052 92.2942)" fill="#0877BC"/>
<circle cx="230.947" cy="122.398" r="1.74783" transform="rotate(137.721 230.947 122.398)" fill="#0877BC"/>
<circle cx="272.328" cy="84.7688" r="1.74783" transform="rotate(137.721 272.328 84.7688)" fill="#0877BC"/>
<circle cx="239.224" cy="114.872" r="1.74783" transform="rotate(137.721 239.224 114.872)" fill="#0877BC"/>
<circle cx="206.115" cy="144.972" r="1.74783" transform="rotate(137.721 206.115 144.972)" fill="#0877BC"/>
<circle cx="288.884" cy="69.718" r="1.74783" transform="rotate(137.721 288.884 69.718)" fill="#0877BC"/>
<circle cx="255.775" cy="99.8215" r="1.74783" transform="rotate(137.721 255.775 99.8215)" fill="#0877BC"/>
<circle cx="222.67" cy="129.923" r="1.74783" transform="rotate(137.721 222.67 129.923)" fill="#0877BC"/>
<circle cx="292.08" cy="237.298" r="1.74783" transform="rotate(137.721 292.08 237.298)" fill="#0877BC"/>
<circle cx="283.802" cy="244.823" r="1.74783" transform="rotate(137.721 283.802 244.823)" fill="#0877BC"/>
<circle cx="284.552" cy="187.447" r="1.74783" transform="rotate(137.721 284.552 187.447)" fill="#0877BC"/>
<circle cx="267.998" cy="202.499" r="1.74783" transform="rotate(137.721 267.998 202.499)" fill="#0877BC"/>
<circle cx="276.271" cy="194.973" r="1.74783" transform="rotate(137.721 276.271 194.973)" fill="#0877BC"/>
<circle cx="259.724" cy="210.024" r="1.74783" transform="rotate(137.721 259.724 210.024)" fill="#0877BC"/>
<circle cx="260.459" cy="152.655" r="1.74783" transform="rotate(137.721 260.459 152.655)" fill="#0877BC"/>
<circle cx="277.013" cy="137.605" r="1.74783" transform="rotate(137.721 277.013 137.605)" fill="#0877BC"/>
<circle cx="243.908" cy="167.704" r="1.74783" transform="rotate(137.721 243.908 167.704)" fill="#0877BC"/>
<circle cx="285.291" cy="130.079" r="1.74783" transform="rotate(137.721 285.291 130.079)" fill="#0877BC"/>
<circle cx="252.185" cy="160.181" r="1.74783" transform="rotate(137.721 252.185 160.181)" fill="#0877BC"/>
<circle cx="268.736" cy="145.13" r="1.74783" transform="rotate(137.721 268.736 145.13)" fill="#0877BC"/>
<circle cx="235.631" cy="175.23" r="1.74783" transform="rotate(137.721 235.631 175.23)" fill="#0877BC"/>
<circle cx="278.674" cy="206.97" r="1.74783" transform="rotate(137.721 278.674 206.97)" fill="#FFC613"/>
<circle cx="286.947" cy="199.445" r="1.74783" transform="rotate(137.721 286.947 199.445)" fill="#FFC613"/>
<circle cx="270.4" cy="214.495" r="1.74783" transform="rotate(137.721 270.4 214.495)" fill="#FFC613"/>
<circle cx="271.142" cy="157.122" r="1.74783" transform="rotate(137.721 271.142 157.122)" fill="#FFC613"/>
<circle cx="287.689" cy="142.07" r="1.74783" transform="rotate(137.721 287.689 142.07)" fill="#FFC613"/>
<circle cx="254.588" cy="172.171" r="1.74783" transform="rotate(137.721 254.588 172.171)" fill="#FFC613"/>
<circle cx="262.861" cy="164.646" r="1.74783" transform="rotate(137.721 262.861 164.646)" fill="#FFC613"/>
<circle cx="279.416" cy="149.595" r="1.74783" transform="rotate(137.721 279.416 149.595)" fill="#FFC613"/>
<circle cx="246.306" cy="179.697" r="1.74783" transform="rotate(137.721 246.306 179.697)" fill="#FFC613"/>
<circle cx="285.724" cy="214.73" r="1.74783" transform="rotate(137.721 285.724 214.73)" fill="#1AAD4F"/>
<circle cx="277.447" cy="222.255" r="1.74783" transform="rotate(137.721 277.447 222.255)" fill="#1AAD4F"/>
<circle cx="278.197" cy="164.88" r="1.74783" transform="rotate(137.721 278.197 164.88)" fill="#1AAD4F"/>
<circle cx="261.642" cy="179.929" r="1.74783" transform="rotate(137.721 261.642 179.929)" fill="#1AAD4F"/>
<circle cx="269.916" cy="172.403" r="1.74783" transform="rotate(137.721 269.916 172.403)" fill="#1AAD4F"/>
<circle cx="286.47" cy="157.355" r="1.74783" transform="rotate(137.721 286.47 157.355)" fill="#1AAD4F"/>
<circle cx="253.369" cy="187.455" r="1.74783" transform="rotate(137.721 253.369 187.455)" fill="#1AAD4F"/>
</g>
</g>
</svg>
