<svg width="69" height="69" viewBox="0 0 69 69" fill="none" xmlns="http://www.w3.org/2000/svg">
<path fill-rule="evenodd" clip-rule="evenodd" d="M33.9065 3.35224C34.222 1.44977 35.8596 0 37.8323 0H41.3188C43.5173 0 45.2995 1.80058 45.2995 4.0217V9.56606H45.3739C47.5724 9.56606 49.3547 11.3666 49.3547 13.5878V36.533C50.2206 36.8816 50.9872 37.4532 51.5738 38.186L59.5264 29.8896C61.4501 27.6255 64.8318 27.3481 67.0893 29.2792C69.3611 31.2285 69.648 34.6878 67.7297 36.9914C62.4375 43.4115 59.4455 47.0436 57.7509 49.1006C55.5546 51.7667 55.5378 51.7871 55.5173 51.8029L55.5169 51.8032C55.5147 51.8049 55.5122 51.8068 55.5069 51.812C53.2294 54.0617 50.2252 55.3006 47.0467 55.3006H29.1304C28.0773 55.3006 27.0809 55.7095 26.3242 56.4514L24.9188 57.8272C25.4069 59.2773 25.0694 60.9455 23.9593 62.0722L17.4253 68.6059C16.8961 69.135 16.0457 69.1291 15.5233 68.5946L0.391128 53.1183C-0.131252 52.5838 -0.130199 51.7216 0.393234 51.1887L6.8045 44.662C7.77659 43.6753 9.12782 43.2819 10.409 43.5283C13.4501 37.8242 19.1168 34.7818 25.6065 34.7818C27.0318 34.7818 28.4304 34.9522 29.7891 35.2904V13.5878C29.7891 11.3666 31.5713 9.56606 33.7698 9.56606H33.8516V6.03338H27.198C26.4652 6.03338 25.8711 5.43318 25.8711 4.69281C25.8711 3.95243 26.4652 3.35224 27.198 3.35224H33.9065ZM42.6457 4.0217V9.56606H36.5054V4.0217C36.5054 3.28132 37.0995 2.68113 37.8323 2.68113H41.3188C42.0516 2.68113 42.6457 3.28132 42.6457 4.0217ZM46.7008 36.1496V13.5878C46.7008 12.8474 46.1067 12.2472 45.3739 12.2472H33.7698C33.037 12.2472 32.4429 12.8474 32.4429 13.5878V36.1496H46.7008ZM31.5391 38.7708C29.666 37.9391 27.6702 37.5174 25.606 37.5174C19.8466 37.5174 15.2163 40.1899 12.7487 44.8886L23.3069 55.6048L24.4522 54.4829C25.7129 53.2466 27.3748 52.5651 29.1304 52.5651H47.0467C49.4964 52.5651 51.8139 51.6185 53.5791 49.8985L65.667 35.2308C66.6301 34.0736 66.4864 32.344 65.3511 31.3696C64.2168 30.399 62.5117 30.5449 61.5512 31.6957C61.5199 31.7335 61.0172 32.2579 58.339 35.0515L58.3259 35.0653C57.0304 36.4166 55.2279 38.2969 52.7271 40.9061C52.7576 41.1423 52.7744 41.3807 52.7744 41.6213C52.7744 44.6385 50.3563 47.0929 47.3837 47.0929H36.3879C35.6439 47.0929 35.0404 46.4809 35.0404 45.7251C35.0404 44.9699 35.6439 44.3573 36.3879 44.3573H47.3837C48.8703 44.3573 50.0793 43.1301 50.0793 41.6213C50.0793 40.0953 48.845 38.8857 47.3837 38.8857H32.0794C31.8935 38.8857 31.7097 38.8467 31.5391 38.7708ZM10.3806 46.4029C9.83872 46.0629 9.15626 46.1442 8.71182 46.5953L3.24842 52.1567L16.4906 65.7003L22.0609 60.1303C22.5633 59.6204 22.5923 58.7492 22.0536 58.2024C17.1957 53.2785 14.3944 50.4294 12.7664 48.7737L12.7648 48.7721C10.5888 46.559 10.5102 46.4791 10.417 46.4242C10.4135 46.4222 10.41 46.4202 10.4063 46.4181C10.3987 46.4137 10.3904 46.409 10.3806 46.4029Z" fill="#45B3F1"/>
</svg>
