<svg width="128" height="48" viewBox="0 0 128 48" fill="none" xmlns="http://www.w3.org/2000/svg">
<g clip-path="url(#clip0)">
<path fill-rule="evenodd" clip-rule="evenodd" d="M23.7 0C10.6 0 0 10.7 0 23.9C0 37 10.6 47.7 23.7 47.7C23.9 47.7 127.6 47.7 127.6 47.7V0C127.6 0 23.9 0 23.7 0Z" fill="#5FAF61"/>
<path fill-rule="evenodd" clip-rule="evenodd" d="M93.6 16.0999H91V31.3999H93.2V27.2999H98.4L101.3 31.3999H103.9L93.6 16.0999ZM93.2 25.0999V19.3999L96.9 25.0999H93.2Z" fill="white"/>
<path fill-rule="evenodd" clip-rule="evenodd" d="M27.4992 15.5999C26.2992 16.7999 25.4992 18.1999 24.8992 19.7999C24.4992 20.9999 24.1992 22.2999 24.1992 23.6999C24.1992 25.4999 24.5992 27.1999 25.2992 28.6999C25.7992 29.8999 26.5992 30.9999 27.4992 31.8999V15.5999Z" fill="white"/>
<path fill-rule="evenodd" clip-rule="evenodd" d="M33 23.7999L43 13.8999C41 12.5999 38.7 11.8999 36.2 11.8999C35.1 11.8999 34 12.0999 33 12.2999V35.3999C33.9 35.6999 35.1 35.7999 36.2 35.7999C38.7 35.7999 40.9 35.0999 43 33.7999L33 23.7999Z" fill="white"/>
<path fill-rule="evenodd" clip-rule="evenodd" d="M39 21.0999L47 29.0999C47.7 27.7999 48.2 25.7999 48.2 23.5999C48.2 22.5999 48 21.6999 47.8 20.7999C47.3 18.6999 46.2 16.8999 44.7 15.3999L39 21.0999Z" fill="white"/>
<path fill-rule="evenodd" clip-rule="evenodd" d="M83.7984 23.7999L90.4984 31.3999H87.4984L80.8984 23.7999L87.4984 16.0999H90.4984L83.7984 23.7999Z" fill="white"/>
<path fill-rule="evenodd" clip-rule="evenodd" d="M59.8 23.7999L66.6 31.3999H63.5L57 23.7999L63.5 16.0999H66.6L59.8 23.7999Z" fill="white"/>
<path fill-rule="evenodd" clip-rule="evenodd" d="M73.6988 25.4999C73.4988 25.5999 73.2988 25.6999 73.0988 25.6999L77.7988 31.4999H74.9988L68.9988 23.7999H71.7988C73.1988 23.7999 74.4988 22.5999 74.4988 21.0999C74.4988 19.5999 73.2988 18.3999 71.7988 18.3999H68.9988V31.4999H66.7988V16.0999H71.7988C73.0988 16.0999 74.3988 16.5999 75.2988 17.4999C76.1988 18.3999 76.6988 19.6999 76.6988 20.9999C76.6988 22.2999 76.0988 23.4999 75.2988 24.3999C74.7988 24.9999 74.2988 25.1999 73.6988 25.4999Z" fill="white"/>
<path d="M80.9988 16.0999H78.7988V31.3999H80.9988V16.0999Z" fill="white"/>
<path d="M56.9988 16.0999H54.7988V31.3999H56.9988V16.0999Z" fill="white"/>
</g>
<defs>
<clipPath id="clip0">
<rect width="127.6" height="47.8" fill="white"/>
</clipPath>
</defs>
</svg>
