<svg width="69" height="69" viewBox="0 0 69 69" fill="none" xmlns="http://www.w3.org/2000/svg">
<path d="M67.2705 20.9058C66.3812 20.0165 65.2494 19.5141 64.0858 19.3988C64.1804 19.0011 64.2291 18.5892 64.2291 18.1693C64.2291 16.766 63.6855 15.4496 62.6984 14.4626C61.82 13.5843 60.7054 13.0834 59.557 12.96C59.9947 11.2277 59.5373 9.31368 58.1846 7.96106C56.832 6.60844 54.918 6.15083 53.1855 6.58877C53.0621 5.44057 52.5612 4.32565 51.683 3.44735C50.6961 2.4603 49.3796 1.91672 47.9765 1.91672C47.9763 1.91672 47.9765 1.91672 47.9764 1.91672C46.5732 1.91672 45.2567 2.4603 44.2698 3.44721L42.9709 4.74593C38.7267 3.41285 34.1856 2.95066 29.75 3.39749C28.5142 2.30682 27.0975 1.34458 25.506 0.694139C20.9384 -1.17269 18.8496 1.23125 18.3183 2.01253C17.3476 3.44021 17.2698 5.33331 18.0103 6.87282C16.8688 7.46154 15.7586 8.11791 14.6968 8.83492C14.08 9.25143 13.9178 10.089 14.3343 10.7058C14.5946 11.0913 15.0195 11.2992 15.4522 11.2992C15.7117 11.2992 15.9739 11.2244 16.2052 11.0683C17.3226 10.3135 18.4987 9.63209 19.7096 9.03407C21.7474 11.369 24.8158 15.6903 24.0331 19.8395C23.4973 22.6787 23.6134 25.4191 23.7444 28.0719C23.5715 28.0502 23.3964 28.0381 23.2192 28.0381C22.1123 28.0381 21.0738 28.4672 20.295 29.246L4.30244 45.2387C1.59437 36.6764 2.74689 27.0722 8.03285 19.2439C8.44937 18.6272 8.28699 17.7896 7.67024 17.3731C7.05349 16.9566 6.21589 17.1189 5.79937 17.7357C-2.98443 30.7442 -1.29264 48.2529 9.82206 59.3676C16.0336 65.579 24.2922 68.9998 33.0765 68.9998C41.8609 68.9998 50.1195 65.579 56.3308 59.3676C64.0042 51.6943 67.3743 40.8255 65.4212 30.1685L67.2705 28.3192C69.3144 26.2753 69.3144 22.9497 67.2705 20.9058ZM40.7931 6.9243L35.8734 11.8439C35.8605 11.816 35.8471 11.7866 35.833 11.7555C35.6141 11.2693 34.3727 8.61837 32.179 5.93847C35.0785 5.8556 37.9931 6.18951 40.7931 6.9243ZM22.2006 31.1518C22.4705 30.8819 22.8323 30.7332 23.2193 30.7332C23.6062 30.7332 23.968 30.8819 24.2379 31.1518L41.413 48.3267L41.4136 48.3274L41.4139 48.3277C41.9751 48.8894 41.9753 49.8032 41.4136 50.3647L36.31 55.4683L17.0969 36.2554L22.2006 31.1518ZM5.33516 48.0172L15.1912 38.1612L34.4042 57.374L26.2463 65.5319C20.7911 64.2763 15.7837 61.5179 11.7276 57.4618C8.94781 54.6821 6.81148 51.4661 5.33516 48.0172ZM54.4251 57.462C48.7227 63.1644 41.1409 66.3049 33.0764 66.3049C31.8701 66.3049 30.675 66.2331 29.4951 66.0946L43.3193 52.2704C44.5797 51.01 44.8547 49.1317 44.1446 47.6015C45.3427 46.6635 46.8118 45.9329 48.3503 45.1685C50.3737 44.1632 52.4659 43.1236 54.0881 41.5016L63.0526 32.5371C64.1481 41.7058 61.0181 50.8689 54.4251 57.462ZM65.3647 26.4134L52.1824 39.5957C50.872 40.9062 49.0647 41.8042 47.1513 42.7548C45.5269 43.562 43.8585 44.3918 42.4243 45.5266L26.5161 29.6189C26.4953 29.1327 26.4715 28.6512 26.4482 28.1816C26.3146 25.4917 26.1884 22.9512 26.6813 20.3395C27.8159 14.3256 22.9529 8.47877 20.8096 6.24408C20.1174 5.5225 20.0021 4.32942 20.5471 3.52779C21.2064 2.5584 22.6422 2.43497 24.4865 3.18876C29.982 5.43491 33.2393 12.5593 33.3754 12.8615C33.8745 13.9702 34.2894 14.4296 35.0835 14.7522C35.1724 14.7883 35.2174 14.807 35.2705 14.838C35.799 15.1459 36.4692 15.0595 36.9021 14.6267L46.1757 5.35311C46.6536 4.87516 47.2932 4.61199 47.9765 4.61199C48.6598 4.61199 49.2995 4.87529 49.7774 5.35338C50.7705 6.34636 50.7705 7.96214 49.7775 8.95525C49.2514 9.48144 49.2514 10.3347 49.7775 10.8609C50.3039 11.3871 51.1571 11.3871 51.6833 10.8609L52.6771 9.8671C53.6701 8.87399 55.286 8.87399 56.279 9.8671C57.2721 10.8601 57.2721 12.476 56.2791 13.469L55.2852 14.4627H55.285C54.7589 14.9889 54.7589 15.8422 55.285 16.3684C55.811 16.8947 56.6643 16.8948 57.1907 16.3685H57.1908C58.1838 15.3757 59.7997 15.3754 60.7927 16.3685C61.2708 16.8465 61.5339 17.4861 61.5339 18.1694C61.5339 18.8528 61.2708 19.4923 60.7927 19.9704L59.8571 20.9059C59.3309 21.4321 59.3309 22.2854 59.8571 22.8116C60.3834 23.3379 61.2364 23.3379 61.7629 22.8116L61.7662 22.8081C62.2439 22.3323 62.8821 22.0702 63.5638 22.0702C64.2471 22.0702 64.8868 22.3335 65.3647 22.8114C65.8428 23.2894 66.106 23.9291 66.106 24.6124C66.106 25.2957 65.8428 25.9355 65.3647 26.4134Z" fill="#45B3F1"/>
<path d="M22.1091 37.05C22.3673 37.2847 22.6915 37.4003 23.0151 37.4003C23.3817 37.4003 23.7472 37.2516 24.013 36.959C24.5136 36.4084 24.4731 35.5562 23.9223 35.0556C23.3716 34.555 22.5196 34.5954 22.0189 35.1462L22.0182 35.1469C21.5177 35.6975 21.5586 36.5494 22.1091 37.05Z" fill="#45B3F1"/>
</svg>
