<svg width="48" height="31" viewBox="0 0 48 31" fill="none" xmlns="http://www.w3.org/2000/svg">
<rect width="48" height="3" rx="1.5" fill="#20384E"/>
<rect x="41.7256" y="14.0957" width="6.27451" height="3.02051" rx="1.51026" fill="#20384E"/>
<rect y="28" width="48" height="3" rx="1.5" fill="#20384E"/>
<path d="M1.47715 12.8866L0.828369 19.8535H1.86366L2.25017 14.8312C2.25017 14.7752 2.26398 14.6214 2.27778 13.9498H2.333C2.37441 14.1597 2.54006 14.7892 2.62288 15.069L4.12751 19.8535H5.02476L6.557 15.0131C6.61221 14.8452 6.75025 14.3276 6.79166 13.9498H6.84688C6.84688 14.0478 6.86068 14.8032 6.88829 15.125L7.2886 19.8535H8.37912L7.71653 12.8866H6.28092L4.98335 17.0136C4.88672 17.3354 4.66586 18.1887 4.59684 18.4545C4.50021 17.895 4.27935 17.1815 4.18272 16.8877L2.91276 12.8866H1.47715Z" fill="#20384E"/>
<path d="M16.8822 16.5659V16.3981C16.8822 15.4328 16.7994 14.9012 16.689 14.5094C16.6476 14.3835 16.4819 13.8379 16.0954 13.4462C15.7365 13.0685 15.0739 12.7188 14.2319 12.7188C13.1552 12.7188 12.465 13.2644 12.0508 13.8379C11.4573 14.6493 11.3469 15.5727 11.3469 16.3001C11.3469 17.2654 11.4849 18.2027 12.1613 19.0281C12.5478 19.4898 13.2104 20.0214 14.3975 20.0214C15.2534 20.0214 16.054 19.7136 16.7166 19.14L16.3025 18.4406C15.6951 19.0141 15.0049 19.0981 14.6184 19.0981C13.8592 19.0981 13.2242 18.7763 12.9067 18.2447C12.5892 17.7271 12.5892 17.0975 12.5892 16.7198V16.5659H16.8822ZM12.5892 15.7265C12.5754 15.2509 12.6996 14.6214 12.9481 14.2296C13.2104 13.81 13.5969 13.5581 14.1767 13.5581C14.7702 13.5581 15.2119 13.8519 15.419 14.1737C15.6675 14.5654 15.7503 15.3069 15.7365 15.7265H12.5892Z" fill="#20384E"/>
<path d="M21.1405 16.5519H24.1222V19.8535H25.1989V12.7327L24.1222 12.9426V15.7126H21.1405V12.7327L20.0638 12.9426V19.8535H21.1405V16.5519Z" fill="#20384E"/>
<path d="M29.9059 15.7825V12.7327L28.8292 12.9426V19.8535H29.9059V16.6219H31.0378C31.0516 17.4613 31.3415 18.4825 31.7694 19.0421C32.1974 19.6017 32.9428 20.0214 33.8538 20.0214C34.7787 20.0214 35.5241 19.6017 35.9658 19.0421C36.0348 18.9442 36.725 18.0628 36.725 16.3701C36.725 14.6773 36.0348 13.796 35.9658 13.698C35.5241 13.1384 34.7787 12.7188 33.8538 12.7188C32.9428 12.7188 32.1974 13.1384 31.7694 13.698C31.3829 14.2017 31.1206 15.055 31.0654 15.7825H29.9059ZM33.8538 13.5581C34.475 13.5581 34.9029 13.8939 35.1238 14.2296C35.3032 14.4954 35.5241 15.041 35.5241 16.3701C35.5241 17.6291 35.3308 18.1188 35.2204 18.3286C34.9995 18.7483 34.5716 19.182 33.8538 19.182C33.0394 19.182 32.6391 18.6224 32.4872 18.3146C32.2388 17.811 32.1835 16.9437 32.1835 16.3701C32.1835 15.111 32.3768 14.6214 32.4872 14.4115C32.7081 13.9918 33.1498 13.5581 33.8538 13.5581Z" fill="#20384E"/>
</svg>
