<svg width="47" height="47" viewBox="0 0 47 47" fill="none" xmlns="http://www.w3.org/2000/svg">
<path d="M27.806 23.5414L46.1068 5.23995C47.2978 4.04952 47.2978 2.12476 46.1068 0.934328C44.9164 -0.256104 42.9916 -0.256104 41.8012 0.934328L23.4998 19.2357L5.19887 0.934328C4.00788 -0.256104 2.08368 -0.256104 0.893243 0.934328C-0.297748 2.12476 -0.297748 4.04952 0.893243 5.23995L19.1941 23.5414L0.893243 41.8428C-0.297748 43.0332 -0.297748 44.958 0.893243 46.1484C1.48651 46.7422 2.26656 47.0405 3.04606 47.0405C3.82556 47.0405 4.60505 46.7422 5.19887 46.1484L23.4998 27.847L41.8012 46.1484C42.395 46.7422 43.1745 47.0405 43.954 47.0405C44.7335 47.0405 45.513 46.7422 46.1068 46.1484C47.2978 44.958 47.2978 43.0332 46.1068 41.8428L27.806 23.5414Z" fill="white"/>
</svg>
