<svg width="69" height="69" viewBox="0 0 69 69" fill="none" xmlns="http://www.w3.org/2000/svg">
<path d="M34.4739 59.5656C48.3092 59.5656 59.565 48.3116 59.565 34.4783C59.565 20.6451 48.3092 9.39111 34.4739 9.39111C20.6387 9.39111 9.38281 20.6451 9.38281 34.4783C9.38281 48.3116 20.6387 59.5656 34.4739 59.5656ZM34.4739 11.8998C46.9254 11.8998 57.0559 22.0288 57.0559 34.4783C57.0559 46.9279 46.9254 57.0568 34.4739 57.0568C22.0225 57.0568 11.8919 46.9279 11.8919 34.4783C11.8919 22.0288 22.0225 11.8998 34.4739 11.8998Z" fill="#45B3F1"/>
<path d="M33.2161 38.0219V44.5095C33.2161 44.8422 33.3483 45.1612 33.5836 45.3965C33.8189 45.6317 34.138 45.7639 34.4707 45.7639C34.8034 45.7639 35.1225 45.6317 35.3578 45.3965C35.5931 45.1612 35.7252 44.8422 35.7252 44.5095V38.0219C36.2228 37.8462 36.6779 37.5678 37.0608 37.2047C37.4437 36.8417 37.746 36.4022 37.948 35.9147C38.1499 35.4272 38.247 34.9027 38.233 34.3753C38.219 33.8479 38.0942 33.3293 37.8666 32.8532L41.6303 29.0901C41.8656 28.8549 41.9977 28.5358 41.9977 28.2031C41.9977 27.8704 41.8656 27.5514 41.6303 27.3161C41.395 27.0809 41.0759 26.9487 40.7431 26.9487C40.4104 26.9487 40.0913 27.0809 39.856 27.3161L36.0924 31.0792C35.6311 30.8577 35.1295 30.7326 34.6183 30.7115C34.107 30.6903 33.5968 30.7737 33.1189 30.9564C32.6409 31.1391 32.2052 31.4173 31.8385 31.7741C31.4717 32.1308 31.1815 32.5586 30.9857 33.0313C30.7899 33.5039 30.6925 34.0116 30.6996 34.5231C30.7066 35.0347 30.8179 35.5395 31.0267 36.0066C31.2354 36.4737 31.5373 36.8933 31.9137 37.2398C32.2902 37.5863 32.7333 37.8525 33.2161 38.0219ZM34.4707 33.2203C34.7188 33.2203 34.9614 33.2938 35.1677 33.4317C35.374 33.5695 35.5348 33.7654 35.6297 33.9946C35.7247 34.2238 35.7495 34.476 35.7011 34.7193C35.6527 34.9627 35.5332 35.1862 35.3578 35.3616C35.1823 35.537 34.9588 35.6565 34.7154 35.7049C34.4721 35.7533 34.2198 35.7284 33.9906 35.6335C33.7613 35.5386 33.5654 35.3778 33.4276 35.1715C33.2897 34.9652 33.2161 34.7227 33.2161 34.4746C33.2165 34.1421 33.3488 33.8232 33.584 33.5881C33.8192 33.3529 34.1381 33.2206 34.4707 33.2203Z" fill="#45B3F1"/>
<path d="M17.0455 44.4333C17.0579 44.4585 17.0698 44.4839 17.0841 44.5087C17.0984 44.5335 17.1141 44.5531 17.129 44.5755C18.875 47.5575 21.3562 50.0423 24.3358 51.7929C24.3671 51.8146 24.3985 51.8356 24.4313 51.8547C24.4484 51.8646 24.4664 51.8715 24.4836 51.8804C27.5217 53.6253 30.9641 54.5436 34.4677 54.5436C37.9713 54.5436 41.4138 53.6253 44.4518 51.8804C44.469 51.8715 44.4871 51.8647 44.5042 51.8547C44.5374 51.8356 44.5689 51.8146 44.5997 51.7929C47.5793 50.0423 50.0605 47.5575 51.8065 44.5755C51.8221 44.5531 51.8378 44.5322 51.8513 44.5087C51.8648 44.4852 51.8775 44.4585 51.8899 44.4333C53.6268 41.4013 54.5406 37.9679 54.5406 34.4738C54.5406 30.9797 53.6268 27.5463 51.8899 24.5143C51.8775 24.4891 51.8656 24.4637 51.8513 24.4389C51.8319 24.4052 51.8107 24.3732 51.7886 24.3422C50.0434 21.3733 47.5689 18.8993 44.5995 17.1547C44.5681 17.133 44.5368 17.112 44.504 17.0929C44.4797 17.0789 44.4546 17.0672 44.4297 17.0549C41.3969 15.3178 37.9624 14.4038 34.4672 14.4038C30.9719 14.4038 27.5375 15.3178 24.5047 17.0549C24.48 17.0672 24.4553 17.0788 24.4311 17.0926C24.3979 17.1117 24.3663 17.1327 24.3356 17.1544C21.3662 18.899 18.8917 21.373 17.1465 24.3418C17.1246 24.3732 17.1034 24.4046 17.0838 24.4386C17.0695 24.4634 17.0576 24.4888 17.0452 24.514C15.3083 27.546 14.3945 30.9794 14.3945 34.4735C14.3945 37.9676 15.3083 41.401 17.0452 44.433L17.0455 44.4333ZM18.6705 26.8031L20.8033 28.0339C20.946 28.1176 21.1039 28.1722 21.2678 28.1946C21.4317 28.217 21.5984 28.2068 21.7584 28.1645C21.9184 28.1222 22.0684 28.0487 22.1998 27.9482C22.3312 27.8477 22.4415 27.7222 22.5242 27.579C22.6069 27.4357 22.6605 27.2775 22.6818 27.1135C22.7032 26.9494 22.6918 26.7828 22.6485 26.6231C22.6051 26.4635 22.5306 26.314 22.4292 26.1832C22.3279 26.0525 22.2016 25.9431 22.0578 25.8614L19.9288 24.6324C21.1841 22.785 22.7777 21.1917 24.6254 19.9367L25.8546 22.0652C25.9363 22.209 26.0458 22.3352 26.1765 22.4366C26.3073 22.5379 26.4568 22.6124 26.6165 22.6557C26.7761 22.6991 26.9428 22.7104 27.1069 22.6891C27.2709 22.6678 27.4292 22.6142 27.5725 22.5315C27.7157 22.4488 27.8413 22.3386 27.9418 22.2071C28.0423 22.0757 28.1158 21.9258 28.1581 21.7658C28.2003 21.6059 28.2106 21.4392 28.1882 21.2753C28.1657 21.1114 28.1111 20.9535 28.0275 20.8108L26.7964 18.6784C28.8054 17.6989 30.984 17.1148 33.2136 16.958V19.4215C33.2136 19.7541 33.3458 20.0732 33.5811 20.3084C33.8164 20.5437 34.1355 20.6758 34.4682 20.6758C34.8009 20.6758 35.12 20.5437 35.3553 20.3084C35.5906 20.0732 35.7227 19.7541 35.7227 19.4215V16.958C37.9524 17.115 40.1311 17.6993 42.1401 18.679L40.9091 20.8114C40.8254 20.9542 40.7708 21.112 40.7484 21.2759C40.726 21.4398 40.7362 21.6065 40.7785 21.7664C40.8208 21.9264 40.8943 22.0764 40.9948 22.2078C41.0953 22.3392 41.2208 22.4494 41.3641 22.5321C41.5074 22.6148 41.6656 22.6684 41.8297 22.6897C41.9937 22.7111 42.1604 22.6997 42.3201 22.6564C42.4797 22.613 42.6293 22.5385 42.76 22.4372C42.8908 22.3358 43.0002 22.2096 43.082 22.0658L44.3111 19.9373C46.1589 21.1923 47.7524 22.7856 49.0077 24.633L46.8787 25.862C46.7349 25.9437 46.6087 26.0531 46.5073 26.1839C46.4059 26.3146 46.3314 26.4641 46.2881 26.6238C46.2447 26.7834 46.2334 26.95 46.2547 27.1141C46.276 27.2781 46.3296 27.4363 46.4123 27.5796C46.4951 27.7229 46.6053 27.8484 46.7367 27.9488C46.8682 28.0493 47.0182 28.1228 47.1781 28.1651C47.3381 28.2074 47.5048 28.2176 47.6687 28.1952C47.8327 28.1728 47.9906 28.1182 48.1333 28.0345L50.266 26.8037C51.2456 28.8122 51.8298 30.9903 51.9866 33.2194H49.5229C49.1901 33.2194 48.871 33.3516 48.6358 33.5868C48.4005 33.8221 48.2683 34.1411 48.2683 34.4738C48.2683 34.8065 48.4005 35.1255 48.6358 35.3608C48.871 35.596 49.1901 35.7282 49.5229 35.7282H51.9866C51.8297 37.9575 51.2453 40.1359 50.2654 42.1445L48.1327 40.9137C47.9899 40.83 47.832 40.7754 47.6681 40.753C47.5042 40.7306 47.3375 40.7408 47.1775 40.7831C47.0175 40.8254 46.8675 40.8989 46.7361 40.9994C46.6047 41.0999 46.4944 41.2253 46.4117 41.3686C46.329 41.5119 46.2754 41.6701 46.2541 41.8341C46.2328 41.9982 46.2441 42.1648 46.2874 42.3245C46.3308 42.4841 46.4053 42.6336 46.5067 42.7643C46.608 42.8951 46.7343 43.0045 46.8781 43.0862L49.0071 44.3152C47.7518 46.1626 46.1582 47.7559 44.3105 49.0109L43.0813 46.8824C42.9996 46.7386 42.8902 46.6124 42.7594 46.511C42.6286 46.4097 42.4791 46.3352 42.3194 46.2918C42.1598 46.2485 41.9931 46.2372 41.829 46.2585C41.665 46.2798 41.5067 46.3334 41.3634 46.4161C41.2202 46.4988 41.0947 46.609 40.9942 46.7404C40.8937 46.8718 40.8201 47.0218 40.7779 47.1818C40.7356 47.3417 40.7253 47.5084 40.7477 47.6723C40.7702 47.8362 40.8248 47.9941 40.9084 48.1368L42.1395 50.2692C40.1307 51.2486 37.9522 51.8327 35.7227 51.9895V49.5261C35.7227 49.1935 35.5906 48.8744 35.3553 48.6392C35.12 48.4039 34.8009 48.2718 34.4682 48.2718C34.1355 48.2718 33.8164 48.4039 33.5811 48.6392C33.3458 48.8744 33.2136 49.1935 33.2136 49.5261V51.9895C30.9839 51.8326 28.8052 51.2483 26.7963 50.2686L28.0273 48.1361C28.191 47.8482 28.2342 47.5072 28.1474 47.1875C28.0606 46.8678 27.8509 46.5955 27.564 46.4299C27.2771 46.2642 26.9363 46.2188 26.616 46.3035C26.2957 46.3881 26.022 46.596 25.8544 46.8818L24.6253 49.0103C22.7775 47.7552 21.184 46.162 19.9287 44.3146L22.0576 43.0856C22.2015 43.0039 22.3277 42.8945 22.4291 42.7637C22.5305 42.633 22.605 42.4835 22.6483 42.3238C22.6917 42.1642 22.703 41.9975 22.6817 41.8335C22.6603 41.6695 22.6068 41.5112 22.524 41.368C22.4413 41.2247 22.3311 41.0992 22.1996 40.9987C22.0682 40.8983 21.9182 40.8248 21.7582 40.7825C21.5983 40.7402 21.4315 40.73 21.2676 40.7524C21.1037 40.7748 20.9458 40.8294 20.8031 40.9131L18.6703 42.1439C17.6907 40.1354 17.1066 37.9573 16.9497 35.7282H19.4135C19.7462 35.7282 20.0653 35.596 20.3006 35.3608C20.5359 35.1255 20.6681 34.8065 20.6681 34.4738C20.6681 34.1411 20.5359 33.8221 20.3006 33.5868C20.0653 33.3516 19.7462 33.2194 19.4135 33.2194H16.9497C17.1067 30.9901 17.6911 28.8117 18.671 26.8031H18.6705Z" fill="#45B3F1"/>
<path d="M68.7557 30.4019C68.0817 24.7748 66.0319 19.4003 62.7873 14.7534C59.5427 10.1065 55.2033 6.33014 50.1524 3.75811C45.1016 1.18608 39.495 -0.102459 33.8278 0.00636278C28.1607 0.115185 22.6076 1.61801 17.6593 4.38205C17.5137 4.46139 17.3853 4.56882 17.2815 4.6981C17.1776 4.82739 17.1005 4.97598 17.0544 5.13527C17.0084 5.29457 16.9944 5.46141 17.0133 5.62614C17.0321 5.79087 17.0835 5.95023 17.1643 6.095C17.2452 6.23977 17.3539 6.36708 17.4843 6.46956C17.6147 6.57204 17.764 6.64766 17.9238 6.69205C18.0836 6.73644 18.2506 6.74871 18.4152 6.72816C18.5797 6.70761 18.7386 6.65464 18.8825 6.57232C24.3976 3.49168 30.7012 2.11201 36.9992 2.60713C43.2971 3.10226 49.3076 5.45004 54.2734 9.35465C68.1403 20.2565 70.5513 40.4057 59.6478 54.2705C57.051 57.5726 53.8292 60.331 50.1662 62.3882C46.5032 64.4454 42.4709 65.761 38.2994 66.26C34.1279 66.7589 29.8989 66.4315 25.854 65.2963C21.809 64.1612 18.0273 62.2405 14.7248 59.644C1.78481 49.471 -1.27081 31.0916 7.50512 17.3322L7.76309 19.4875C7.80559 19.8153 7.97577 20.1131 8.23664 20.3161C8.49751 20.5191 8.82798 20.611 9.15622 20.5718C9.48446 20.5325 9.78394 20.3653 9.98956 20.1065C10.1952 19.8477 10.2903 19.5182 10.2543 19.1896L9.60995 13.8037C9.5905 13.6401 9.53897 13.4819 9.45833 13.3382C9.37768 13.1946 9.26949 13.0682 9.13994 12.9663C9.0104 12.8645 8.86205 12.7892 8.70337 12.7447C8.54469 12.7003 8.37881 12.6875 8.2152 12.7072L2.82861 13.3515C2.66502 13.3711 2.50689 13.4227 2.36324 13.5033C2.21959 13.584 2.09324 13.6922 1.9914 13.8216C1.78573 14.0832 1.69238 14.4156 1.73189 14.746C1.7714 15.0763 1.94054 15.3774 2.20209 15.583C2.46364 15.7887 2.79618 15.882 3.12656 15.8425L5.67723 15.5374C2.2586 20.7342 0.30865 26.7584 0.0337203 32.9725C-0.24121 39.1866 1.16911 45.3595 4.11544 50.8378C7.06176 56.3162 11.4345 60.8963 16.7709 64.0934C22.1074 67.2906 28.209 68.9859 34.4301 69C35.8229 68.9997 37.2144 68.9164 38.5972 68.7507C43.0959 68.2127 47.4445 66.794 51.3948 64.5756C55.3451 62.3572 58.8197 59.3825 61.6202 55.8215C64.4207 52.2605 66.4922 48.1828 67.7165 43.8213C68.9408 39.4598 69.2939 34.8998 68.7557 30.4019Z" fill="#45B3F1"/>
</svg>
