<svg width="29" height="29" viewBox="0 0 29 29" fill="none" xmlns="http://www.w3.org/2000/svg">
<circle cx="14.5" cy="14.5" r="14.5" fill="#F2FAFF"/>
<g clip-path="url(#clip0)">
<path d="M12.4422 19.8785C11.8016 20.5195 10.7624 20.5195 10.1218 19.8785C9.49081 19.248 9.48075 18.231 10.092 17.5882L13.55 14.1302C12.4806 13.8443 11.2947 14.1075 10.4397 14.9206L8.90218 16.4581C7.67961 17.7437 7.69974 19.7775 8.96168 21.0386C10.2429 22.3207 12.3213 22.3207 13.6025 21.0386L15.0202 19.6209C15.8795 18.7622 16.1627 17.5454 15.8702 16.4505L12.4422 19.8785Z" fill="#45B3F1"/>
<path d="M21.0395 8.96168C19.7785 7.69974 17.7447 7.67961 16.4591 8.90218L14.9215 10.4397C14.1085 11.2947 13.8452 12.4806 14.1312 13.55L17.5892 10.092C18.232 9.48075 19.2489 9.49081 19.8794 10.1218C20.5205 10.7624 20.5205 11.8016 19.8794 12.4422L16.4514 15.8702C17.5463 16.1627 18.7632 15.8795 19.6219 15.0202L21.0395 13.6025C22.3216 12.3213 22.3216 10.2429 21.0395 8.96168Z" fill="#45B3F1"/>
<path d="M12.5061 17.4945C12.8264 17.815 13.346 17.815 13.6662 17.4945L17.495 13.6658C17.8155 13.3455 17.8155 12.8258 17.495 12.5056C17.1797 12.1901 16.6713 12.185 16.3499 12.4907L12.4912 16.3494C12.1855 16.6708 12.1906 17.1792 12.5061 17.4945Z" fill="#45B3F1"/>
</g>
<defs>
<clipPath id="clip0">
<rect width="14" height="14" fill="white" transform="translate(8 8)"/>
</clipPath>
</defs>
</svg>
